<svg xmlns="http://www.w3.org/2000/svg" width="24" height="24" fill="none" id="christmas-tree"><path fill="#000" fill-rule="evenodd" d="M11.646 2.646a.5.5 0 0 1 .708 0l5 5A.5.5 0 0 1 17 8.5h-1.793l4.147 4.146A.5.5 0 0 1 19 13.5h-3.619l4.94 4.116A.5.5 0 0 1 20 18.5h-5.5V21a.5.5 0 1 1-1 0v-3a.5.5 0 0 1 .5-.5h4.619l-4.94-4.116A.5.5 0 0 1 14 12.5h3.793l-4.146-4.146A.5.5 0 0 1 14 7.5h1.793L12 3.707 8.207 7.5H10a.5.5 0 0 1 .354.854L6.207 12.5H10a.5.5 0 0 1 .32.884L5.381 17.5H10a.5.5 0 0 1 .5.5v2a.5.5 0 1 1-1 0v-1.5H4a.5.5 0 0 1-.32-.884L8.619 13.5H5a.5.5 0 0 1-.354-.854L8.793 8.5H7a.5.5 0 0 1-.354-.854l5-5Z" clip-rule="evenodd"></path></svg>