<?xml version="1.0" encoding="utf-8"?>
<!-- Generator: Adobe Illustrator 28.0.0, SVG Export Plug-In . SVG Version: 6.00 Build 0)  -->
<svg version="1.1" id="Layer_1" xmlns="http://www.w3.org/2000/svg" xmlns:xlink="http://www.w3.org/1999/xlink" x="0px" y="0px"
	 viewBox="0 0 1080 1080" style="enable-background:new 0 0 1080 1080;" xml:space="preserve">
<style type="text/css">
	.st0{fill:#B5A174;}
	.st1{fill:#6A994E;}
	.st2{fill:#A7C957;}
	.st3{fill:#F2E8CF;}
	.st4{fill:#897754;}
	.st5{fill:#386641;}
</style>
<text transform="matrix(1 0 0 1 1127.5264 -29.4736)"><tspan x="0" y="0" style="font-family:'MyriadPro-Regular'; font-size:12px;">Hunter Green #386641</tspan><tspan x="0" y="14.4" style="font-family:'MyriadPro-Regular'; font-size:12px;">Asparagus #6A994E</tspan><tspan x="0" y="28.8" style="font-family:'MyriadPro-Regular'; font-size:12px;">Yellow Green #A7C957</tspan><tspan x="0" y="43.2" style="font-family:'MyriadPro-Regular'; font-size:12px;">Parchment #F2E8CF</tspan></text>
<path class="st0" d="M227.34,573h-38.79c-8.88,0-16.07-7.2-16.07-16.07v-130.6c0-8.88,7.2-16.07,16.07-16.07h38.79
	c8.88,0,16.07,7.2,16.07,16.07v130.6C243.41,565.8,236.22,573,227.34,573z"/>
<g>
	<path class="st1" d="M197.69,45.95c4.62-7.94,16.17-7.94,20.79,0l44.7,76.8l44.7,76.8c4.62,7.94-1.15,17.86-10.39,17.86h-89.39
		h-89.39c-9.24,0-15.01-9.92-10.39-17.86l44.7-76.8L197.69,45.95z"/>
	<path class="st1" d="M194.27,91.09c6.25-10.78,21.88-10.78,28.14,0l60.5,104.28l60.5,104.28c6.25,10.78-1.56,24.25-14.07,24.25
		h-121h-121c-12.51,0-20.32-13.47-14.07-24.25l60.5-104.28L194.27,91.09z"/>
	<path class="st1" d="M189.78,143.1c8.17-14.04,28.6-14.04,36.77,0l79.07,135.86l79.07,135.86c8.17,14.04-2.04,31.59-18.39,31.59
		H208.17H50.04c-16.34,0-26.56-17.55-18.39-31.59l79.07-135.86L189.78,143.1z"/>
</g>
<path class="st2" d="M240.22,110.52c3.77-6.52,13.18-6.52,16.95,0l36.43,63.11l36.43,63.11c3.77,6.52-0.94,14.67-8.47,14.67H248.7
	h-72.87c-7.53,0-12.24-8.15-8.47-14.67l36.43-63.11L240.22,110.52z"/>
<path class="st2" d="M237.44,147.6c5.1-8.86,17.84-8.86,22.94,0l49.32,85.68l49.32,85.68c5.1,8.86-1.27,19.92-11.47,19.92h-98.63
	h-98.63c-10.19,0-16.56-11.07-11.47-19.92l49.32-85.68L237.44,147.6z"/>
<path class="st2" d="M233.78,196.92c6.66-11.54,23.31-11.54,29.98,0l64.45,111.63l64.45,111.63c6.66,11.54-1.67,25.96-14.99,25.96
	h-128.9h-128.9c-13.32,0-21.65-14.42-14.99-25.96l64.45-111.63L233.78,196.92z"/>
<path class="st3" d="M281.09,196.08L281.09,196.08c-4.81,2.4-10.65,0.44-13.04-4.37l-16.33-32.77c-2.4-4.81-0.44-10.65,4.37-13.04
	l0,0c4.81-2.4,10.65-0.44,13.04,4.37l16.33,32.77C287.85,187.85,285.89,193.68,281.09,196.08z"/>
<path class="st4" d="M225.11,494.76L225.11,494.76c-2.21,0-4-1.79-4-4v-26.31c0-2.21,1.79-4,4-4h0c2.21,0,4,1.79,4,4v26.31
	C229.11,492.97,227.32,494.76,225.11,494.76z"/>
<path class="st4" d="M190.79,510.78L190.79,510.78c-2.21,0-4-1.79-4-4V481c0-2.21,1.79-4,4-4l0,0c2.21,0,4,1.79,4,4v25.77
	C194.79,508.98,193,510.78,190.79,510.78z"/>
<path class="st4" d="M212.52,541.67L212.52,541.67c-2.21,0-4-1.79-4-4v-26.31c0-2.21,1.79-4,4-4h0c2.21,0,4,1.79,4,4v26.31
	C216.53,539.87,214.74,541.67,212.52,541.67z"/>
<g>
	<rect x="-341.52" y="1047.26" class="st0" width="70.93" height="170.74"/>
	<g>
		<polygon class="st5" points="-293.35,649 -237.69,745.4 -182.04,841.79 -293.35,841.79 -404.66,841.79 -349,745.4 		"/>
		<polygon class="st5" points="-296.19,689.4 -223,816.16 -149.81,942.92 -296.19,942.92 -442.56,942.92 -369.37,816.16 		"/>
		<polygon class="st5" points="-293.26,742.09 -194.81,912.62 -96.36,1083.14 -293.26,1083.14 -490.16,1083.14 -391.71,912.62 		"/>
	</g>
	<polygon class="st1" points="-244.3,733.84 -199.4,811.62 -154.49,889.4 -244.3,889.4 -334.12,889.4 -289.21,811.62 	"/>
	<polygon class="st1" points="-246.59,766.44 -187.54,868.72 -128.49,971 -246.59,971 -364.7,971 -305.65,868.72 	"/>
	<polygon class="st1" points="-244.23,808.96 -164.79,946.55 -85.36,1084.14 -244.23,1084.14 -403.11,1084.14 -323.67,946.55 	"/>
	
		<rect x="-232" y="769.81" transform="matrix(0.895 -0.4461 0.4461 0.895 -379.7538 -17.5247)" class="st3" width="9.8" height="56.06"/>
	<rect x="-292.9" y="1098.44" class="st4" width="8.01" height="34.32"/>
	<rect x="-327.22" y="1114.46" class="st4" width="8.01" height="34.32"/>
	<rect x="-305.48" y="1145.35" class="st4" width="8.01" height="34.32"/>
</g>
<g>
	<polygon class="st5" points="-260.74,127.57 -163.34,296.28 -65.93,465 -260.74,465 -455.56,465 -358.15,296.28 	"/>
	<polygon class="st1" points="-260.38,55.24 -182.51,190.12 -104.63,325 -260.38,325 -416.12,325 -338.25,190.12 	"/>
	<polygon class="st2" points="-263.5,-4.18 -203.88,99.08 -144.27,202.34 -263.5,202.34 -382.73,202.34 -323.12,99.08 	"/>
	<rect x="-302" y="465" class="st0" width="84" height="96"/>
</g>
</svg>
