<svg xmlns="http://www.w3.org/2000/svg" viewBox="0 0 32 32" id="christmas-tree"><g data-name="2"><path fill="#6A994E" d="M23.87,24.5A1,1,0,0,1,23,25H17v4a1,1,0,0,1-2,0V25H9a1,1,0,0,1-.86-1.5l3.2-5.5H10.4a1,1,0,0,1-.87-1.49L12,12l.56-1H11.8a1,1,0,0,1-.86-1.51l4.2-7a1,1,0,0,1,1.72,0l4.2,7A1,1,0,0,1,20.2,11h-.81L20,12l2.52,4.51A1,1,0,0,1,21.6,18h-.94l3.2,5.5A1,1,0,0,1,23.87,24.5Z"></path><path fill="#A7C957" d="M21.07,10.49a1,1,0,0,1-.87.51H11.8a1,1,0,0,1-.86-1.51l4.2-7a1,1,0,0,1,1.72,0l4.2,7A1,1,0,0,1,21.07,10.49Z"></path><path fill="#386641" d="M23.87,24.5A1,1,0,0,1,23,25H9a1,1,0,0,1-.86-1.5L10.76,19l.58-1h9.32l.58,1,2.62,4.5A1,1,0,0,1,23.87,24.5Z"></path><path fill="#F2E8CF" d="M17,25v4a1,1,0,0,1-2,0V25Z"></path></g></svg>