<?xml version="1.0" encoding="utf-8"?>
<!-- Generator: Adobe Illustrator 28.0.0, SVG Export Plug-In . SVG Version: 6.00 Build 0)  -->
<svg version="1.1" id="Layer_1" xmlns="http://www.w3.org/2000/svg" xmlns:xlink="http://www.w3.org/1999/xlink" x="0px" y="0px"
	 viewBox="0 0 268 302" style="enable-background:new 0 0 268 302;" xml:space="preserve">
<style type="text/css">
	.st0{fill:#BC4749;}
	.st1{fill:#D7988C;}
	.st2{fill:#D8BCBC;stroke:#F2E8CF;stroke-width:0.75;stroke-miterlimit:10;}
	.st3{fill:none;stroke:#F2E8CF;stroke-width:0.75;stroke-miterlimit:10;}
	.st4{fill:#D8BCBC;stroke:#F2E8CF;stroke-width:0.5;stroke-miterlimit:10;}
	.st5{fill:none;stroke:#F2E8CF;stroke-width:0.5;stroke-miterlimit:10;}
	.st6{fill:#D8BCBC;stroke:#F2E8CF;stroke-width:0.25;stroke-miterlimit:10;}
	.st7{fill:none;stroke:#F2E8CF;stroke-width:0.25;stroke-miterlimit:10;}
	.st8{fill:#F2E8CF;}
	.st9{fill:#CA706B;}
	.st10{fill:none;stroke:#CA706B;stroke-miterlimit:10;}
	.st11{fill:none;stroke:#E5DAC3;stroke-miterlimit:10;}
</style>
<circle class="st0" cx="133.62" cy="163.38" r="128.38"/>
<text transform="matrix(1 0 0 1 1228.7354 170.8438)"><tspan x="0" y="0" style="font-family:'MyriadPro-Regular'; font-size:12px;">Hunter Green #386641</tspan><tspan x="0" y="14.4" style="font-family:'MyriadPro-Regular'; font-size:12px;">Asparagus #6A994E</tspan><tspan x="0" y="28.8" style="font-family:'MyriadPro-Regular'; font-size:12px;">Yellow Green #A7C957</tspan><tspan x="0" y="43.2" style="font-family:'MyriadPro-Regular'; font-size:12px;">Parchment #F2E8CF</tspan><tspan x="0" y="57.6" style="font-family:'MyriadPro-Regular'; font-size:12px;">Rosy Brown #D7988C</tspan><tspan x="0" y="72" style="font-family:'MyriadPro-Regular'; font-size:12px;">Indian Red #CA706B</tspan><tspan x="0" y="86.4" style="font-family:'MyriadPro-Regular'; font-size:12px;">Bittersweet Shimmer #BC4749</tspan></text>
<path class="st1" d="M243.78,99.19L22.03,98.66c0,0,1.59-2.65,2.65-4.24l4.24-6.37c0.48-0.7,2.12-2.65,2.12-2.65l203.71-0.53
	c0,0,0.29,0.43,0.76,1.15l6.12,9.18C242.78,96.9,243.81,99.2,243.78,99.19z"/>
<path class="st1" d="M22.03,228.1l221.75,0.53c0,0-1.59,2.65-2.65,4.24l-4.24,6.37c-0.48,0.7-2.12,2.65-2.12,2.65l-203.71,0.53
	c0,0-0.29-0.43-0.76-1.15l-6.12-9.18C23.03,230.4,21.99,228.09,22.03,228.1z"/>
<g>
	<line class="st2" x1="132.34" y1="42.43" x2="132.34" y2="78.5"/>
	<line class="st2" x1="119.59" y1="47.71" x2="145.1" y2="73.22"/>
	<line class="st2" x1="115.58" y1="60.46" x2="151.66" y2="60.46"/>
	<line class="st2" x1="119.59" y1="73.22" x2="145.1" y2="47.71"/>
	<polyline class="st3" points="128.06,42.43 132.34,49.24 136.49,42.75 	"/>
	<polyline class="st3" points="121.78,55.96 129.63,57.75 127.97,50.23 	"/>
	<polyline class="st3" points="116.04,64.53 122.86,60.25 116.36,56.1 	"/>
	<polyline class="st3" points="127.67,71.44 129.46,63.59 121.93,65.26 	"/>
	<polyline class="st3" points="136.88,78.46 132.59,71.64 128.45,78.14 	"/>
	<polyline class="st3" points="143.15,65.56 135.3,63.77 136.96,71.29 	"/>
	<polyline class="st3" points="151.44,56.35 144.62,60.64 151.12,64.78 	"/>
	<polyline class="st3" points="137.26,49.44 135.48,57.29 143,55.63 	"/>
</g>
<g>
	<line class="st4" x1="92.17" y1="50.55" x2="92.17" y2="75.11"/>
	<line class="st4" x1="83.48" y1="54.14" x2="100.85" y2="71.52"/>
	<line class="st4" x1="80.75" y1="62.83" x2="105.32" y2="62.83"/>
	<line class="st4" x1="83.48" y1="71.52" x2="100.85" y2="54.14"/>
	<polyline class="st5" points="89.25,50.55 92.17,55.19 94.99,50.76 	"/>
	<polyline class="st5" points="84.97,59.77 90.32,60.98 89.19,55.86 	"/>
	<polyline class="st5" points="81.07,65.6 85.71,62.68 81.28,59.86 	"/>
	<polyline class="st5" points="88.98,70.31 90.2,64.96 85.08,66.09 	"/>
	<polyline class="st5" points="95.25,75.08 92.33,70.44 89.51,74.86 	"/>
	<polyline class="st5" points="99.53,66.3 94.18,65.08 95.31,70.2 	"/>
	<polyline class="st5" points="105.17,60.03 100.53,62.95 104.95,65.77 	"/>
	<polyline class="st5" points="95.52,55.32 94.3,60.67 99.42,59.54 	"/>
</g>
<g>
	<line class="st6" x1="202.64" y1="64.34" x2="202.64" y2="77.77"/>
	<line class="st6" x1="197.89" y1="66.31" x2="207.39" y2="75.8"/>
	<line class="st6" x1="196.4" y1="71.05" x2="209.83" y2="71.05"/>
	<line class="st6" x1="197.89" y1="75.8" x2="207.39" y2="66.31"/>
	<polyline class="st7" points="201.04,64.34 202.64,66.88 204.18,64.46 	"/>
	<polyline class="st7" points="198.71,69.38 201.63,70.04 201.01,67.24 	"/>
	<polyline class="st7" points="196.57,72.57 199.11,70.97 196.69,69.43 	"/>
	<polyline class="st7" points="200.9,75.14 201.57,72.22 198.77,72.84 	"/>
	<polyline class="st7" points="204.33,77.75 202.73,75.21 201.19,77.63 	"/>
	<polyline class="st7" points="206.66,72.95 203.74,72.28 204.36,75.08 	"/>
	<polyline class="st7" points="209.75,69.52 207.21,71.12 209.63,72.66 	"/>
	<polyline class="st7" points="204.47,66.95 203.81,69.87 206.6,69.25 	"/>
</g>
<g>
	<line class="st6" x1="64.18" y1="64.34" x2="64.18" y2="77.77"/>
	<line class="st6" x1="59.43" y1="66.31" x2="68.92" y2="75.8"/>
	<line class="st6" x1="57.94" y1="71.05" x2="71.37" y2="71.05"/>
	<line class="st6" x1="59.43" y1="75.8" x2="68.92" y2="66.31"/>
	<polyline class="st7" points="62.58,64.34 64.18,66.88 65.72,64.46 	"/>
	<polyline class="st7" points="60.25,69.38 63.17,70.04 62.55,67.24 	"/>
	<polyline class="st7" points="58.11,72.57 60.65,70.97 58.23,69.43 	"/>
	<polyline class="st7" points="62.44,75.14 63.1,72.22 60.3,72.84 	"/>
	<polyline class="st7" points="65.87,77.75 64.27,75.21 62.73,77.63 	"/>
	<polyline class="st7" points="68.2,72.95 65.28,72.28 65.9,75.08 	"/>
	<polyline class="st7" points="71.28,69.52 68.75,71.12 71.17,72.66 	"/>
	<polyline class="st7" points="66.01,66.95 65.34,69.87 68.14,69.25 	"/>
</g>
<g>
	<line class="st4" x1="172.27" y1="50.55" x2="172.27" y2="75.11"/>
	<line class="st4" x1="163.59" y1="54.14" x2="180.96" y2="71.52"/>
	<line class="st4" x1="160.86" y1="62.83" x2="185.42" y2="62.83"/>
	<line class="st4" x1="163.59" y1="71.52" x2="180.96" y2="54.14"/>
	<polyline class="st5" points="169.35,50.55 172.27,55.19 175.09,50.76 	"/>
	<polyline class="st5" points="165.08,59.77 170.43,60.98 169.29,55.86 	"/>
	<polyline class="st5" points="161.17,65.6 165.81,62.68 161.39,59.86 	"/>
	<polyline class="st5" points="169.09,70.31 170.31,64.96 165.18,66.09 	"/>
	<polyline class="st5" points="175.36,75.08 172.44,70.44 169.62,74.86 	"/>
	<polyline class="st5" points="179.63,66.3 174.28,65.08 175.42,70.2 	"/>
	<polyline class="st5" points="185.27,60.03 180.63,62.95 185.06,65.77 	"/>
	<polyline class="st5" points="175.62,55.32 174.41,60.67 179.53,59.54 	"/>
</g>
<g>
	<line class="st2" x1="133.94" y1="283.81" x2="133.94" y2="247.73"/>
	<line class="st2" x1="121.18" y1="278.52" x2="146.69" y2="253.01"/>
	<line class="st2" x1="117.17" y1="265.77" x2="153.25" y2="265.77"/>
	<line class="st2" x1="121.18" y1="253.01" x2="146.69" y2="278.52"/>
	<polyline class="st3" points="129.65,283.81 133.94,276.99 138.08,283.49 	"/>
	<polyline class="st3" points="123.37,270.27 131.23,268.48 129.56,276.01 	"/>
	<polyline class="st3" points="117.64,261.7 124.45,265.99 117.95,270.13 	"/>
	<polyline class="st3" points="129.26,254.79 131.05,262.64 123.53,260.98 	"/>
	<polyline class="st3" points="138.47,247.78 134.18,254.59 130.04,248.1 	"/>
	<polyline class="st3" points="144.74,260.68 136.89,262.46 138.55,254.94 	"/>
	<polyline class="st3" points="153.03,269.88 146.21,265.6 152.71,261.45 	"/>
	<polyline class="st3" points="138.85,276.79 137.07,268.94 144.59,270.61 	"/>
</g>
<g>
	<line class="st4" x1="93.76" y1="275.69" x2="93.76" y2="251.12"/>
	<line class="st4" x1="85.07" y1="272.09" x2="102.44" y2="254.72"/>
	<line class="st4" x1="82.34" y1="263.4" x2="106.91" y2="263.4"/>
	<line class="st4" x1="85.07" y1="254.72" x2="102.44" y2="272.09"/>
	<polyline class="st5" points="90.84,275.69 93.76,271.05 96.58,275.47 	"/>
	<polyline class="st5" points="86.57,266.47 91.91,265.25 90.78,270.37 	"/>
	<polyline class="st5" points="82.66,260.63 87.3,263.55 82.88,266.37 	"/>
	<polyline class="st5" points="90.58,255.93 91.79,261.27 86.67,260.14 	"/>
	<polyline class="st5" points="96.85,251.15 93.93,255.79 91.1,251.37 	"/>
	<polyline class="st5" points="101.12,259.94 95.77,261.15 96.9,256.03 	"/>
	<polyline class="st5" points="106.76,266.21 102.12,263.29 106.54,260.46 	"/>
	<polyline class="st5" points="97.11,270.91 95.89,265.56 101.01,266.7 	"/>
</g>
<g>
	<line class="st6" x1="204.23" y1="261.89" x2="204.23" y2="248.47"/>
	<line class="st6" x1="199.48" y1="259.93" x2="208.98" y2="250.43"/>
	<line class="st6" x1="197.99" y1="255.18" x2="211.42" y2="255.18"/>
	<line class="st6" x1="199.48" y1="250.43" x2="208.98" y2="259.93"/>
	<polyline class="st7" points="202.64,261.89 204.23,259.36 205.77,261.77 	"/>
	<polyline class="st7" points="200.3,256.86 203.22,256.19 202.6,258.99 	"/>
	<polyline class="st7" points="198.17,253.67 200.7,255.26 198.28,256.8 	"/>
	<polyline class="st7" points="202.49,251.09 203.16,254.02 200.36,253.4 	"/>
	<polyline class="st7" points="205.92,248.48 204.32,251.02 202.78,248.6 	"/>
	<polyline class="st7" points="208.25,253.29 205.33,253.95 205.95,251.15 	"/>
	<polyline class="st7" points="211.34,256.71 208.8,255.12 211.22,253.57 	"/>
	<polyline class="st7" points="206.06,259.28 205.4,256.36 208.2,256.98 	"/>
</g>
<g>
	<line class="st6" x1="65.77" y1="261.89" x2="65.77" y2="248.47"/>
	<line class="st6" x1="61.02" y1="259.93" x2="70.52" y2="250.43"/>
	<line class="st6" x1="59.53" y1="255.18" x2="72.96" y2="255.18"/>
	<line class="st6" x1="61.02" y1="250.43" x2="70.52" y2="259.93"/>
	<polyline class="st7" points="64.17,261.89 65.77,259.36 67.31,261.77 	"/>
	<polyline class="st7" points="61.84,256.86 64.76,256.19 64.14,258.99 	"/>
	<polyline class="st7" points="59.7,253.67 62.24,255.26 59.82,256.8 	"/>
	<polyline class="st7" points="64.03,251.09 64.7,254.02 61.9,253.4 	"/>
	<polyline class="st7" points="67.46,248.48 65.86,251.02 64.32,248.6 	"/>
	<polyline class="st7" points="69.79,253.29 66.87,253.95 67.49,251.15 	"/>
	<polyline class="st7" points="72.88,256.71 70.34,255.12 72.76,253.57 	"/>
	<polyline class="st7" points="67.6,259.28 66.94,256.36 69.73,256.98 	"/>
</g>
<g>
	<line class="st4" x1="173.86" y1="275.69" x2="173.86" y2="251.12"/>
	<line class="st4" x1="165.18" y1="272.09" x2="182.55" y2="254.72"/>
	<line class="st4" x1="162.45" y1="263.4" x2="187.01" y2="263.4"/>
	<line class="st4" x1="165.18" y1="254.72" x2="182.55" y2="272.09"/>
	<polyline class="st5" points="170.94,275.69 173.86,271.05 176.68,275.47 	"/>
	<polyline class="st5" points="166.67,266.47 172.02,265.25 170.89,270.37 	"/>
	<polyline class="st5" points="162.77,260.63 167.41,263.55 162.98,266.37 	"/>
	<polyline class="st5" points="170.68,255.93 171.9,261.27 166.78,260.14 	"/>
	<polyline class="st5" points="176.95,251.15 174.03,255.79 171.21,251.37 	"/>
	<polyline class="st5" points="181.22,259.94 175.88,261.15 177.01,256.03 	"/>
	<polyline class="st5" points="186.87,266.21 182.22,263.29 186.65,260.46 	"/>
	<polyline class="st5" points="177.21,270.91 176,265.56 181.12,266.7 	"/>
</g>
<rect x="-415.5" y="-1.5" class="st8" width="71" height="71"/>
<rect x="-314" y="-1" class="st0" width="70" height="71"/>
<rect x="-215" y="-1" class="st9" width="65" height="82"/>
<rect x="-107" y="6" class="st1" width="89" height="89"/>
<line class="st10" x1="26.8" y1="92.29" x2="240.07" y2="92.29"/>
<line class="st10" x1="26.8" y1="235.27" x2="240.07" y2="235.27"/>
<path class="st9" d="M256.78,199.72c-0.58,1.78-245.36,1.33-245.36,1.33c-1.2,0-4.84-17.02-5.84-25.99c-1.06-9.55,0-20.16,0-20.16
	c3.71-36.07,7.99-29.97,5.84-30.24h244.56c0,0,3.18,9.55,4.24,16.98C262.51,157.6,263.41,179.3,256.78,199.72z"/>
<circle class="st8" cx="27.8" cy="162.32" r="4.77"/>
<circle class="st8" cx="61.55" cy="162.32" r="4.77"/>
<circle class="st8" cx="96.3" cy="162.32" r="4.77"/>
<circle class="st8" cx="131.05" cy="162.32" r="4.77"/>
<circle class="st8" cx="165.79" cy="162.32" r="4.77"/>
<circle class="st8" cx="200.54" cy="162.32" r="4.77"/>
<circle class="st8" cx="235.29" cy="162.32" r="4.77"/>
<path class="st8" d="M116.93,36.08c0,0-1.36-27.51-0.88-27.61c14.96-3.07,32.01-0.43,31.98,0c-0.03,0.43,0,27.61,0,27.61"/>
<line class="st11" x1="120.45" y1="8" x2="120.45" y2="36.08"/>
<line class="st11" x1="125.71" y1="7.2" x2="125.71" y2="36.08"/>
<line class="st11" x1="130.65" y1="7" x2="130.65" y2="36.08"/>
<line class="st11" x1="135.49" y1="7.1" x2="135.49" y2="36.08"/>
<line class="st11" x1="143.9" y1="8" x2="144.81" y2="36.08"/>
<line class="st11" x1="139.71" y1="7.28" x2="140.01" y2="36.08"/>
</svg>
