<?xml version="1.0" encoding="utf-8"?>
<!-- Generator: Adobe Illustrator 28.0.0, SVG Export Plug-In . SVG Version: 6.00 Build 0)  -->
<svg version="1.1" id="Layer_1" xmlns="http://www.w3.org/2000/svg" xmlns:xlink="http://www.w3.org/1999/xlink" x="0px" y="0px"
	 viewBox="0 0 600 700" style="enable-background:new 0 0 600 700;" xml:space="preserve">
<style type="text/css">
	.st0{fill:none;stroke:#6A994E;stroke-width:2;stroke-miterlimit:10;}
	.st1{fill:#BC4749;}
	.st2{fill:#D7988C;}
	.st3{fill:none;stroke:#F2E8CF;stroke-width:0.75;stroke-miterlimit:10;}
	.st4{fill:none;stroke:#F2E8CF;stroke-width:0.5;stroke-miterlimit:10;}
	.st5{fill:none;stroke:#F2E8CF;stroke-width:0.25;stroke-miterlimit:10;}
	.st6{fill:none;stroke:#CA706B;stroke-width:2;stroke-miterlimit:10;}
	.st7{fill:#A7C957;}
	.st8{fill:none;stroke:#E5DAC3;stroke-miterlimit:10;}
	.st9{fill:#F2E8CF;}
	.st10{fill:#6A994E;}
</style>
<path class="st0" d="M285.55,36.48c0.85-7.08,0.85-30.06,10.05-32.36c12.99-3.25,14.02,32.36,14.02,32.36"/>
<circle class="st1" cx="300.13" cy="393.67" r="295.12"/>
<path class="st2" d="M553.37,246.11l-509.76-1.22c0,0,3.66-6.09,6.09-9.75l9.75-14.64c1.1-1.61,4.87-6.09,4.87-6.09l468.29-1.22
	c0,0,0.67,0.99,1.75,2.64l14.07,21.1C551.07,240.84,553.43,246.13,553.37,246.11z"/>
<path class="st2" d="M43.61,542.45l509.76,1.22c0,0-3.66,6.09-6.09,9.75l-9.75,14.64c-1.1,1.61-4.87,6.09-4.87,6.09l-468.29,1.22
	c0,0-0.67-0.99-1.75-2.64l-14.07-21.1C45.91,547.73,43.52,542.42,43.61,542.45z"/>
<g>
	<line class="st3" x1="297.19" y1="115.63" x2="297.19" y2="198.55"/>
	<line class="st3" x1="267.88" y1="127.77" x2="326.52" y2="186.41"/>
	<line class="st3" x1="258.66" y1="157.08" x2="341.6" y2="157.08"/>
	<line class="st3" x1="267.88" y1="186.41" x2="326.52" y2="127.77"/>
	<polyline class="st3" points="287.35,115.63 297.19,131.28 306.73,116.36 	"/>
	<polyline class="st3" points="272.91,146.73 290.96,150.85 287.14,133.56 	"/>
	<polyline class="st3" points="259.72,166.43 275.4,156.59 260.45,147.05 	"/>
	<polyline class="st3" points="286.45,182.32 290.57,164.27 273.26,168.11 	"/>
	<polyline class="st3" points="307.62,198.45 297.76,182.78 288.25,197.72 	"/>
	<polyline class="st3" points="322.04,168.8 303.99,164.68 307.81,181.97 	"/>
	<polyline class="st3" points="341.1,147.63 325.42,157.49 340.36,167.01 	"/>
	<polyline class="st3" points="308.5,131.74 304.41,149.79 321.69,145.97 	"/>
</g>
<g>
	<line class="st4" x1="204.85" y1="134.29" x2="204.85" y2="190.75"/>
	<line class="st4" x1="184.87" y1="142.55" x2="224.8" y2="182.5"/>
	<line class="st4" x1="178.59" y1="162.52" x2="235.07" y2="162.52"/>
	<line class="st4" x1="184.87" y1="182.5" x2="224.8" y2="142.55"/>
	<polyline class="st4" points="198.13,134.29 204.85,144.96 211.33,134.78 	"/>
	<polyline class="st4" points="188.29,155.49 200.59,158.27 198,146.5 	"/>
	<polyline class="st4" points="179.33,168.89 190,162.18 179.81,155.7 	"/>
	<polyline class="st4" points="197.51,179.72 200.32,167.42 188.55,170.02 	"/>
	<polyline class="st4" points="211.93,190.68 205.21,180.02 198.73,190.18 	"/>
	<polyline class="st4" points="221.76,170.5 209.47,167.7 212.06,179.47 	"/>
	<polyline class="st4" points="234.73,156.09 224.06,162.8 234.22,169.28 	"/>
	<polyline class="st4" points="212.55,145.26 209.74,157.56 221.51,154.96 	"/>
</g>
<g>
	<line class="st5" x1="458.79" y1="165.99" x2="458.79" y2="196.87"/>
	<line class="st5" x1="447.87" y1="170.52" x2="469.71" y2="192.34"/>
	<line class="st5" x1="444.45" y1="181.42" x2="475.32" y2="181.42"/>
	<line class="st5" x1="447.87" y1="192.34" x2="469.71" y2="170.52"/>
	<polyline class="st5" points="455.12,165.99 458.79,171.83 462.33,166.27 	"/>
	<polyline class="st5" points="449.76,177.58 456.47,179.1 455.05,172.66 	"/>
	<polyline class="st5" points="444.84,184.91 450.68,181.24 445.12,177.7 	"/>
	<polyline class="st5" points="454.79,190.82 456.33,184.11 449.9,185.53 	"/>
	<polyline class="st5" points="462.68,196.82 459,190.98 455.46,196.55 	"/>
	<polyline class="st5" points="468.03,185.79 461.32,184.25 462.75,190.68 	"/>
	<polyline class="st5" points="475.14,177.9 469.3,181.58 474.86,185.12 	"/>
	<polyline class="st5" points="463,171.99 461.48,178.71 467.9,177.28 	"/>
</g>
<g>
	<line class="st5" x1="140.5" y1="165.99" x2="140.5" y2="196.87"/>
	<line class="st5" x1="129.58" y1="170.52" x2="151.4" y2="192.34"/>
	<line class="st5" x1="126.16" y1="181.42" x2="157.03" y2="181.42"/>
	<line class="st5" x1="129.58" y1="192.34" x2="151.4" y2="170.52"/>
	<polyline class="st5" points="136.82,165.99 140.5,171.83 144.04,166.27 	"/>
	<polyline class="st5" points="131.47,177.58 138.18,179.1 136.76,172.66 	"/>
	<polyline class="st5" points="126.55,184.91 132.39,181.24 126.82,177.7 	"/>
	<polyline class="st5" points="136.5,190.82 138.02,184.11 131.58,185.53 	"/>
	<polyline class="st5" points="144.39,196.82 140.71,190.98 137.17,196.55 	"/>
	<polyline class="st5" points="149.74,185.79 143.03,184.25 144.46,190.68 	"/>
	<polyline class="st5" points="156.82,177.9 151.01,181.58 156.57,185.12 	"/>
	<polyline class="st5" points="144.71,171.99 143.17,178.71 149.61,177.28 	"/>
</g>
<g>
	<line class="st4" x1="388.98" y1="134.29" x2="388.98" y2="190.75"/>
	<line class="st4" x1="369.03" y1="142.55" x2="408.96" y2="182.5"/>
	<line class="st4" x1="362.75" y1="162.52" x2="419.21" y2="162.52"/>
	<line class="st4" x1="369.03" y1="182.5" x2="408.96" y2="142.55"/>
	<polyline class="st4" points="382.27,134.29 388.98,144.96 395.46,134.78 	"/>
	<polyline class="st4" points="372.45,155.49 384.75,158.27 382.13,146.5 	"/>
	<polyline class="st4" points="363.46,168.89 374.13,162.18 363.97,155.7 	"/>
	<polyline class="st4" points="381.67,179.72 384.47,167.42 372.68,170.02 	"/>
	<polyline class="st4" points="396.08,190.68 389.37,180.02 382.89,190.18 	"/>
	<polyline class="st4" points="405.9,170.5 393.6,167.7 396.22,179.47 	"/>
	<polyline class="st4" points="418.86,156.09 408.2,162.8 418.38,169.28 	"/>
	<polyline class="st4" points="396.68,145.26 393.9,157.56 405.67,154.96 	"/>
</g>
<g>
	<line class="st3" x1="300.87" y1="670.51" x2="300.87" y2="587.57"/>
	<line class="st3" x1="271.53" y1="658.35" x2="330.18" y2="599.71"/>
	<line class="st3" x1="262.32" y1="629.04" x2="345.26" y2="629.04"/>
	<line class="st3" x1="271.53" y1="599.71" x2="330.18" y2="658.35"/>
	<polyline class="st3" points="291,670.51 300.87,654.83 310.38,669.78 	"/>
	<polyline class="st3" points="276.57,639.39 294.64,635.27 290.8,652.58 	"/>
	<polyline class="st3" points="263.4,619.69 279.05,629.55 264.11,639.06 	"/>
	<polyline class="st3" points="290.11,603.8 294.22,621.85 276.94,618.03 	"/>
	<polyline class="st3" points="311.28,587.69 301.42,603.34 291.9,588.42 	"/>
	<polyline class="st3" points="325.69,617.34 307.65,621.43 311.46,604.15 	"/>
	<polyline class="st3" points="344.75,638.49 329.07,628.65 344.01,619.11 	"/>
	<polyline class="st3" points="312.15,654.37 308.06,636.33 325.35,640.17 	"/>
</g>
<g>
	<line class="st4" x1="208.5" y1="651.85" x2="208.5" y2="595.36"/>
	<line class="st4" x1="188.52" y1="643.57" x2="228.45" y2="603.64"/>
	<line class="st4" x1="182.25" y1="623.59" x2="238.73" y2="623.59"/>
	<line class="st4" x1="188.52" y1="603.64" x2="228.45" y2="643.57"/>
	<polyline class="st4" points="201.79,651.85 208.5,641.18 214.98,651.34 	"/>
	<polyline class="st4" points="191.97,630.65 204.25,627.85 201.65,639.62 	"/>
	<polyline class="st4" points="182.98,617.23 193.65,623.94 183.49,630.42 	"/>
	<polyline class="st4" points="201.19,606.42 203.97,618.7 192.2,616.1 	"/>
	<polyline class="st4" points="215.6,595.43 208.89,606.1 202.39,595.94 	"/>
	<polyline class="st4" points="225.42,615.64 213.12,618.42 215.72,606.65 	"/>
	<polyline class="st4" points="238.38,630.05 227.72,623.34 237.88,616.83 	"/>
	<polyline class="st4" points="216.2,640.86 213.4,628.56 225.17,631.18 	"/>
</g>
<g>
	<line class="st5" x1="462.45" y1="620.12" x2="462.45" y2="589.27"/>
	<line class="st5" x1="451.53" y1="615.62" x2="473.37" y2="593.78"/>
	<line class="st5" x1="448.1" y1="604.7" x2="478.98" y2="604.7"/>
	<line class="st5" x1="451.53" y1="593.78" x2="473.37" y2="615.62"/>
	<polyline class="st5" points="458.79,620.12 462.45,614.31 465.99,619.85 	"/>
	<polyline class="st5" points="453.41,608.56 460.13,607.02 458.7,613.46 	"/>
	<polyline class="st5" points="448.52,601.23 454.33,604.88 448.77,608.42 	"/>
	<polyline class="st5" points="458.45,595.29 459.99,602.03 453.55,600.61 	"/>
	<polyline class="st5" points="466.33,589.29 462.66,595.13 459.12,589.57 	"/>
	<polyline class="st5" points="471.69,600.35 464.98,601.87 466.4,595.43 	"/>
	<polyline class="st5" points="478.79,608.21 472.95,604.56 478.52,601 	"/>
	<polyline class="st5" points="466.66,614.12 465.14,607.41 471.57,608.83 	"/>
</g>
<g>
	<line class="st5" x1="144.16" y1="620.12" x2="144.16" y2="589.27"/>
	<line class="st5" x1="133.24" y1="615.62" x2="155.08" y2="593.78"/>
	<line class="st5" x1="129.81" y1="604.7" x2="160.69" y2="604.7"/>
	<line class="st5" x1="133.24" y1="593.78" x2="155.08" y2="615.62"/>
	<polyline class="st5" points="140.48,620.12 144.16,614.31 147.7,619.85 	"/>
	<polyline class="st5" points="135.12,608.56 141.84,607.02 140.41,613.46 	"/>
	<polyline class="st5" points="130.2,601.23 136.04,604.88 130.48,608.42 	"/>
	<polyline class="st5" points="140.16,595.29 141.7,602.03 135.26,600.61 	"/>
	<polyline class="st5" points="148.04,589.29 144.36,595.13 140.82,589.57 	"/>
	<polyline class="st5" points="153.4,600.35 146.69,601.87 148.11,595.43 	"/>
	<polyline class="st5" points="160.5,608.21 154.66,604.56 160.23,601 	"/>
	<polyline class="st5" points="148.36,614.12 146.85,607.41 153.26,608.83 	"/>
</g>
<g>
	<line class="st4" x1="392.63" y1="651.85" x2="392.63" y2="595.36"/>
	<line class="st4" x1="372.68" y1="643.57" x2="412.61" y2="603.64"/>
	<line class="st4" x1="366.4" y1="623.59" x2="422.86" y2="623.59"/>
	<line class="st4" x1="372.68" y1="603.64" x2="412.61" y2="643.57"/>
	<polyline class="st4" points="385.92,651.85 392.63,641.18 399.12,651.34 	"/>
	<polyline class="st4" points="376.11,630.65 388.4,627.85 385.81,639.62 	"/>
	<polyline class="st4" points="367.14,617.23 377.81,623.94 367.62,630.42 	"/>
	<polyline class="st4" points="385.32,606.42 388.13,618.7 376.36,616.1 	"/>
	<polyline class="st4" points="399.74,595.43 393.02,606.1 386.54,595.94 	"/>
	<polyline class="st4" points="409.55,615.64 397.28,618.42 399.88,606.65 	"/>
	<polyline class="st4" points="422.54,630.05 411.85,623.34 422.04,616.83 	"/>
	<polyline class="st4" points="400.34,640.86 397.55,628.56 409.32,631.18 	"/>
</g>
<line class="st6" x1="54.57" y1="230.25" x2="544.84" y2="230.25"/>
<line class="st6" x1="54.57" y1="558.93" x2="544.84" y2="558.93"/>
<path class="st7" d="M583.25,477.21c-1.33,4.09-564.03,3.06-564.03,3.06c-2.76,0-11.13-39.13-13.42-59.75
	c-2.44-21.95,0-46.34,0-46.34c8.53-82.92,18.37-68.89,13.42-69.52h562.19c0,0,7.31,21.95,9.75,39.03
	C596.42,380.38,598.49,430.26,583.25,477.21z"/>
<path class="st7" d="M261.76,101.03c0,0-3.13-63.24-2.02-63.47c34.39-7.06,73.58-0.99,73.52,0c-0.07,0.99,0,63.47,0,63.47"/>
<line class="st8" x1="269.86" y1="36.48" x2="269.86" y2="101.03"/>
<line class="st8" x1="281.95" y1="34.64" x2="281.95" y2="101.03"/>
<line class="st8" x1="293.3" y1="34.18" x2="293.3" y2="101.03"/>
<line class="st8" x1="304.43" y1="34.41" x2="304.43" y2="101.03"/>
<line class="st8" x1="323.76" y1="36.48" x2="325.85" y2="101.03"/>
<line class="st8" x1="314.13" y1="34.83" x2="314.82" y2="101.03"/>
<g>
	<circle class="st9" cx="66.87" cy="393.76" r="38.58"/>
	<circle class="st10" cx="66.87" cy="393.76" r="19.54"/>
</g>
<g>
	<circle class="st9" cx="184.11" cy="393.76" r="38.58"/>
	<circle class="st10" cx="184.11" cy="393.76" r="19.54"/>
</g>
<g>
	<circle class="st9" cx="301.35" cy="393.76" r="38.58"/>
	<circle class="st10" cx="301.35" cy="393.76" r="19.54"/>
</g>
<g>
	<circle class="st9" cx="418.59" cy="393.76" r="38.58"/>
	<circle class="st10" cx="418.59" cy="393.76" r="19.54"/>
</g>
<g>
	<circle class="st9" cx="535.82" cy="393.76" r="38.58"/>
	<circle class="st10" cx="535.82" cy="393.76" r="19.54"/>
</g>
</svg>
