<?xml version="1.0" encoding="utf-8"?>
<!-- Generator: Adobe Illustrator 28.0.0, SVG Export Plug-In . SVG Version: 6.00 Build 0)  -->
<svg version="1.1" id="Layer_1" xmlns="http://www.w3.org/2000/svg" xmlns:xlink="http://www.w3.org/1999/xlink" x="0px" y="0px"
	 viewBox="0 0 167 329" style="enable-background:new 0 0 167 329;" xml:space="preserve">
<style type="text/css">
	.st0{font-family:'MyriadPro-Regular';}
	.st1{font-size:12px;}
	.st2{fill:#CA706B;}
	.st3{fill:#6A994E;}
	.st4{fill:#386641;}
	.st5{fill:#BC4749;}
	.st6{fill:#D7988C;}
	.st7{fill:#A7C957;}
	.st8{fill:none;stroke:#386641;stroke-miterlimit:10;}
	.st9{fill:none;stroke:#386641;stroke-width:0.5;stroke-miterlimit:10;}
</style>
<text transform="matrix(1 0 0 1 -48.1172 -102.2012)"><tspan x="0" y="0" class="st0 st1">Hunter Green #386641</tspan><tspan x="0" y="14.4" class="st0 st1">Asparagus #6A994E</tspan><tspan x="0" y="28.8" class="st0 st1">Yellow Green #A7C957</tspan><tspan x="0" y="43.2" class="st0 st1">Parchment #F2E8CF</tspan><tspan x="0" y="57.6" class="st0 st1">Rosy Brown #D7988C</tspan><tspan x="0" y="72" class="st0 st1">Indian Red #</tspan><tspan x="61.83" y="72" class="st2 st0 st1">CA706B</tspan><tspan x="0" y="86.4" class="st0 st1">Bittersweet Shimmer #BC4749</tspan></text>
<rect x="-222" y="10" class="st2" width="51" height="72"/>
<rect x="-227" y="-47" class="st3" width="68" height="43"/>
<rect x="-255" y="-102" class="st4" width="66" height="37"/>
<rect x="-294" y="-43" class="st5" width="43" height="59"/>
<rect x="-292" y="39" class="st6" width="44" height="56"/>
<rect x="-139" y="58" class="st2" width="72" height="44"/>
<rect x="-135" y="-21" class="st7" width="39" height="67"/>
<g>
	<path class="st3" d="M30.74,137.87l31.41,84.07c0,0,3.58,7.43,2.23,15.5c-1.35,8.07-18.84,18.84-18.84,18.84
		s-25.57,16.15-29.6,22.87s-8.07,10.76-5.38,22.87s6.73,14.8,13.46,18.84c6.73,4.04,18.84,5.38,32.29,0s67.28-25.57,67.28-25.57
		s20.18-5.38,30.95-20.18s6.73-32.29,6.73-32.29l-9.42-60.55l-5.38-51.13l-2.69-20.18c0,0,4.04-1.35,4.04-5.38
		c0-4.04,1.35-22.92-2.69-34.34c-4.04-11.41-8.07-22.18-9.42-23.52c-1.35-1.35-4.04-2.69-5.38-4.04c-1.35-1.35,1.35-29.6,0-33.64
		S126.27,6,123.58,6s-8.07,0-9.42,0s-2.69,1.35-2.69,4.04s6.06,35.66,6.06,35.66S17.96,68.57,12.57,71.26
		C7.19,73.95,4.5,75.3,4.5,77.99s1.35,20.18,5.38,32.29s8.07,22.87,10.76,25.57C23.34,138.54,28.72,138.54,30.74,137.87z"/>
	<path class="st7" d="M30.74,137.87l113.03-26.91l14.76,113.42c0,0-25.92,5.44-32.94,21.96c-10.37,24.4,5.42,46.28,5.42,46.28
		l-74.7,28.25c0,0,9.5-42.81-25.57-54.59c-0.35-0.12,24.94-16.56,28.63-20.84s9.18-6.72,2.77-23.49S30.74,137.87,30.74,137.87z"/>
	<line class="st8" x1="12.57" y1="71.26" x2="30.74" y2="137.87"/>
	<line class="st8" x1="24.8" y1="67.76" x2="42.44" y2="135.08"/>
	<line class="st8" x1="38.6" y1="64.31" x2="54.59" y2="132.19"/>
	<line class="st8" x1="50.85" y1="61.34" x2="67.82" y2="129.04"/>
	<line class="st8" x1="62.79" y1="58.48" x2="79.46" y2="126.27"/>
	<line class="st8" x1="76.6" y1="55.22" x2="93.37" y2="122.95"/>
	<line class="st8" x1="89.64" y1="52.16" x2="106.28" y2="119.88"/>
	<line class="st8" x1="101.14" y1="49.48" x2="117.41" y2="117.23"/>
	<line class="st8" x1="112.79" y1="46.79" x2="131.1" y2="113.97"/>
	<line class="st8" x1="123.41" y1="45.29" x2="143.77" y2="110.95"/>
	<line class="st9" x1="117.53" y1="45.69" x2="130.31" y2="43.68"/>
</g>
</svg>
