<?xml version="1.0" encoding="utf-8"?>
<!-- Generator: Adobe Illustrator 28.0.0, SVG Export Plug-In . SVG Version: 6.00 Build 0)  -->
<svg version="1.1" id="Layer_1" xmlns="http://www.w3.org/2000/svg" xmlns:xlink="http://www.w3.org/1999/xlink" x="0px" y="0px"
	 viewBox="0 0 1663 256" style="enable-background:new 0 0 1663 256;" xml:space="preserve">
<style type="text/css">
	.st0{font-family:'MyriadPro-Regular';}
	.st1{font-size:12px;}
	.st2{fill:#CA706B;}
	.st3{fill:#6A994E;}
	.st4{fill:#386641;}
	.st5{fill:#BC4749;}
	.st6{fill:#D7988C;}
	.st7{fill:#A7C957;}
	.st8{fill:none;stroke:#386641;stroke-miterlimit:10;}
	.st9{fill:none;stroke:#386641;stroke-width:0.5;stroke-miterlimit:10;}
</style>
<text transform="matrix(1 0 0 1 -48.1172 -102.2012)"><tspan x="0" y="0" class="st0 st1">Hunter Green #386641</tspan><tspan x="0" y="14.4" class="st0 st1">Asparagus #6A994E</tspan><tspan x="0" y="28.8" class="st0 st1">Yellow Green #A7C957</tspan><tspan x="0" y="43.2" class="st0 st1">Parchment #F2E8CF</tspan><tspan x="0" y="57.6" class="st0 st1">Rosy Brown #D7988C</tspan><tspan x="0" y="72" class="st0 st1">Indian Red #</tspan><tspan x="61.83" y="72" class="st2 st0 st1">CA706B</tspan><tspan x="0" y="86.4" class="st0 st1">Bittersweet Shimmer #BC4749</tspan></text>
<rect x="-222" y="10" class="st2" width="51" height="72"/>
<rect x="-227" y="-47" class="st3" width="68" height="43"/>
<rect x="-255" y="-102" class="st4" width="66" height="37"/>
<rect x="-294" y="-43" class="st5" width="43" height="59"/>
<rect x="-292" y="39" class="st6" width="44" height="56"/>
<rect x="-139" y="58" class="st2" width="72" height="44"/>
<rect x="-135" y="-21" class="st7" width="39" height="67"/>
<g>
	<path class="st3" d="M24.61,107.05l24.07,64.42c0,0,2.74,5.69,1.71,11.88s-14.44,14.44-14.44,14.44s-19.59,12.37-22.68,17.53
		s-6.19,8.25-4.12,17.53s5.16,11.34,10.31,14.44c5.16,3.09,14.44,4.12,24.75,0s51.56-19.59,51.56-19.59s15.47-4.12,23.72-15.47
		s5.16-24.75,5.16-24.75l-7.22-46.4l-4.12-39.18l-2.06-15.47c0,0,3.09-1.03,3.09-4.12s1.03-17.57-2.06-26.31s-6.19-16.99-7.22-18.03
		c-1.03-1.03-3.09-2.06-4.12-3.09c-1.03-1.03,1.03-22.68,0-25.78C99.88,6,97.82,6,95.75,6c-2.06,0-6.19,0-7.22,0
		s-2.06,1.03-2.06,3.09s4.64,27.32,4.64,27.32s-76.3,17.53-80.43,19.59S4.5,59.1,4.5,61.16c0,2.06,1.03,15.47,4.12,24.75
		s6.19,17.53,8.25,19.59S23.06,107.56,24.61,107.05z"/>
	<path class="st7" d="M24.61,107.05l86.61-20.62l11.31,86.91c0,0-19.86,4.17-25.24,16.83c-7.95,18.7,4.15,35.47,4.15,35.47
		L44.2,247.28c0,0,7.28-32.8-19.59-41.84c-0.27-0.09,19.11-12.69,21.94-15.97c2.83-3.28,7.03-5.15,2.13-18
		C43.76,158.62,24.61,107.05,24.61,107.05z"/>
	<line class="st8" x1="10.69" y1="56.01" x2="24.61" y2="107.05"/>
	<line class="st8" x1="20.05" y1="53.33" x2="33.57" y2="104.91"/>
	<line class="st8" x1="30.63" y1="50.68" x2="42.89" y2="102.7"/>
	<line class="st8" x1="40.02" y1="48.41" x2="53.03" y2="100.28"/>
	<line class="st8" x1="49.17" y1="46.22" x2="61.94" y2="98.16"/>
	<line class="st8" x1="59.75" y1="43.72" x2="72.6" y2="95.62"/>
	<line class="st8" x1="69.74" y1="41.37" x2="82.5" y2="93.27"/>
	<line class="st8" x1="78.55" y1="39.32" x2="91.02" y2="91.24"/>
	<line class="st8" x1="87.48" y1="37.25" x2="101.51" y2="88.74"/>
	<line class="st8" x1="95.62" y1="36.11" x2="111.22" y2="86.43"/>
	<line class="st9" x1="91.11" y1="36.42" x2="100.91" y2="34.87"/>
</g>
<g>
	<path class="st7" d="M243.09,107.05l24.07,64.42c0,0,2.74,5.69,1.71,11.88c-1.03,6.19-14.44,14.44-14.44,14.44
		s-19.59,12.37-22.68,17.53c-3.09,5.16-6.19,8.25-4.12,17.53c2.06,9.28,5.16,11.34,10.31,14.44c5.16,3.09,14.44,4.12,24.75,0
		s51.56-19.59,51.56-19.59s15.47-4.12,23.72-15.47s5.16-24.75,5.16-24.75l-7.22-46.4l-4.12-39.18l-2.06-15.47
		c0,0,3.09-1.03,3.09-4.12s1.03-17.57-2.06-26.31c-3.09-8.75-6.19-16.99-7.22-18.03c-1.03-1.03-3.09-2.06-4.12-3.09
		s1.03-22.68,0-25.78S316.3,6,314.24,6s-6.19,0-7.22,0c-1.03,0-2.06,1.03-2.06,3.09s4.64,27.32,4.64,27.32s-76.3,17.53-80.43,19.59
		c-4.12,2.06-6.19,3.09-6.19,5.16c0,2.06,1.03,15.47,4.12,24.75s6.19,17.53,8.25,19.59C237.42,107.56,241.55,107.56,243.09,107.05z"
		/>
	<path class="st4" d="M243.09,107.05l86.61-20.62l11.31,86.91c0,0-19.86,4.17-25.24,16.83c-7.95,18.7,4.15,35.47,4.15,35.47
		l-57.24,21.65c0,0,7.28-32.8-19.59-41.84c-0.27-0.09,19.11-12.69,21.94-15.97s7.03-5.15,2.13-18
		C262.25,158.62,243.09,107.05,243.09,107.05z"/>
	<line class="st8" x1="229.17" y1="56.01" x2="243.09" y2="107.05"/>
	<line class="st8" x1="238.54" y1="53.33" x2="252.06" y2="104.91"/>
	<line class="st8" x1="249.12" y1="50.68" x2="261.37" y2="102.7"/>
	<line class="st8" x1="258.5" y1="48.41" x2="271.51" y2="100.28"/>
	<line class="st8" x1="267.66" y1="46.22" x2="280.43" y2="98.16"/>
	<line class="st8" x1="278.23" y1="43.72" x2="291.08" y2="95.62"/>
	<line class="st8" x1="288.22" y1="41.37" x2="300.98" y2="93.27"/>
	<line class="st8" x1="297.04" y1="39.32" x2="309.51" y2="91.24"/>
	<line class="st8" x1="305.97" y1="37.25" x2="320" y2="88.74"/>
	<line class="st8" x1="314.1" y1="36.11" x2="329.71" y2="86.43"/>
	<line class="st9" x1="309.6" y1="36.42" x2="319.39" y2="34.87"/>
</g>
<g>
	<path class="st3" d="M461.58,107.05l24.07,64.42c0,0,2.74,5.69,1.71,11.88c-1.03,6.19-14.44,14.44-14.44,14.44
		s-19.59,12.37-22.68,17.53c-3.09,5.16-6.19,8.25-4.12,17.53s5.16,11.34,10.31,14.44c5.16,3.09,14.44,4.12,24.75,0
		s51.56-19.59,51.56-19.59s15.47-4.12,23.72-15.47c8.25-11.34,5.16-24.75,5.16-24.75l-7.22-46.4l-4.12-39.18l-2.06-15.47
		c0,0,3.09-1.03,3.09-4.12s1.03-17.57-2.06-26.31S543.04,39,542,37.96c-1.03-1.03-3.09-2.06-4.12-3.09s1.03-22.68,0-25.78
		S534.79,6,532.72,6c-2.06,0-6.19,0-7.22,0c-1.03,0-2.06,1.03-2.06,3.09s4.64,27.32,4.64,27.32s-76.3,17.53-80.43,19.59
		c-4.12,2.06-6.19,3.09-6.19,5.16c0,2.06,1.03,15.47,4.12,24.75c3.09,9.28,6.19,17.53,8.25,19.59
		C455.91,107.56,460.03,107.56,461.58,107.05z"/>
	<path class="st7" d="M461.58,107.05l86.61-20.62l11.31,86.91c0,0-19.86,4.17-25.24,16.83c-7.95,18.7,4.15,35.47,4.15,35.47
		l-57.24,21.65c0,0,7.28-32.8-19.59-41.84c-0.27-0.09,19.11-12.69,21.94-15.97s7.03-5.15,2.13-18
		C480.74,158.62,461.58,107.05,461.58,107.05z"/>
	<line class="st8" x1="447.66" y1="56.01" x2="461.58" y2="107.05"/>
	<line class="st8" x1="457.03" y1="53.33" x2="470.54" y2="104.91"/>
	<line class="st8" x1="467.61" y1="50.68" x2="479.86" y2="102.7"/>
	<line class="st8" x1="476.99" y1="48.41" x2="490" y2="100.28"/>
	<line class="st8" x1="486.14" y1="46.22" x2="498.91" y2="98.16"/>
	<line class="st8" x1="496.72" y1="43.72" x2="509.57" y2="95.62"/>
	<line class="st8" x1="506.71" y1="41.37" x2="519.47" y2="93.27"/>
	<line class="st8" x1="515.52" y1="39.32" x2="527.99" y2="91.24"/>
	<line class="st8" x1="524.45" y1="37.25" x2="538.48" y2="88.74"/>
	<line class="st8" x1="532.59" y1="36.11" x2="548.19" y2="86.43"/>
	<line class="st9" x1="528.08" y1="36.42" x2="537.88" y2="34.87"/>
</g>
<g>
	<path class="st7" d="M680.06,107.05l24.07,64.42c0,0,2.74,5.69,1.71,11.88c-1.03,6.19-14.44,14.44-14.44,14.44
		s-19.59,12.37-22.68,17.53s-6.19,8.25-4.12,17.53c2.06,9.28,5.16,11.34,10.31,14.44c5.16,3.09,14.44,4.12,24.75,0
		s51.56-19.59,51.56-19.59s15.47-4.12,23.72-15.47c8.25-11.34,5.16-24.75,5.16-24.75l-7.22-46.4l-4.12-39.18l-2.06-15.47
		c0,0,3.09-1.03,3.09-4.12s1.03-17.57-2.06-26.31c-3.09-8.75-6.19-16.99-7.22-18.03c-1.03-1.03-3.09-2.06-4.12-3.09
		s1.03-22.68,0-25.78S753.27,6,751.21,6c-2.06,0-6.19,0-7.22,0c-1.03,0-2.06,1.03-2.06,3.09s4.64,27.32,4.64,27.32
		s-76.3,17.53-80.43,19.59s-6.19,3.09-6.19,5.16c0,2.06,1.03,15.47,4.12,24.75s6.19,17.53,8.25,19.59
		C674.39,107.56,678.52,107.56,680.06,107.05z"/>
	<path class="st4" d="M680.06,107.05l86.61-20.62l11.31,86.91c0,0-19.86,4.17-25.24,16.83c-7.95,18.7,4.15,35.47,4.15,35.47
		l-57.24,21.65c0,0,7.28-32.8-19.59-41.84c-0.27-0.09,19.11-12.69,21.94-15.97c2.83-3.28,7.03-5.15,2.13-18
		C699.22,158.62,680.06,107.05,680.06,107.05z"/>
	<line class="st8" x1="666.14" y1="56.01" x2="680.06" y2="107.05"/>
	<line class="st8" x1="675.51" y1="53.33" x2="689.03" y2="104.91"/>
	<line class="st8" x1="686.09" y1="50.68" x2="698.34" y2="102.7"/>
	<line class="st8" x1="695.47" y1="48.41" x2="708.48" y2="100.28"/>
	<line class="st8" x1="704.63" y1="46.22" x2="717.4" y2="98.16"/>
	<line class="st8" x1="715.21" y1="43.72" x2="728.05" y2="95.62"/>
	<line class="st8" x1="725.2" y1="41.37" x2="737.95" y2="93.27"/>
	<line class="st8" x1="734.01" y1="39.32" x2="746.48" y2="91.24"/>
	<line class="st8" x1="742.94" y1="37.25" x2="756.97" y2="88.74"/>
	<line class="st8" x1="751.08" y1="36.11" x2="766.68" y2="86.43"/>
	<line class="st9" x1="746.57" y1="36.42" x2="756.37" y2="34.87"/>
</g>
<g>
	<path class="st3" d="M898.55,107.05l24.07,64.42c0,0,2.74,5.69,1.71,11.88c-1.03,6.19-14.44,14.44-14.44,14.44
		s-19.59,12.37-22.68,17.53s-6.19,8.25-4.12,17.53c2.06,9.28,5.16,11.34,10.31,14.44c5.16,3.09,14.44,4.12,24.75,0
		s51.56-19.59,51.56-19.59s15.47-4.12,23.72-15.47c8.25-11.34,5.16-24.75,5.16-24.75l-7.22-46.4l-4.12-39.18l-2.06-15.47
		c0,0,3.09-1.03,3.09-4.12s1.03-17.57-2.06-26.31c-3.09-8.75-6.19-16.99-7.22-18.03c-1.03-1.03-3.09-2.06-4.12-3.09
		s1.03-22.68,0-25.78S971.76,6,969.7,6c-2.06,0-6.19,0-7.22,0c-1.03,0-2.06,1.03-2.06,3.09s4.64,27.32,4.64,27.32
		s-76.3,17.53-80.43,19.59s-6.19,3.09-6.19,5.16c0,2.06,1.03,15.47,4.12,24.75c3.09,9.28,6.19,17.53,8.25,19.59
		C892.88,107.56,897,107.56,898.55,107.05z"/>
	<path class="st7" d="M898.55,107.05l86.61-20.62l11.31,86.91c0,0-19.86,4.17-25.24,16.83c-7.95,18.7,4.15,35.47,4.15,35.47
		l-57.24,21.65c0,0,7.28-32.8-19.59-41.84c-0.27-0.09,19.11-12.69,21.94-15.97c2.83-3.28,7.03-5.15,2.13-18
		C917.71,158.62,898.55,107.05,898.55,107.05z"/>
	<line class="st8" x1="884.63" y1="56.01" x2="898.55" y2="107.05"/>
	<line class="st8" x1="894" y1="53.33" x2="907.52" y2="104.91"/>
	<line class="st8" x1="904.58" y1="50.68" x2="916.83" y2="102.7"/>
	<line class="st8" x1="913.96" y1="48.41" x2="926.97" y2="100.28"/>
	<line class="st8" x1="923.11" y1="46.22" x2="935.88" y2="98.16"/>
	<line class="st8" x1="933.69" y1="43.72" x2="946.54" y2="95.62"/>
	<line class="st8" x1="943.68" y1="41.37" x2="956.44" y2="93.27"/>
	<line class="st8" x1="952.5" y1="39.32" x2="964.96" y2="91.24"/>
	<line class="st8" x1="961.42" y1="37.25" x2="975.46" y2="88.74"/>
	<line class="st8" x1="969.56" y1="36.11" x2="985.16" y2="86.43"/>
	<line class="st9" x1="965.06" y1="36.42" x2="974.85" y2="34.87"/>
</g>
<g>
	<path class="st3" d="M1335.52,107.05l24.07,64.42c0,0,2.74,5.69,1.71,11.88s-14.44,14.44-14.44,14.44s-19.59,12.37-22.68,17.53
		c-3.09,5.16-6.19,8.25-4.12,17.53c2.06,9.28,5.16,11.34,10.31,14.44c5.16,3.09,14.44,4.12,24.75,0
		c10.31-4.12,51.56-19.59,51.56-19.59s15.47-4.12,23.72-15.47c8.25-11.34,5.16-24.75,5.16-24.75l-7.22-46.4l-4.12-39.18l-2.06-15.47
		c0,0,3.09-1.03,3.09-4.12s1.03-17.57-2.06-26.31c-3.09-8.75-6.19-16.99-7.22-18.03c-1.03-1.03-3.09-2.06-4.12-3.09
		c-1.03-1.03,1.03-22.68,0-25.78C1410.79,6,1408.73,6,1406.67,6s-6.19,0-7.22,0s-2.06,1.03-2.06,3.09s4.64,27.32,4.64,27.32
		s-76.3,17.53-80.43,19.59s-6.19,3.09-6.19,5.16c0,2.06,1.03,15.47,4.12,24.75c3.09,9.28,6.19,17.53,8.25,19.59
		S1333.97,107.56,1335.52,107.05z"/>
	<path class="st7" d="M1335.52,107.05l86.61-20.62l11.31,86.91c0,0-19.86,4.17-25.24,16.83c-7.95,18.7,4.15,35.47,4.15,35.47
		l-57.24,21.65c0,0,7.28-32.8-19.59-41.84c-0.27-0.09,19.11-12.69,21.94-15.97c2.83-3.28,7.03-5.15,2.13-18
		C1354.68,158.62,1335.52,107.05,1335.52,107.05z"/>
	<line class="st8" x1="1321.6" y1="56.01" x2="1335.52" y2="107.05"/>
	<line class="st8" x1="1330.97" y1="53.33" x2="1344.49" y2="104.91"/>
	<line class="st8" x1="1341.55" y1="50.68" x2="1353.8" y2="102.7"/>
	<line class="st8" x1="1350.93" y1="48.41" x2="1363.94" y2="100.28"/>
	<line class="st8" x1="1360.08" y1="46.22" x2="1372.86" y2="98.16"/>
	<line class="st8" x1="1370.66" y1="43.72" x2="1383.51" y2="95.62"/>
	<line class="st8" x1="1380.65" y1="41.37" x2="1393.41" y2="93.27"/>
	<line class="st8" x1="1389.47" y1="39.32" x2="1401.94" y2="91.24"/>
	<line class="st8" x1="1398.39" y1="37.25" x2="1412.43" y2="88.74"/>
	<line class="st8" x1="1406.53" y1="36.11" x2="1422.13" y2="86.43"/>
	<line class="st9" x1="1402.03" y1="36.42" x2="1411.82" y2="34.87"/>
</g>
<g>
	<path class="st7" d="M1554.01,107.05l24.07,64.42c0,0,2.74,5.69,1.71,11.88c-1.03,6.19-14.44,14.44-14.44,14.44
		s-19.59,12.37-22.68,17.53s-6.19,8.25-4.12,17.53c2.06,9.28,5.16,11.34,10.31,14.44c5.16,3.09,14.44,4.12,24.75,0
		c10.31-4.12,51.56-19.59,51.56-19.59s15.47-4.12,23.72-15.47c8.25-11.34,5.16-24.75,5.16-24.75l-7.22-46.4l-4.12-39.18l-2.06-15.47
		c0,0,3.09-1.03,3.09-4.12s1.03-17.57-2.06-26.31c-3.09-8.75-6.19-16.99-7.22-18.03c-1.03-1.03-3.09-2.06-4.12-3.09
		s1.03-22.68,0-25.78S1627.22,6,1625.15,6s-6.19,0-7.22,0s-2.06,1.03-2.06,3.09s4.64,27.32,4.64,27.32s-76.3,17.53-80.43,19.59
		s-6.19,3.09-6.19,5.16c0,2.06,1.03,15.47,4.12,24.75c3.09,9.28,6.19,17.53,8.25,19.59S1552.46,107.56,1554.01,107.05z"/>
	<path class="st4" d="M1554.01,107.05l86.61-20.62l11.31,86.91c0,0-19.86,4.17-25.24,16.83c-7.95,18.7,4.15,35.47,4.15,35.47
		l-57.24,21.65c0,0,7.28-32.8-19.59-41.84c-0.27-0.09,19.11-12.69,21.94-15.97c2.83-3.28,7.03-5.15,2.13-18
		C1573.16,158.62,1554.01,107.05,1554.01,107.05z"/>
	<line class="st8" x1="1540.09" y1="56.01" x2="1554.01" y2="107.05"/>
	<line class="st8" x1="1549.45" y1="53.33" x2="1562.97" y2="104.91"/>
	<line class="st8" x1="1560.03" y1="50.68" x2="1572.29" y2="102.7"/>
	<line class="st8" x1="1569.42" y1="48.41" x2="1582.43" y2="100.28"/>
	<line class="st8" x1="1578.57" y1="46.22" x2="1591.34" y2="98.16"/>
	<line class="st8" x1="1589.15" y1="43.72" x2="1602" y2="95.62"/>
	<line class="st8" x1="1599.14" y1="41.37" x2="1611.9" y2="93.27"/>
	<line class="st8" x1="1607.95" y1="39.32" x2="1620.42" y2="91.24"/>
	<line class="st8" x1="1616.88" y1="37.25" x2="1630.91" y2="88.74"/>
	<line class="st8" x1="1625.02" y1="36.11" x2="1640.62" y2="86.43"/>
	<line class="st9" x1="1620.51" y1="36.42" x2="1630.31" y2="34.87"/>
</g>
<g>
	<path class="st7" d="M1117.04,107.05l24.07,64.42c0,0,2.74,5.69,1.71,11.88s-14.44,14.44-14.44,14.44s-19.59,12.37-22.68,17.53
		c-3.09,5.16-6.19,8.25-4.12,17.53c2.06,9.28,5.16,11.34,10.31,14.44c5.16,3.09,14.44,4.12,24.75,0
		c10.31-4.12,51.56-19.59,51.56-19.59s15.47-4.12,23.72-15.47c8.25-11.34,5.16-24.75,5.16-24.75l-7.22-46.4l-4.12-39.18l-2.06-15.47
		c0,0,3.09-1.03,3.09-4.12s1.03-17.57-2.06-26.31c-3.09-8.75-6.19-16.99-7.22-18.03c-1.03-1.03-3.09-2.06-4.12-3.09
		c-1.03-1.03,1.03-22.68,0-25.78C1192.31,6,1190.24,6,1188.18,6s-6.19,0-7.22,0s-2.06,1.03-2.06,3.09s4.64,27.32,4.64,27.32
		s-76.3,17.53-80.43,19.59s-6.19,3.09-6.19,5.16c0,2.06,1.03,15.47,4.12,24.75c3.09,9.28,6.19,17.53,8.25,19.59
		S1115.49,107.56,1117.04,107.05z"/>
	<path class="st4" d="M1117.04,107.05l86.61-20.62l11.31,86.91c0,0-19.86,4.17-25.24,16.83c-7.95,18.7,4.15,35.47,4.15,35.47
		l-57.24,21.65c0,0,7.28-32.8-19.59-41.84c-0.27-0.09,19.11-12.69,21.94-15.97c2.83-3.28,7.03-5.15,2.13-18
		C1136.19,158.62,1117.04,107.05,1117.04,107.05z"/>
	<line class="st8" x1="1103.12" y1="56.01" x2="1117.04" y2="107.05"/>
	<line class="st8" x1="1112.48" y1="53.33" x2="1126" y2="104.91"/>
	<line class="st8" x1="1123.06" y1="50.68" x2="1135.32" y2="102.7"/>
	<line class="st8" x1="1132.44" y1="48.41" x2="1145.45" y2="100.28"/>
	<line class="st8" x1="1141.6" y1="46.22" x2="1154.37" y2="98.16"/>
	<line class="st8" x1="1152.18" y1="43.72" x2="1165.03" y2="95.62"/>
	<line class="st8" x1="1162.17" y1="41.37" x2="1174.93" y2="93.27"/>
	<line class="st8" x1="1170.98" y1="39.32" x2="1183.45" y2="91.24"/>
	<line class="st8" x1="1179.91" y1="37.25" x2="1193.94" y2="88.74"/>
	<line class="st8" x1="1188.05" y1="36.11" x2="1203.65" y2="86.43"/>
	<line class="st9" x1="1183.54" y1="36.42" x2="1193.34" y2="34.87"/>
</g>
</svg>
