<?xml version="1.0" encoding="utf-8"?>
<!-- Generator: Adobe Illustrator 28.0.0, SVG Export Plug-In . SVG Version: 6.00 Build 0)  -->
<svg version="1.1" id="Layer_1" xmlns="http://www.w3.org/2000/svg" xmlns:xlink="http://www.w3.org/1999/xlink" x="0px" y="0px"
	 viewBox="0 0 2846 243" style="enable-background:new 0 0 2846 243;" xml:space="preserve">
<style type="text/css">
	.st0{fill:#B5A174;}
	.st1{fill:#6A994E;}
	.st2{fill:#A7C957;}
	.st3{fill:#897754;}
	.st4{fill:#F2E8CF;}
</style>
<g>
	<path class="st0" d="M253.73,228.27h-13.85c-4.05,0-7.33-3.28-7.33-7.33v-50.76c0-4.05,3.28-7.33,7.33-7.33h13.85
		c4.05,0,7.33,3.28,7.33,7.33v50.76C261.06,224.99,257.78,228.27,253.73,228.27z"/>
	<g>
		<path class="st1" d="M242.68,16.39c1.86-3.19,6.5-3.19,8.36,0L269,47.27l17.97,30.88c1.86,3.19-0.46,7.18-4.18,7.18h-35.94h-35.94
			c-3.71,0-6.04-3.99-4.18-7.18l17.97-30.88L242.68,16.39z"/>
		<path class="st1" d="M241.31,34.54c2.51-4.33,8.8-4.33,11.31,0l24.32,41.92l24.32,41.92c2.51,4.33-0.63,9.75-5.66,9.75h-48.64
			h-48.64c-5.03,0-8.17-5.42-5.66-9.75l24.32-41.92L241.31,34.54z"/>
		<path class="st1" d="M239.5,55.45c3.29-5.65,11.5-5.65,14.78,0l31.79,54.62l31.79,54.62c3.29,5.65-0.82,12.7-7.39,12.7h-63.57
			h-63.57c-6.57,0-10.68-7.06-7.39-12.7l31.79-54.62L239.5,55.45z"/>
	</g>
	<path class="st2" d="M259.78,42.35c1.51-2.62,5.3-2.62,6.81,0l14.65,25.37l14.65,25.37c1.51,2.62-0.38,5.9-3.41,5.9h-29.29h-29.29
		c-3.03,0-4.92-3.28-3.41-5.9l14.65-25.37L259.78,42.35z"/>
	<path class="st2" d="M258.66,57.26c2.05-3.56,7.17-3.56,9.22,0l19.83,34.44l19.83,34.44c2.05,3.56-0.51,8.01-4.61,8.01h-39.65
		h-39.65c-4.1,0-6.66-4.45-4.61-8.01l19.83-34.44L258.66,57.26z"/>
	<path class="st2" d="M257.19,77.08c2.68-4.64,9.37-4.64,12.05,0l25.91,44.88l25.91,44.88c2.68,4.64-0.67,10.44-6.03,10.44h-51.82
		h-51.82c-5.36,0-8.7-5.8-6.03-10.44l25.91-44.88L257.19,77.08z"/>
	<path class="st3" d="M253.7,196.82L253.7,196.82c-0.89,0-1.61-0.72-1.61-1.61v-10.58c0-0.89,0.72-1.61,1.61-1.61h0
		c0.89,0,1.61,0.72,1.61,1.61v10.58C255.31,196.1,254.59,196.82,253.7,196.82z"/>
	<path class="st3" d="M239.9,203.26L239.9,203.26c-0.89,0-1.61-0.72-1.61-1.61v-10.36c0-0.89,0.72-1.61,1.61-1.61l0,0
		c0.89,0,1.61,0.72,1.61,1.61v10.36C241.51,202.54,240.79,203.26,239.9,203.26z"/>
	<path class="st3" d="M248.64,215.67L248.64,215.67c-0.89,0-1.61-0.72-1.61-1.61v-10.58c0-0.89,0.72-1.61,1.61-1.61l0,0
		c0.89,0,1.61,0.72,1.61,1.61v10.58C250.25,214.95,249.53,215.67,248.64,215.67z"/>
</g>
<path class="st0" d="M89.73,227.27H75.88c-4.05,0-7.33-3.28-7.33-7.33v-50.76c0-4.05,3.28-7.33,7.33-7.33h13.85
	c4.05,0,7.33,3.28,7.33,7.33v50.76C97.06,223.99,93.78,227.27,89.73,227.27z"/>
<g>
	<path class="st1" d="M78.68,15.39c1.86-3.19,6.5-3.19,8.36,0L105,46.27l17.97,30.88c1.86,3.19-0.46,7.18-4.18,7.18H82.86H46.92
		c-3.71,0-6.04-3.99-4.18-7.18l17.97-30.88L78.68,15.39z"/>
	<path class="st1" d="M77.31,33.54c2.51-4.33,8.8-4.33,11.31,0l24.32,41.92l24.32,41.92c2.51,4.33-0.63,9.75-5.66,9.75H82.96H34.32
		c-5.03,0-8.17-5.42-5.66-9.75l24.32-41.92L77.31,33.54z"/>
	<path class="st1" d="M75.5,54.45c3.29-5.65,11.5-5.65,14.78,0l31.79,54.62l31.79,54.62c3.29,5.65-0.82,12.7-7.39,12.7H82.89H19.32
		c-6.57,0-10.68-7.06-7.39-12.7l31.79-54.62L75.5,54.45z"/>
</g>
<path class="st2" d="M95.78,41.35c1.51-2.62,5.3-2.62,6.81,0l14.65,25.37l14.65,25.37c1.51,2.62-0.38,5.9-3.41,5.9H99.18H69.89
	c-3.03,0-4.92-3.28-3.41-5.9l14.65-25.37L95.78,41.35z"/>
<path class="st2" d="M94.66,56.26c2.05-3.56,7.17-3.56,9.22,0l19.83,34.44l19.83,34.44c2.05,3.56-0.51,8.01-4.61,8.01H99.27H59.62
	c-4.1,0-6.66-4.45-4.61-8.01L74.83,90.7L94.66,56.26z"/>
<path class="st2" d="M93.19,76.08c2.68-4.64,9.37-4.64,12.05,0l25.91,44.88l25.91,44.88c2.68,4.64-0.67,10.44-6.03,10.44H99.21
	H47.39c-5.36,0-8.7-5.8-6.03-10.44l25.91-44.88L93.19,76.08z"/>
<path class="st4" d="M112.21,75.75L112.21,75.75c-1.93,0.96-4.28,0.18-5.24-1.75l-6.57-13.17c-0.96-1.93-0.18-4.28,1.75-5.24l0,0
	c1.93-0.96,4.28-0.18,5.24,1.75l6.57,13.17C114.92,72.44,114.14,74.78,112.21,75.75z"/>
<path class="st3" d="M89.7,195.82L89.7,195.82c-0.89,0-1.61-0.72-1.61-1.61v-10.58c0-0.89,0.72-1.61,1.61-1.61l0,0
	c0.89,0,1.61,0.72,1.61,1.61v10.58C91.31,195.1,90.59,195.82,89.7,195.82z"/>
<path class="st3" d="M75.9,202.26L75.9,202.26c-0.89,0-1.61-0.72-1.61-1.61v-10.36c0-0.89,0.72-1.61,1.61-1.61h0
	c0.89,0,1.61,0.72,1.61,1.61v10.36C77.51,201.54,76.79,202.26,75.9,202.26z"/>
<path class="st3" d="M84.64,214.67L84.64,214.67c-0.89,0-1.61-0.72-1.61-1.61v-10.58c0-0.89,0.72-1.61,1.61-1.61l0,0
	c0.89,0,1.61,0.72,1.61,1.61v10.58C86.25,213.95,85.53,214.67,84.64,214.67z"/>
<path class="st0" d="M164.53,228.27H159c-4.05,0-7.33-3.28-7.33-7.33v-31.65c0-4.05,3.28-7.33,7.33-7.33h5.52
	c4.05,0,7.33,3.28,7.33,7.33v31.65C171.86,224.99,168.58,228.27,164.53,228.27z"/>
<g>
	<path class="st1" d="M158.85,78.28c1.31-2.26,4.6-2.26,5.92,0l12.72,21.86l12.72,21.86c1.31,2.26-0.33,5.08-2.96,5.08H161.8h-25.44
		c-2.63,0-4.27-2.82-2.96-5.08l12.72-21.86L158.85,78.28z"/>
	<path class="st1" d="M157.87,91.12c1.78-3.07,6.23-3.07,8.01,0l17.22,29.68l17.22,29.68c1.78,3.07-0.44,6.9-4,6.9h-34.44h-34.44
		c-3.56,0-5.78-3.83-4-6.9l17.22-29.68L157.87,91.12z"/>
	<path class="st1" d="M156.6,105.92c2.33-4,8.14-4,10.47,0l22.5,38.67l22.5,38.67c2.33,4-0.58,8.99-5.23,8.99h-45h-45
		c-4.65,0-7.56-5-5.23-8.99l22.5-38.67L156.6,105.92z"/>
</g>
<path class="st2" d="M170.95,96.65c1.07-1.86,3.75-1.86,4.82,0l10.37,17.96l10.37,17.96c1.07,1.86-0.27,4.18-2.41,4.18h-20.74
	h-20.74c-2.14,0-3.48-2.32-2.41-4.18l10.37-17.96L170.95,96.65z"/>
<path class="st2" d="M170.16,107.21c1.45-2.52,5.08-2.52,6.53,0l14.03,24.38l14.03,24.38c1.45,2.52-0.36,5.67-3.26,5.67h-28.07
	h-28.07c-2.9,0-4.71-3.15-3.26-5.67l14.03-24.38L170.16,107.21z"/>
<path class="st2" d="M169.12,121.24c1.9-3.28,6.64-3.28,8.53,0l18.34,31.77l18.34,31.77c1.9,3.28-0.47,7.39-4.27,7.39h-36.68H136.7
	c-3.79,0-6.16-4.1-4.27-7.39l18.34-31.77L169.12,121.24z"/>
<path class="st4" d="M182.58,121L182.58,121c-1.37,0.68-3.03,0.13-3.71-1.24l-4.65-9.32c-0.68-1.37-0.13-3.03,1.24-3.71h0
	c1.37-0.68,3.03-0.13,3.71,1.24l4.65,9.32C184.5,118.66,183.95,120.32,182.58,121z"/>
<path class="st3" d="M166.65,206L166.65,206c-0.63,0-1.14-0.51-1.14-1.14v-7.49c0-0.63,0.51-1.14,1.14-1.14l0,0
	c0.63,0,1.14,0.51,1.14,1.14v7.49C167.79,205.49,167.28,206,166.65,206z"/>
<path class="st3" d="M156.88,210.56L156.88,210.56c-0.63,0-1.14-0.51-1.14-1.14v-7.33c0-0.63,0.51-1.14,1.14-1.14l0,0
	c0.63,0,1.14,0.51,1.14,1.14v7.33C158.02,210.05,157.51,210.56,156.88,210.56z"/>
<path class="st3" d="M163.07,219.35L163.07,219.35c-0.63,0-1.14-0.51-1.14-1.14v-7.49c0-0.63,0.51-1.14,1.14-1.14l0,0
	c0.63,0,1.14,0.51,1.14,1.14v7.49C164.21,218.84,163.7,219.35,163.07,219.35z"/>
<path class="st4" d="M277.21,79.75L277.21,79.75c-1.93,0.96-4.28,0.18-5.24-1.75l-6.57-13.17c-0.96-1.93-0.18-4.28,1.75-5.24v0
	c1.93-0.96,4.28-0.18,5.24,1.75l6.57,13.17C279.92,76.44,279.14,78.78,277.21,79.75z"/>
<g>
	<path class="st0" d="M338.73,230.27h-13.85c-4.05,0-7.33-3.28-7.33-7.33v-50.76c0-4.05,3.28-7.33,7.33-7.33h13.85
		c4.05,0,7.33,3.28,7.33,7.33v50.76C346.06,226.99,342.78,230.27,338.73,230.27z"/>
	<g>
		<path class="st1" d="M327.68,18.39c1.86-3.19,6.5-3.19,8.36,0L354,49.27l17.97,30.88c1.86,3.19-0.46,7.18-4.18,7.18h-35.94h-35.94
			c-3.71,0-6.04-3.99-4.18-7.18l17.97-30.88L327.68,18.39z"/>
		<path class="st1" d="M326.31,36.54c2.51-4.33,8.8-4.33,11.31,0l24.32,41.92l24.32,41.92c2.51,4.33-0.63,9.75-5.66,9.75h-48.64
			h-48.64c-5.03,0-8.17-5.42-5.66-9.75l24.32-41.92L326.31,36.54z"/>
		<path class="st1" d="M324.5,57.45c3.29-5.65,11.5-5.65,14.78,0l31.79,54.62l31.79,54.62c3.29,5.65-0.82,12.7-7.39,12.7h-63.57
			h-63.57c-6.57,0-10.68-7.06-7.39-12.7l31.79-54.62L324.5,57.45z"/>
	</g>
	<path class="st2" d="M344.78,44.35c1.51-2.62,5.3-2.62,6.81,0l14.65,25.37l14.65,25.37c1.51,2.62-0.38,5.9-3.41,5.9h-29.29h-29.29
		c-3.03,0-4.92-3.28-3.41-5.9l14.65-25.37L344.78,44.35z"/>
	<path class="st2" d="M343.66,59.26c2.05-3.56,7.17-3.56,9.22,0l19.83,34.44l19.83,34.44c2.05,3.56-0.51,8.01-4.61,8.01h-39.65
		h-39.65c-4.1,0-6.66-4.45-4.61-8.01l19.83-34.44L343.66,59.26z"/>
	<path class="st2" d="M342.19,79.08c2.68-4.64,9.37-4.64,12.05,0l25.91,44.88l25.91,44.88c2.68,4.64-0.67,10.44-6.03,10.44h-51.82
		h-51.82c-5.36,0-8.7-5.8-6.03-10.44l25.91-44.88L342.19,79.08z"/>
	<path class="st4" d="M361.21,78.75L361.21,78.75c-1.93,0.96-4.28,0.18-5.24-1.75l-6.57-13.17c-0.96-1.93-0.18-4.28,1.75-5.24v0
		c1.93-0.96,4.28-0.18,5.24,1.75l6.57,13.17C363.92,75.44,363.14,77.78,361.21,78.75z"/>
	<path class="st3" d="M338.7,198.82L338.7,198.82c-0.89,0-1.61-0.72-1.61-1.61v-10.58c0-0.89,0.72-1.61,1.61-1.61l0,0
		c0.89,0,1.61,0.72,1.61,1.61v10.58C340.31,198.1,339.59,198.82,338.7,198.82z"/>
	<path class="st3" d="M324.9,205.26L324.9,205.26c-0.89,0-1.61-0.72-1.61-1.61v-10.36c0-0.89,0.72-1.61,1.61-1.61l0,0
		c0.89,0,1.61,0.72,1.61,1.61v10.36C326.51,204.54,325.79,205.26,324.9,205.26z"/>
	<path class="st3" d="M333.64,217.67L333.64,217.67c-0.89,0-1.61-0.72-1.61-1.61v-10.58c0-0.89,0.72-1.61,1.61-1.61l0,0
		c0.89,0,1.61,0.72,1.61,1.61v10.58C335.25,216.95,334.53,217.67,333.64,217.67z"/>
</g>
<g>
	<path class="st0" d="M278.74,228.27h-7.55c-2.53,0-4.57-2.05-4.57-4.57v-22.33c0-2.53,2.05-4.57,4.57-4.57h7.55
		c2.53,0,4.57,2.05,4.57,4.57v22.33C283.31,226.22,281.26,228.27,278.74,228.27z"/>
	<g>
		<path class="st1" d="M272.54,126.33c1.09-1.54,3.81-1.54,4.89,0l10.52,14.86l10.52,14.86c1.09,1.54-0.27,3.45-2.45,3.45h-21.05
			h-21.05c-2.18,0-3.53-1.92-2.45-3.45l10.52-14.86L272.54,126.33z"/>
		<path class="st1" d="M271.74,135.06c1.47-2.08,5.15-2.08,6.62,0l14.24,20.17l14.24,20.17c1.47,2.08-0.37,4.69-3.31,4.69h-28.49
			h-28.49c-2.94,0-4.78-2.61-3.31-4.69l14.24-20.17L271.74,135.06z"/>
		<path class="st1" d="M270.68,145.12c1.92-2.72,6.73-2.72,8.66,0l18.62,26.28l18.62,26.28c1.92,2.72-0.48,6.11-4.33,6.11h-37.23
			h-37.23c-3.85,0-6.25-3.4-4.33-6.11l18.62-26.28L270.68,145.12z"/>
	</g>
	<path class="st2" d="M282.56,138.81c0.89-1.26,3.1-1.26,3.99,0l8.58,12.21l8.58,12.21c0.89,1.26-0.22,2.84-1.99,2.84h-17.16H267.4
		c-1.77,0-2.88-1.58-1.99-2.84l8.58-12.21L282.56,138.81z"/>
	<path class="st2" d="M281.9,145.99c1.2-1.71,4.2-1.71,5.4,0l11.61,16.57l11.61,16.57c1.2,1.71-0.3,3.85-2.7,3.85H284.6h-23.22
		c-2.4,0-3.9-2.14-2.7-3.85l11.61-16.57L281.9,145.99z"/>
	<path class="st2" d="M281.04,155.53c1.57-2.23,5.49-2.23,7.06,0l15.17,21.59l15.17,21.59c1.57,2.23-0.39,5.02-3.53,5.02h-30.35
		h-30.35c-3.14,0-5.1-2.79-3.53-5.02l15.17-21.59L281.04,155.53z"/>
	<path class="st4" d="M292.18,155.36L292.18,155.36c-1.13,0.46-2.51,0.09-3.07-0.84l-3.85-6.34c-0.56-0.93-0.1-2.06,1.03-2.52l0,0
		c1.13-0.46,2.51-0.09,3.07,0.84l3.85,6.34C293.77,153.77,293.31,154.9,292.18,155.36z"/>
	<path class="st3" d="M279.43,213.14h-0.85c-0.29,0-0.52-0.23-0.52-0.52v-5.61c0-0.29,0.23-0.52,0.52-0.52h0.85
		c0.29,0,0.52,0.23,0.52,0.52v5.61C279.94,212.91,279.71,213.14,279.43,213.14z"/>
	<path class="st3" d="M271.35,216.24h-0.85c-0.29,0-0.52-0.23-0.52-0.52v-5.5c0-0.29,0.23-0.52,0.52-0.52h0.85
		c0.29,0,0.52,0.23,0.52,0.52v5.5C271.86,216,271.63,216.24,271.35,216.24z"/>
	<path class="st3" d="M276.46,222.21h-0.85c-0.29,0-0.52-0.23-0.52-0.52v-5.61c0-0.29,0.23-0.52,0.52-0.52h0.85
		c0.29,0,0.52,0.23,0.52,0.52v5.61C276.98,221.98,276.75,222.21,276.46,222.21z"/>
</g>
<g>
	<path class="st0" d="M2275.73,232.27h-13.85c-4.05,0-7.33-3.28-7.33-7.33v-50.76c0-4.05,3.28-7.33,7.33-7.33h13.85
		c4.05,0,7.33,3.28,7.33,7.33v50.76C2283.06,228.99,2279.78,232.27,2275.73,232.27z"/>
	<g>
		<path class="st1" d="M2264.68,20.39c1.86-3.19,6.5-3.19,8.36,0L2291,51.27l17.97,30.88c1.86,3.19-0.46,7.18-4.18,7.18h-35.94
			h-35.94c-3.71,0-6.04-3.99-4.18-7.18l17.97-30.88L2264.68,20.39z"/>
		<path class="st1" d="M2263.31,38.54c2.51-4.33,8.8-4.33,11.31,0l24.32,41.92l24.32,41.92c2.51,4.33-0.63,9.75-5.66,9.75h-48.64
			h-48.64c-5.03,0-8.17-5.42-5.66-9.75l24.32-41.92L2263.31,38.54z"/>
		<path class="st1" d="M2261.5,59.45c3.29-5.65,11.5-5.65,14.78,0l31.79,54.62l31.79,54.62c3.29,5.65-0.82,12.7-7.39,12.7h-63.57
			h-63.57c-6.57,0-10.68-7.06-7.39-12.7l31.79-54.62L2261.5,59.45z"/>
	</g>
	<path class="st2" d="M2281.78,46.35c1.51-2.62,5.3-2.62,6.81,0l14.65,25.37l14.65,25.37c1.51,2.62-0.38,5.9-3.41,5.9h-29.29h-29.29
		c-3.03,0-4.92-3.28-3.41-5.9l14.65-25.37L2281.78,46.35z"/>
	<path class="st2" d="M2280.66,61.26c2.05-3.56,7.17-3.56,9.22,0l19.83,34.44l19.82,34.44c2.05,3.56-0.51,8.01-4.61,8.01h-39.65
		h-39.65c-4.1,0-6.66-4.45-4.61-8.01l19.83-34.44L2280.66,61.26z"/>
	<path class="st2" d="M2279.19,81.08c2.68-4.64,9.37-4.64,12.05,0l25.91,44.88l25.91,44.88c2.68,4.64-0.67,10.44-6.03,10.44h-51.82
		h-51.82c-5.36,0-8.7-5.8-6.03-10.44l25.91-44.88L2279.19,81.08z"/>
	<path class="st3" d="M2275.7,200.82L2275.7,200.82c-0.89,0-1.61-0.72-1.61-1.61v-10.58c0-0.89,0.72-1.61,1.61-1.61l0,0
		c0.89,0,1.61,0.72,1.61,1.61v10.58C2277.31,200.1,2276.59,200.82,2275.7,200.82z"/>
	<path class="st3" d="M2261.9,207.26L2261.9,207.26c-0.89,0-1.61-0.72-1.61-1.61v-10.36c0-0.89,0.72-1.61,1.61-1.61l0,0
		c0.89,0,1.61,0.72,1.61,1.61v10.36C2263.51,206.54,2262.79,207.26,2261.9,207.26z"/>
	<path class="st3" d="M2270.64,219.67L2270.64,219.67c-0.89,0-1.61-0.72-1.61-1.61v-10.58c0-0.89,0.72-1.61,1.61-1.61l0,0
		c0.89,0,1.61,0.72,1.61,1.61v10.58C2272.25,218.95,2271.53,219.67,2270.64,219.67z"/>
</g>
<path class="st0" d="M2111.73,231.27h-13.85c-4.05,0-7.33-3.28-7.33-7.33v-50.76c0-4.05,3.28-7.33,7.33-7.33h13.85
	c4.05,0,7.33,3.28,7.33,7.33v50.76C2119.06,227.99,2115.78,231.27,2111.73,231.27z"/>
<g>
	<path class="st1" d="M2100.68,19.39c1.86-3.19,6.5-3.19,8.36,0L2127,50.27l17.97,30.88c1.86,3.19-0.46,7.18-4.18,7.18h-35.94
		h-35.94c-3.71,0-6.04-3.99-4.18-7.18l17.97-30.88L2100.68,19.39z"/>
	<path class="st1" d="M2099.31,37.54c2.51-4.33,8.8-4.33,11.31,0l24.32,41.92l24.32,41.92c2.51,4.33-0.63,9.75-5.66,9.75h-48.64
		h-48.64c-5.03,0-8.17-5.42-5.66-9.75l24.32-41.92L2099.31,37.54z"/>
	<path class="st1" d="M2097.5,58.45c3.29-5.65,11.5-5.65,14.78,0l31.79,54.62l31.79,54.62c3.29,5.65-0.82,12.7-7.39,12.7h-63.57
		h-63.57c-6.57,0-10.68-7.06-7.39-12.7l31.79-54.62L2097.5,58.45z"/>
</g>
<path class="st2" d="M2117.78,45.35c1.51-2.62,5.3-2.62,6.81,0l14.65,25.37l14.65,25.37c1.51,2.62-0.38,5.9-3.41,5.9h-29.29h-29.29
	c-3.03,0-4.92-3.28-3.41-5.9l14.65-25.37L2117.78,45.35z"/>
<path class="st2" d="M2116.66,60.26c2.05-3.56,7.17-3.56,9.22,0l19.83,34.44l19.82,34.44c2.05,3.56-0.51,8.01-4.61,8.01h-39.65
	h-39.65c-4.1,0-6.66-4.45-4.61-8.01l19.83-34.44L2116.66,60.26z"/>
<path class="st2" d="M2115.19,80.08c2.68-4.64,9.37-4.64,12.05,0l25.91,44.88l25.91,44.88c2.68,4.64-0.67,10.44-6.03,10.44h-51.82
	h-51.82c-5.36,0-8.7-5.8-6.03-10.44l25.91-44.88L2115.19,80.08z"/>
<path class="st4" d="M2134.21,79.75L2134.21,79.75c-1.93,0.96-4.28,0.18-5.24-1.75l-6.57-13.17c-0.96-1.93-0.18-4.28,1.75-5.24v0
	c1.93-0.96,4.28-0.18,5.24,1.75l6.57,13.17C2136.92,76.44,2136.14,78.78,2134.21,79.75z"/>
<path class="st3" d="M2111.7,199.82L2111.7,199.82c-0.89,0-1.61-0.72-1.61-1.61v-10.58c0-0.89,0.72-1.61,1.61-1.61l0,0
	c0.89,0,1.61,0.72,1.61,1.61v10.58C2113.31,199.1,2112.59,199.82,2111.7,199.82z"/>
<path class="st3" d="M2097.9,206.26L2097.9,206.26c-0.89,0-1.61-0.72-1.61-1.61v-10.36c0-0.89,0.72-1.61,1.61-1.61l0,0
	c0.89,0,1.61,0.72,1.61,1.61v10.36C2099.51,205.54,2098.79,206.26,2097.9,206.26z"/>
<path class="st3" d="M2106.64,218.67L2106.64,218.67c-0.89,0-1.61-0.72-1.61-1.61v-10.58c0-0.89,0.72-1.61,1.61-1.61l0,0
	c0.89,0,1.61,0.72,1.61,1.61v10.58C2108.25,217.95,2107.53,218.67,2106.64,218.67z"/>
<path class="st0" d="M2186.53,232.27H2181c-4.05,0-7.33-3.28-7.33-7.33v-31.65c0-4.05,3.28-7.33,7.33-7.33h5.52
	c4.05,0,7.33,3.28,7.33,7.33v31.65C2193.86,228.99,2190.58,232.27,2186.53,232.27z"/>
<g>
	<path class="st1" d="M2180.85,82.28c1.31-2.26,4.6-2.26,5.92,0l12.72,21.86l12.72,21.86c1.31,2.26-0.33,5.08-2.96,5.08h-25.44
		h-25.44c-2.63,0-4.27-2.82-2.96-5.08l12.72-21.86L2180.85,82.28z"/>
	<path class="st1" d="M2179.87,95.12c1.78-3.07,6.23-3.07,8.01,0l17.22,29.68l17.22,29.68c1.78,3.07-0.45,6.9-4,6.9h-34.44h-34.44
		c-3.56,0-5.78-3.83-4-6.9l17.22-29.68L2179.87,95.12z"/>
	<path class="st1" d="M2178.6,109.92c2.33-4,8.14-4,10.47,0l22.5,38.67l22.5,38.67c2.33,4-0.58,8.99-5.23,8.99h-45h-45
		c-4.65,0-7.56-5-5.23-8.99l22.5-38.67L2178.6,109.92z"/>
</g>
<path class="st2" d="M2192.95,100.65c1.07-1.86,3.75-1.86,4.82,0l10.37,17.96l10.37,17.96c1.07,1.86-0.27,4.18-2.41,4.18h-20.74
	h-20.74c-2.14,0-3.48-2.32-2.41-4.18l10.37-17.96L2192.95,100.65z"/>
<path class="st2" d="M2192.16,111.21c1.45-2.52,5.08-2.52,6.53,0l14.03,24.38l14.03,24.38c1.45,2.52-0.36,5.67-3.26,5.67h-28.07
	h-28.07c-2.9,0-4.71-3.15-3.26-5.67l14.03-24.38L2192.16,111.21z"/>
<path class="st2" d="M2191.12,125.24c1.9-3.28,6.64-3.28,8.53,0l18.34,31.77l18.34,31.77c1.9,3.28-0.47,7.39-4.27,7.39h-36.68
	h-36.68c-3.79,0-6.16-4.1-4.27-7.39l18.34-31.77L2191.12,125.24z"/>
<path class="st4" d="M2204.58,125L2204.58,125c-1.37,0.68-3.03,0.13-3.71-1.24l-4.65-9.32c-0.68-1.37-0.13-3.03,1.24-3.71l0,0
	c1.37-0.68,3.03-0.13,3.71,1.24l4.65,9.32C2206.5,122.66,2205.95,124.32,2204.58,125z"/>
<path class="st3" d="M2188.65,210L2188.65,210c-0.63,0-1.14-0.51-1.14-1.14v-7.49c0-0.63,0.51-1.14,1.14-1.14l0,0
	c0.63,0,1.14,0.51,1.14,1.14v7.49C2189.79,209.49,2189.28,210,2188.65,210z"/>
<path class="st3" d="M2178.88,214.56L2178.88,214.56c-0.63,0-1.14-0.51-1.14-1.14v-7.33c0-0.63,0.51-1.14,1.14-1.14l0,0
	c0.63,0,1.14,0.51,1.14,1.14v7.33C2180.02,214.05,2179.51,214.56,2178.88,214.56z"/>
<path class="st3" d="M2185.07,223.35L2185.07,223.35c-0.63,0-1.14-0.51-1.14-1.14v-7.49c0-0.63,0.51-1.14,1.14-1.14l0,0
	c0.63,0,1.14,0.51,1.14,1.14v7.49C2186.21,222.84,2185.7,223.35,2185.07,223.35z"/>
<path class="st4" d="M2299.21,83.75L2299.21,83.75c-1.93,0.96-4.28,0.18-5.24-1.75l-6.57-13.17c-0.96-1.93-0.18-4.28,1.75-5.24v0
	c1.93-0.96,4.28-0.18,5.24,1.75l6.57,13.17C2301.92,80.44,2301.14,82.78,2299.21,83.75z"/>
<g>
	<path class="st0" d="M2360.73,234.27h-13.85c-4.05,0-7.33-3.28-7.33-7.33v-50.76c0-4.05,3.28-7.33,7.33-7.33h13.85
		c4.05,0,7.33,3.28,7.33,7.33v50.76C2368.06,230.99,2364.78,234.27,2360.73,234.27z"/>
	<g>
		<path class="st1" d="M2349.68,22.39c1.86-3.19,6.5-3.19,8.36,0L2376,53.27l17.97,30.88c1.86,3.19-0.46,7.18-4.18,7.18h-35.94
			h-35.94c-3.71,0-6.04-3.99-4.18-7.18l17.97-30.88L2349.68,22.39z"/>
		<path class="st1" d="M2348.31,40.54c2.51-4.33,8.8-4.33,11.31,0l24.32,41.92l24.32,41.92c2.51,4.33-0.63,9.75-5.66,9.75h-48.64
			h-48.64c-5.03,0-8.17-5.42-5.66-9.75l24.32-41.92L2348.31,40.54z"/>
		<path class="st1" d="M2346.5,61.45c3.29-5.65,11.5-5.65,14.78,0l31.79,54.62l31.79,54.62c3.29,5.65-0.82,12.7-7.39,12.7h-63.57
			h-63.57c-6.57,0-10.68-7.06-7.39-12.7l31.79-54.62L2346.5,61.45z"/>
	</g>
	<path class="st2" d="M2366.78,48.35c1.51-2.62,5.3-2.62,6.81,0l14.65,25.37l14.65,25.37c1.51,2.62-0.38,5.9-3.41,5.9h-29.29h-29.29
		c-3.03,0-4.92-3.28-3.41-5.9l14.65-25.37L2366.78,48.35z"/>
	<path class="st2" d="M2365.66,63.26c2.05-3.56,7.17-3.56,9.22,0l19.83,34.44l19.82,34.44c2.05,3.56-0.51,8.01-4.61,8.01h-39.65
		h-39.65c-4.1,0-6.66-4.45-4.61-8.01l19.83-34.44L2365.66,63.26z"/>
	<path class="st2" d="M2364.19,83.08c2.68-4.64,9.37-4.64,12.05,0l25.91,44.88l25.91,44.88c2.68,4.64-0.67,10.44-6.03,10.44h-51.82
		h-51.82c-5.36,0-8.7-5.8-6.03-10.44l25.91-44.88L2364.19,83.08z"/>
	<path class="st4" d="M2383.21,82.75L2383.21,82.75c-1.93,0.96-4.28,0.18-5.24-1.75l-6.57-13.17c-0.96-1.93-0.18-4.28,1.75-5.24v0
		c1.93-0.96,4.28-0.18,5.24,1.75l6.57,13.17C2385.92,79.44,2385.14,81.78,2383.21,82.75z"/>
	<path class="st3" d="M2360.7,202.82L2360.7,202.82c-0.89,0-1.61-0.72-1.61-1.61v-10.58c0-0.89,0.72-1.61,1.61-1.61l0,0
		c0.89,0,1.61,0.72,1.61,1.61v10.58C2362.31,202.1,2361.59,202.82,2360.7,202.82z"/>
	<path class="st3" d="M2346.9,209.26L2346.9,209.26c-0.89,0-1.61-0.72-1.61-1.61v-10.36c0-0.89,0.72-1.61,1.61-1.61l0,0
		c0.89,0,1.61,0.72,1.61,1.61v10.36C2348.51,208.54,2347.79,209.26,2346.9,209.26z"/>
	<path class="st3" d="M2355.64,221.67L2355.64,221.67c-0.89,0-1.61-0.72-1.61-1.61v-10.58c0-0.89,0.72-1.61,1.61-1.61l0,0
		c0.89,0,1.61,0.72,1.61,1.61v10.58C2357.25,220.95,2356.53,221.67,2355.64,221.67z"/>
</g>
<g>
	<path class="st0" d="M2300.74,232.27h-7.55c-2.53,0-4.57-2.05-4.57-4.57v-22.33c0-2.53,2.05-4.57,4.57-4.57h7.55
		c2.53,0,4.57,2.05,4.57,4.57v22.33C2305.31,230.22,2303.26,232.27,2300.74,232.27z"/>
	<g>
		<path class="st1" d="M2294.54,130.33c1.09-1.54,3.81-1.54,4.89,0l10.52,14.86l10.52,14.86c1.09,1.54-0.27,3.45-2.45,3.45h-21.05
			h-21.05c-2.18,0-3.53-1.92-2.45-3.45l10.52-14.86L2294.54,130.33z"/>
		<path class="st1" d="M2293.74,139.06c1.47-2.08,5.15-2.08,6.62,0l14.24,20.17l14.24,20.17c1.47,2.08-0.37,4.69-3.31,4.69h-28.49
			h-28.49c-2.94,0-4.78-2.61-3.31-4.69l14.24-20.17L2293.74,139.06z"/>
		<path class="st1" d="M2292.68,149.12c1.92-2.72,6.73-2.72,8.66,0l18.62,26.28l18.62,26.28c1.92,2.72-0.48,6.11-4.33,6.11h-37.23
			h-37.23c-3.85,0-6.25-3.4-4.33-6.11l18.62-26.28L2292.68,149.12z"/>
	</g>
	<path class="st2" d="M2304.56,142.81c0.89-1.26,3.1-1.26,3.99,0l8.58,12.21l8.58,12.21c0.89,1.26-0.22,2.84-1.99,2.84h-17.16
		h-17.16c-1.77,0-2.88-1.58-1.99-2.84l8.58-12.21L2304.56,142.81z"/>
	<path class="st2" d="M2303.9,149.99c1.2-1.71,4.2-1.71,5.4,0l11.61,16.57l11.61,16.57c1.2,1.71-0.3,3.85-2.7,3.85h-23.22h-23.22
		c-2.4,0-3.9-2.14-2.7-3.85l11.61-16.57L2303.9,149.99z"/>
	<path class="st2" d="M2303.04,159.53c1.57-2.23,5.49-2.23,7.06,0l15.17,21.59l15.17,21.59c1.57,2.23-0.39,5.02-3.53,5.02h-30.35
		h-30.35c-3.14,0-5.1-2.79-3.53-5.02l15.17-21.59L2303.04,159.53z"/>
	<path class="st4" d="M2314.18,159.36L2314.18,159.36c-1.13,0.46-2.51,0.09-3.07-0.84l-3.85-6.34c-0.56-0.93-0.1-2.06,1.03-2.52l0,0
		c1.13-0.46,2.51-0.09,3.07,0.84l3.85,6.34C2315.77,157.77,2315.31,158.9,2314.18,159.36z"/>
	<path class="st3" d="M2301.43,217.14h-0.85c-0.29,0-0.52-0.23-0.52-0.52v-5.61c0-0.29,0.23-0.52,0.52-0.52h0.85
		c0.29,0,0.52,0.23,0.52,0.52v5.61C2301.94,216.91,2301.71,217.14,2301.43,217.14z"/>
	<path class="st3" d="M2293.35,220.24h-0.85c-0.29,0-0.52-0.23-0.52-0.52v-5.5c0-0.29,0.23-0.52,0.52-0.52h0.85
		c0.29,0,0.52,0.23,0.52,0.52v5.5C2293.86,220,2293.63,220.24,2293.35,220.24z"/>
	<path class="st3" d="M2298.46,226.21h-0.85c-0.29,0-0.52-0.23-0.52-0.52v-5.61c0-0.29,0.23-0.52,0.52-0.52h0.85
		c0.29,0,0.52,0.23,0.52,0.52v5.61C2298.98,225.98,2298.75,226.21,2298.46,226.21z"/>
</g>
<g>
	<path class="st0" d="M2683.73,232.27h-13.85c-4.05,0-7.33-3.28-7.33-7.33v-50.76c0-4.05,3.28-7.33,7.33-7.33h13.85
		c4.05,0,7.33,3.28,7.33,7.33v50.76C2691.06,228.99,2687.78,232.27,2683.73,232.27z"/>
	<g>
		<path class="st1" d="M2672.68,20.39c1.86-3.19,6.5-3.19,8.36,0L2699,51.27l17.97,30.88c1.86,3.19-0.46,7.18-4.18,7.18h-35.94
			h-35.94c-3.71,0-6.04-3.99-4.18-7.18l17.97-30.88L2672.68,20.39z"/>
		<path class="st1" d="M2671.31,38.54c2.51-4.33,8.8-4.33,11.31,0l24.32,41.92l24.32,41.92c2.51,4.33-0.63,9.75-5.66,9.75h-48.64
			h-48.64c-5.03,0-8.17-5.42-5.66-9.75l24.32-41.92L2671.31,38.54z"/>
		<path class="st1" d="M2669.5,59.45c3.29-5.65,11.5-5.65,14.78,0l31.79,54.62l31.79,54.62c3.29,5.65-0.82,12.7-7.39,12.7h-63.57
			h-63.57c-6.57,0-10.68-7.06-7.39-12.7l31.79-54.62L2669.5,59.45z"/>
	</g>
	<path class="st2" d="M2689.78,46.35c1.51-2.62,5.3-2.62,6.81,0l14.65,25.37l14.65,25.37c1.51,2.62-0.38,5.9-3.41,5.9h-29.29h-29.29
		c-3.03,0-4.92-3.28-3.41-5.9l14.65-25.37L2689.78,46.35z"/>
	<path class="st2" d="M2688.66,61.26c2.05-3.56,7.17-3.56,9.22,0l19.83,34.44l19.82,34.44c2.05,3.56-0.51,8.01-4.61,8.01h-39.65
		h-39.65c-4.1,0-6.66-4.45-4.61-8.01l19.83-34.44L2688.66,61.26z"/>
	<path class="st2" d="M2687.19,81.08c2.68-4.64,9.37-4.64,12.05,0l25.91,44.88l25.91,44.88c2.68,4.64-0.67,10.44-6.03,10.44h-51.82
		h-51.82c-5.36,0-8.7-5.8-6.03-10.44l25.91-44.88L2687.19,81.08z"/>
	<path class="st3" d="M2683.7,200.82L2683.7,200.82c-0.89,0-1.61-0.72-1.61-1.61v-10.58c0-0.89,0.72-1.61,1.61-1.61l0,0
		c0.89,0,1.61,0.72,1.61,1.61v10.58C2685.31,200.1,2684.59,200.82,2683.7,200.82z"/>
	<path class="st3" d="M2669.9,207.26L2669.9,207.26c-0.89,0-1.61-0.72-1.61-1.61v-10.36c0-0.89,0.72-1.61,1.61-1.61l0,0
		c0.89,0,1.61,0.72,1.61,1.61v10.36C2671.51,206.54,2670.79,207.26,2669.9,207.26z"/>
	<path class="st3" d="M2678.64,219.67L2678.64,219.67c-0.89,0-1.61-0.72-1.61-1.61v-10.58c0-0.89,0.72-1.61,1.61-1.61l0,0
		c0.89,0,1.61,0.72,1.61,1.61v10.58C2680.25,218.95,2679.53,219.67,2678.64,219.67z"/>
</g>
<path class="st0" d="M2519.73,231.27h-13.85c-4.05,0-7.33-3.28-7.33-7.33v-50.76c0-4.05,3.28-7.33,7.33-7.33h13.85
	c4.05,0,7.33,3.28,7.33,7.33v50.76C2527.06,227.99,2523.78,231.27,2519.73,231.27z"/>
<g>
	<path class="st1" d="M2508.68,19.39c1.86-3.19,6.5-3.19,8.36,0L2535,50.27l17.97,30.88c1.86,3.19-0.46,7.18-4.18,7.18h-35.94
		h-35.94c-3.71,0-6.04-3.99-4.18-7.18l17.97-30.88L2508.68,19.39z"/>
	<path class="st1" d="M2507.31,37.54c2.51-4.33,8.8-4.33,11.31,0l24.32,41.92l24.32,41.92c2.51,4.33-0.63,9.75-5.66,9.75h-48.64
		h-48.64c-5.03,0-8.17-5.42-5.66-9.75l24.32-41.92L2507.31,37.54z"/>
	<path class="st1" d="M2505.5,58.45c3.29-5.65,11.5-5.65,14.78,0l31.79,54.62l31.79,54.62c3.29,5.65-0.82,12.7-7.39,12.7h-63.57
		h-63.57c-6.57,0-10.68-7.06-7.39-12.7l31.79-54.62L2505.5,58.45z"/>
</g>
<path class="st2" d="M2525.78,45.35c1.51-2.62,5.3-2.62,6.81,0l14.65,25.37l14.65,25.37c1.51,2.62-0.38,5.9-3.41,5.9h-29.29h-29.29
	c-3.03,0-4.92-3.28-3.41-5.9l14.65-25.37L2525.78,45.35z"/>
<path class="st2" d="M2524.66,60.26c2.05-3.56,7.17-3.56,9.22,0l19.83,34.44l19.82,34.44c2.05,3.56-0.51,8.01-4.61,8.01h-39.65
	h-39.65c-4.1,0-6.66-4.45-4.61-8.01l19.83-34.44L2524.66,60.26z"/>
<path class="st2" d="M2523.19,80.08c2.68-4.64,9.37-4.64,12.05,0l25.91,44.88l25.91,44.88c2.68,4.64-0.67,10.44-6.03,10.44h-51.82
	h-51.82c-5.36,0-8.7-5.8-6.03-10.44l25.91-44.88L2523.19,80.08z"/>
<path class="st4" d="M2542.21,79.75L2542.21,79.75c-1.93,0.96-4.28,0.18-5.24-1.75l-6.57-13.17c-0.96-1.93-0.18-4.28,1.75-5.24v0
	c1.93-0.96,4.28-0.18,5.24,1.75l6.57,13.17C2544.92,76.44,2544.14,78.78,2542.21,79.75z"/>
<path class="st3" d="M2519.7,199.82L2519.7,199.82c-0.89,0-1.61-0.72-1.61-1.61v-10.58c0-0.89,0.72-1.61,1.61-1.61l0,0
	c0.89,0,1.61,0.72,1.61,1.61v10.58C2521.31,199.1,2520.59,199.82,2519.7,199.82z"/>
<path class="st3" d="M2505.9,206.26L2505.9,206.26c-0.89,0-1.61-0.72-1.61-1.61v-10.36c0-0.89,0.72-1.61,1.61-1.61l0,0
	c0.89,0,1.61,0.72,1.61,1.61v10.36C2507.51,205.54,2506.79,206.26,2505.9,206.26z"/>
<path class="st3" d="M2514.64,218.67L2514.64,218.67c-0.89,0-1.61-0.72-1.61-1.61v-10.58c0-0.89,0.72-1.61,1.61-1.61l0,0
	c0.89,0,1.61,0.72,1.61,1.61v10.58C2516.25,217.95,2515.53,218.67,2514.64,218.67z"/>
<path class="st0" d="M2594.53,232.27H2589c-4.05,0-7.33-3.28-7.33-7.33v-31.65c0-4.05,3.28-7.33,7.33-7.33h5.52
	c4.05,0,7.33,3.28,7.33,7.33v31.65C2601.86,228.99,2598.58,232.27,2594.53,232.27z"/>
<g>
	<path class="st1" d="M2588.85,82.28c1.31-2.26,4.6-2.26,5.92,0l12.72,21.86l12.72,21.86c1.31,2.26-0.33,5.08-2.96,5.08h-25.44
		h-25.44c-2.63,0-4.27-2.82-2.96-5.08l12.72-21.86L2588.85,82.28z"/>
	<path class="st1" d="M2587.87,95.12c1.78-3.07,6.23-3.07,8.01,0l17.22,29.68l17.22,29.68c1.78,3.07-0.45,6.9-4,6.9h-34.44h-34.44
		c-3.56,0-5.78-3.83-4-6.9l17.22-29.68L2587.87,95.12z"/>
	<path class="st1" d="M2586.6,109.92c2.33-4,8.14-4,10.47,0l22.5,38.67l22.5,38.67c2.33,4-0.58,8.99-5.23,8.99h-45h-45
		c-4.65,0-7.56-5-5.23-8.99l22.5-38.67L2586.6,109.92z"/>
</g>
<path class="st2" d="M2600.95,100.65c1.07-1.86,3.75-1.86,4.82,0l10.37,17.96l10.37,17.96c1.07,1.86-0.27,4.18-2.41,4.18h-20.74
	h-20.74c-2.14,0-3.48-2.32-2.41-4.18l10.37-17.96L2600.95,100.65z"/>
<path class="st2" d="M2600.16,111.21c1.45-2.52,5.08-2.52,6.53,0l14.03,24.38l14.03,24.38c1.45,2.52-0.36,5.67-3.26,5.67h-28.07
	h-28.07c-2.9,0-4.71-3.15-3.26-5.67l14.03-24.38L2600.16,111.21z"/>
<path class="st2" d="M2599.12,125.24c1.9-3.28,6.64-3.28,8.53,0l18.34,31.77l18.34,31.77c1.9,3.28-0.47,7.39-4.27,7.39h-36.68
	h-36.68c-3.79,0-6.16-4.1-4.27-7.39l18.34-31.77L2599.12,125.24z"/>
<path class="st4" d="M2612.58,125L2612.58,125c-1.37,0.68-3.03,0.13-3.71-1.24l-4.65-9.32c-0.68-1.37-0.13-3.03,1.24-3.71l0,0
	c1.37-0.68,3.03-0.13,3.71,1.24l4.65,9.32C2614.5,122.66,2613.95,124.32,2612.58,125z"/>
<path class="st3" d="M2596.65,210L2596.65,210c-0.63,0-1.14-0.51-1.14-1.14v-7.49c0-0.63,0.51-1.14,1.14-1.14l0,0
	c0.63,0,1.14,0.51,1.14,1.14v7.49C2597.79,209.49,2597.28,210,2596.65,210z"/>
<path class="st3" d="M2586.88,214.56L2586.88,214.56c-0.63,0-1.14-0.51-1.14-1.14v-7.33c0-0.63,0.51-1.14,1.14-1.14l0,0
	c0.63,0,1.14,0.51,1.14,1.14v7.33C2588.02,214.05,2587.51,214.56,2586.88,214.56z"/>
<path class="st3" d="M2593.07,223.35L2593.07,223.35c-0.63,0-1.14-0.51-1.14-1.14v-7.49c0-0.63,0.51-1.14,1.14-1.14l0,0
	c0.63,0,1.14,0.51,1.14,1.14v7.49C2594.21,222.84,2593.7,223.35,2593.07,223.35z"/>
<path class="st4" d="M2707.21,83.75L2707.21,83.75c-1.93,0.96-4.28,0.18-5.24-1.75l-6.57-13.17c-0.96-1.93-0.18-4.28,1.75-5.24v0
	c1.93-0.96,4.28-0.18,5.24,1.75l6.57,13.17C2709.92,80.44,2709.14,82.78,2707.21,83.75z"/>
<g>
	<path class="st0" d="M2768.73,234.27h-13.85c-4.05,0-7.33-3.28-7.33-7.33v-50.76c0-4.05,3.28-7.33,7.33-7.33h13.85
		c4.05,0,7.33,3.28,7.33,7.33v50.76C2776.06,230.99,2772.78,234.27,2768.73,234.27z"/>
	<g>
		<path class="st1" d="M2757.68,22.39c1.86-3.19,6.5-3.19,8.36,0L2784,53.27l17.97,30.88c1.86,3.19-0.46,7.18-4.18,7.18h-35.94
			h-35.94c-3.71,0-6.04-3.99-4.18-7.18l17.97-30.88L2757.68,22.39z"/>
		<path class="st1" d="M2756.31,40.54c2.51-4.33,8.8-4.33,11.31,0l24.32,41.92l24.32,41.92c2.51,4.33-0.63,9.75-5.66,9.75h-48.64
			h-48.64c-5.03,0-8.17-5.42-5.66-9.75l24.32-41.92L2756.31,40.54z"/>
		<path class="st1" d="M2754.5,61.45c3.29-5.65,11.5-5.65,14.78,0l31.79,54.62l31.79,54.62c3.29,5.65-0.82,12.7-7.39,12.7h-63.57
			h-63.57c-6.57,0-10.68-7.06-7.39-12.7l31.79-54.62L2754.5,61.45z"/>
	</g>
	<path class="st2" d="M2774.78,48.35c1.51-2.62,5.3-2.62,6.81,0l14.65,25.37l14.65,25.37c1.51,2.62-0.38,5.9-3.41,5.9h-29.29h-29.29
		c-3.03,0-4.92-3.28-3.41-5.9l14.65-25.37L2774.78,48.35z"/>
	<path class="st2" d="M2773.66,63.26c2.05-3.56,7.17-3.56,9.22,0l19.83,34.44l19.82,34.44c2.05,3.56-0.51,8.01-4.61,8.01h-39.65
		h-39.65c-4.1,0-6.66-4.45-4.61-8.01l19.83-34.44L2773.66,63.26z"/>
	<path class="st2" d="M2772.19,83.08c2.68-4.64,9.37-4.64,12.05,0l25.91,44.88l25.91,44.88c2.68,4.64-0.67,10.44-6.03,10.44h-51.82
		h-51.82c-5.36,0-8.7-5.8-6.03-10.44l25.91-44.88L2772.19,83.08z"/>
	<path class="st4" d="M2791.21,82.75L2791.21,82.75c-1.93,0.96-4.28,0.18-5.24-1.75l-6.57-13.17c-0.96-1.93-0.18-4.28,1.75-5.24v0
		c1.93-0.96,4.28-0.18,5.24,1.75l6.57,13.17C2793.92,79.44,2793.14,81.78,2791.21,82.75z"/>
	<path class="st3" d="M2768.7,202.82L2768.7,202.82c-0.89,0-1.61-0.72-1.61-1.61v-10.58c0-0.89,0.72-1.61,1.61-1.61l0,0
		c0.89,0,1.61,0.72,1.61,1.61v10.58C2770.31,202.1,2769.59,202.82,2768.7,202.82z"/>
	<path class="st3" d="M2754.9,209.26L2754.9,209.26c-0.89,0-1.61-0.72-1.61-1.61v-10.36c0-0.89,0.72-1.61,1.61-1.61l0,0
		c0.89,0,1.61,0.72,1.61,1.61v10.36C2756.51,208.54,2755.79,209.26,2754.9,209.26z"/>
	<path class="st3" d="M2763.64,221.67L2763.64,221.67c-0.89,0-1.61-0.72-1.61-1.61v-10.58c0-0.89,0.72-1.61,1.61-1.61l0,0
		c0.89,0,1.61,0.72,1.61,1.61v10.58C2765.25,220.95,2764.53,221.67,2763.64,221.67z"/>
</g>
<g>
	<path class="st0" d="M2708.74,232.27h-7.55c-2.53,0-4.57-2.05-4.57-4.57v-22.33c0-2.53,2.05-4.57,4.57-4.57h7.55
		c2.53,0,4.57,2.05,4.57,4.57v22.33C2713.31,230.22,2711.26,232.27,2708.74,232.27z"/>
	<g>
		<path class="st1" d="M2702.54,130.33c1.09-1.54,3.81-1.54,4.89,0l10.52,14.86l10.52,14.86c1.09,1.54-0.27,3.45-2.45,3.45h-21.05
			h-21.05c-2.18,0-3.53-1.92-2.45-3.45l10.52-14.86L2702.54,130.33z"/>
		<path class="st1" d="M2701.74,139.06c1.47-2.08,5.15-2.08,6.62,0l14.24,20.17l14.24,20.17c1.47,2.08-0.37,4.69-3.31,4.69h-28.49
			h-28.49c-2.94,0-4.78-2.61-3.31-4.69l14.24-20.17L2701.74,139.06z"/>
		<path class="st1" d="M2700.68,149.12c1.92-2.72,6.73-2.72,8.66,0l18.62,26.28l18.62,26.28c1.92,2.72-0.48,6.11-4.33,6.11h-37.23
			h-37.23c-3.85,0-6.25-3.4-4.33-6.11l18.62-26.28L2700.68,149.12z"/>
	</g>
	<path class="st2" d="M2712.56,142.81c0.89-1.26,3.1-1.26,3.99,0l8.58,12.21l8.58,12.21c0.89,1.26-0.22,2.84-1.99,2.84h-17.16
		h-17.16c-1.77,0-2.88-1.58-1.99-2.84l8.58-12.21L2712.56,142.81z"/>
	<path class="st2" d="M2711.9,149.99c1.2-1.71,4.2-1.71,5.4,0l11.61,16.57l11.61,16.57c1.2,1.71-0.3,3.85-2.7,3.85h-23.22h-23.22
		c-2.4,0-3.9-2.14-2.7-3.85l11.61-16.57L2711.9,149.99z"/>
	<path class="st2" d="M2711.04,159.53c1.57-2.23,5.49-2.23,7.06,0l15.17,21.59l15.17,21.59c1.57,2.23-0.39,5.02-3.53,5.02h-30.35
		h-30.35c-3.14,0-5.1-2.79-3.53-5.02l15.17-21.59L2711.04,159.53z"/>
	<path class="st4" d="M2722.18,159.36L2722.18,159.36c-1.13,0.46-2.51,0.09-3.07-0.84l-3.85-6.34c-0.56-0.93-0.1-2.06,1.03-2.52l0,0
		c1.13-0.46,2.51-0.09,3.07,0.84l3.85,6.34C2723.77,157.77,2723.31,158.9,2722.18,159.36z"/>
	<path class="st3" d="M2709.43,217.14h-0.85c-0.29,0-0.52-0.23-0.52-0.52v-5.61c0-0.29,0.23-0.52,0.52-0.52h0.85
		c0.29,0,0.52,0.23,0.52,0.52v5.61C2709.94,216.91,2709.71,217.14,2709.43,217.14z"/>
	<path class="st3" d="M2701.35,220.24h-0.85c-0.29,0-0.52-0.23-0.52-0.52v-5.5c0-0.29,0.23-0.52,0.52-0.52h0.85
		c0.29,0,0.52,0.23,0.52,0.52v5.5C2701.86,220,2701.63,220.24,2701.35,220.24z"/>
	<path class="st3" d="M2706.46,226.21h-0.85c-0.29,0-0.52-0.23-0.52-0.52v-5.61c0-0.29,0.23-0.52,0.52-0.52h0.85
		c0.29,0,0.52,0.23,0.52,0.52v5.61C2706.98,225.98,2706.75,226.21,2706.46,226.21z"/>
</g>
<g>
	<path class="st0" d="M656.73,231.27h-13.85c-4.05,0-7.33-3.28-7.33-7.33v-50.76c0-4.05,3.28-7.33,7.33-7.33h13.85
		c4.05,0,7.33,3.28,7.33,7.33v50.76C664.06,227.99,660.78,231.27,656.73,231.27z"/>
	<g>
		<path class="st1" d="M645.68,19.39c1.86-3.19,6.5-3.19,8.36,0L672,50.27l17.97,30.88c1.86,3.19-0.46,7.18-4.18,7.18h-35.94h-35.94
			c-3.71,0-6.04-3.99-4.18-7.18l17.97-30.88L645.68,19.39z"/>
		<path class="st1" d="M644.31,37.54c2.51-4.33,8.8-4.33,11.31,0l24.32,41.92l24.32,41.92c2.51,4.33-0.63,9.75-5.66,9.75h-48.64
			h-48.64c-5.03,0-8.17-5.42-5.66-9.75l24.32-41.92L644.31,37.54z"/>
		<path class="st1" d="M642.5,58.45c3.29-5.65,11.5-5.65,14.78,0l31.79,54.62l31.79,54.62c3.29,5.65-0.82,12.7-7.39,12.7h-63.57
			h-63.57c-6.57,0-10.68-7.06-7.39-12.7l31.79-54.62L642.5,58.45z"/>
	</g>
	<path class="st2" d="M662.78,45.35c1.51-2.62,5.3-2.62,6.81,0l14.65,25.37l14.65,25.37c1.51,2.62-0.38,5.9-3.41,5.9h-29.29h-29.29
		c-3.03,0-4.92-3.28-3.41-5.9l14.65-25.37L662.78,45.35z"/>
	<path class="st2" d="M661.66,60.26c2.05-3.56,7.17-3.56,9.22,0l19.83,34.44l19.83,34.44c2.05,3.56-0.51,8.01-4.61,8.01h-39.65
		h-39.65c-4.1,0-6.66-4.45-4.61-8.01l19.83-34.44L661.66,60.26z"/>
	<path class="st2" d="M660.19,80.08c2.68-4.64,9.37-4.64,12.05,0l25.91,44.88l25.91,44.88c2.68,4.64-0.67,10.44-6.03,10.44h-51.82
		h-51.82c-5.36,0-8.7-5.8-6.03-10.44l25.91-44.88L660.19,80.08z"/>
	<path class="st3" d="M656.7,199.82L656.7,199.82c-0.89,0-1.61-0.72-1.61-1.61v-10.58c0-0.89,0.72-1.61,1.61-1.61l0,0
		c0.89,0,1.61,0.72,1.61,1.61v10.58C658.31,199.1,657.59,199.82,656.7,199.82z"/>
	<path class="st3" d="M642.9,206.26L642.9,206.26c-0.89,0-1.61-0.72-1.61-1.61v-10.36c0-0.89,0.72-1.61,1.61-1.61l0,0
		c0.89,0,1.61,0.72,1.61,1.61v10.36C644.51,205.54,643.79,206.26,642.9,206.26z"/>
	<path class="st3" d="M651.64,218.67L651.64,218.67c-0.89,0-1.61-0.72-1.61-1.61v-10.58c0-0.89,0.72-1.61,1.61-1.61h0
		c0.89,0,1.61,0.72,1.61,1.61v10.58C653.25,217.95,652.53,218.67,651.64,218.67z"/>
</g>
<path class="st0" d="M492.73,230.27h-13.85c-4.05,0-7.33-3.28-7.33-7.33v-50.76c0-4.05,3.28-7.33,7.33-7.33h13.85
	c4.05,0,7.33,3.28,7.33,7.33v50.76C500.06,226.99,496.78,230.27,492.73,230.27z"/>
<g>
	<path class="st1" d="M481.68,18.39c1.86-3.19,6.5-3.19,8.36,0L508,49.27l17.97,30.88c1.86,3.19-0.46,7.18-4.18,7.18h-35.94h-35.94
		c-3.71,0-6.04-3.99-4.18-7.18l17.97-30.88L481.68,18.39z"/>
	<path class="st1" d="M480.31,36.54c2.51-4.33,8.8-4.33,11.31,0l24.32,41.92l24.32,41.92c2.51,4.33-0.63,9.75-5.66,9.75h-48.64
		h-48.64c-5.03,0-8.17-5.42-5.66-9.75l24.32-41.92L480.31,36.54z"/>
	<path class="st1" d="M478.5,57.45c3.29-5.65,11.5-5.65,14.78,0l31.79,54.62l31.79,54.62c3.29,5.65-0.82,12.7-7.39,12.7h-63.57
		h-63.57c-6.57,0-10.68-7.06-7.39-12.7l31.79-54.62L478.5,57.45z"/>
</g>
<path class="st2" d="M498.78,44.35c1.51-2.62,5.3-2.62,6.81,0l14.65,25.37l14.65,25.37c1.51,2.62-0.38,5.9-3.41,5.9h-29.29h-29.29
	c-3.03,0-4.92-3.28-3.41-5.9l14.65-25.37L498.78,44.35z"/>
<path class="st2" d="M497.66,59.26c2.05-3.56,7.17-3.56,9.22,0l19.83,34.44l19.83,34.44c2.05,3.56-0.51,8.01-4.61,8.01h-39.65
	h-39.65c-4.1,0-6.66-4.45-4.61-8.01l19.83-34.44L497.66,59.26z"/>
<path class="st2" d="M496.19,79.08c2.68-4.64,9.37-4.64,12.05,0l25.91,44.88l25.91,44.88c2.68,4.64-0.67,10.44-6.03,10.44h-51.82
	h-51.82c-5.36,0-8.7-5.8-6.03-10.44l25.91-44.88L496.19,79.08z"/>
<path class="st4" d="M515.21,78.75L515.21,78.75c-1.93,0.96-4.28,0.18-5.24-1.75l-6.57-13.17c-0.96-1.93-0.18-4.28,1.75-5.24v0
	c1.93-0.96,4.28-0.18,5.24,1.75l6.57,13.17C517.92,75.44,517.14,77.78,515.21,78.75z"/>
<path class="st3" d="M492.7,198.82L492.7,198.82c-0.89,0-1.61-0.72-1.61-1.61v-10.58c0-0.89,0.72-1.61,1.61-1.61l0,0
	c0.89,0,1.61,0.72,1.61,1.61v10.58C494.31,198.1,493.59,198.82,492.7,198.82z"/>
<path class="st3" d="M478.9,205.26L478.9,205.26c-0.89,0-1.61-0.72-1.61-1.61v-10.36c0-0.89,0.72-1.61,1.61-1.61l0,0
	c0.89,0,1.61,0.72,1.61,1.61v10.36C480.51,204.54,479.79,205.26,478.9,205.26z"/>
<path class="st3" d="M487.64,217.67L487.64,217.67c-0.89,0-1.61-0.72-1.61-1.61v-10.58c0-0.89,0.72-1.61,1.61-1.61l0,0
	c0.89,0,1.61,0.72,1.61,1.61v10.58C489.25,216.95,488.53,217.67,487.64,217.67z"/>
<path class="st0" d="M567.53,231.27H562c-4.05,0-7.33-3.28-7.33-7.33v-31.65c0-4.05,3.28-7.33,7.33-7.33h5.52
	c4.05,0,7.33,3.28,7.33,7.33v31.65C574.86,227.99,571.58,231.27,567.53,231.27z"/>
<g>
	<path class="st1" d="M561.85,81.28c1.31-2.26,4.6-2.26,5.92,0l12.72,21.86l12.72,21.86c1.31,2.26-0.33,5.08-2.96,5.08H564.8h-25.44
		c-2.63,0-4.27-2.82-2.96-5.08l12.72-21.86L561.85,81.28z"/>
	<path class="st1" d="M560.87,94.12c1.78-3.07,6.23-3.07,8.01,0l17.22,29.68l17.22,29.68c1.78,3.07-0.44,6.9-4,6.9h-34.44h-34.44
		c-3.56,0-5.78-3.83-4-6.9l17.22-29.68L560.87,94.12z"/>
	<path class="st1" d="M559.6,108.92c2.33-4,8.14-4,10.47,0l22.5,38.67l22.5,38.67c2.33,4-0.58,8.99-5.23,8.99h-45h-45
		c-4.65,0-7.56-5-5.23-8.99l22.5-38.67L559.6,108.92z"/>
</g>
<path class="st2" d="M573.95,99.65c1.07-1.86,3.75-1.86,4.82,0l10.37,17.96l10.37,17.96c1.07,1.86-0.27,4.18-2.41,4.18h-20.74
	h-20.74c-2.14,0-3.48-2.32-2.41-4.18l10.37-17.96L573.95,99.65z"/>
<path class="st2" d="M573.16,110.21c1.45-2.52,5.08-2.52,6.53,0l14.03,24.38l14.03,24.38c1.45,2.52-0.36,5.67-3.26,5.67h-28.07
	h-28.07c-2.9,0-4.71-3.15-3.26-5.67l14.03-24.38L573.16,110.21z"/>
<path class="st2" d="M572.12,124.24c1.9-3.28,6.64-3.28,8.53,0l18.34,31.77l18.34,31.77c1.9,3.28-0.47,7.39-4.27,7.39h-36.68H539.7
	c-3.79,0-6.16-4.1-4.27-7.39l18.34-31.77L572.12,124.24z"/>
<path class="st4" d="M585.58,124L585.58,124c-1.37,0.68-3.03,0.13-3.71-1.24l-4.65-9.32c-0.68-1.37-0.13-3.03,1.24-3.71l0,0
	c1.37-0.68,3.03-0.13,3.71,1.24l4.65,9.32C587.5,121.66,586.95,123.32,585.58,124z"/>
<path class="st3" d="M569.65,209L569.65,209c-0.63,0-1.14-0.51-1.14-1.14v-7.49c0-0.63,0.51-1.14,1.14-1.14l0,0
	c0.63,0,1.14,0.51,1.14,1.14v7.49C570.79,208.49,570.28,209,569.65,209z"/>
<path class="st3" d="M559.88,213.56L559.88,213.56c-0.63,0-1.14-0.51-1.14-1.14v-7.33c0-0.63,0.51-1.14,1.14-1.14l0,0
	c0.63,0,1.14,0.51,1.14,1.14v7.33C561.02,213.05,560.51,213.56,559.88,213.56z"/>
<path class="st3" d="M566.07,222.35L566.07,222.35c-0.63,0-1.14-0.51-1.14-1.14v-7.49c0-0.63,0.51-1.14,1.14-1.14l0,0
	c0.63,0,1.14,0.51,1.14,1.14v7.49C567.21,221.84,566.7,222.35,566.07,222.35z"/>
<path class="st4" d="M680.21,82.75L680.21,82.75c-1.93,0.96-4.28,0.18-5.24-1.75l-6.57-13.17c-0.96-1.93-0.18-4.28,1.75-5.24v0
	c1.93-0.96,4.28-0.18,5.24,1.75l6.57,13.17C682.92,79.44,682.14,81.78,680.21,82.75z"/>
<g>
	<path class="st0" d="M741.73,233.27h-13.85c-4.05,0-7.33-3.28-7.33-7.33v-50.76c0-4.05,3.28-7.33,7.33-7.33h13.85
		c4.05,0,7.33,3.28,7.33,7.33v50.76C749.06,229.99,745.78,233.27,741.73,233.27z"/>
	<g>
		<path class="st1" d="M730.68,21.39c1.86-3.19,6.5-3.19,8.36,0L757,52.27l17.97,30.88c1.86,3.19-0.46,7.18-4.18,7.18h-35.94h-35.94
			c-3.71,0-6.04-3.99-4.18-7.18l17.97-30.88L730.68,21.39z"/>
		<path class="st1" d="M729.31,39.54c2.51-4.33,8.8-4.33,11.31,0l24.32,41.92l24.32,41.92c2.51,4.33-0.63,9.75-5.66,9.75h-48.64
			h-48.64c-5.03,0-8.17-5.42-5.66-9.75l24.32-41.92L729.31,39.54z"/>
		<path class="st1" d="M727.5,60.45c3.29-5.65,11.5-5.65,14.78,0l31.79,54.62l31.79,54.62c3.29,5.65-0.82,12.7-7.39,12.7h-63.57
			h-63.57c-6.57,0-10.68-7.06-7.39-12.7l31.79-54.62L727.5,60.45z"/>
	</g>
	<path class="st2" d="M747.78,47.35c1.51-2.62,5.3-2.62,6.81,0l14.65,25.37l14.65,25.37c1.51,2.62-0.38,5.9-3.41,5.9h-29.29h-29.29
		c-3.03,0-4.92-3.28-3.41-5.9l14.65-25.37L747.78,47.35z"/>
	<path class="st2" d="M746.66,62.26c2.05-3.56,7.17-3.56,9.22,0l19.83,34.44l19.83,34.44c2.05,3.56-0.51,8.01-4.61,8.01h-39.65
		h-39.65c-4.1,0-6.66-4.45-4.61-8.01l19.83-34.44L746.66,62.26z"/>
	<path class="st2" d="M745.19,82.08c2.68-4.64,9.37-4.64,12.05,0l25.91,44.88l25.91,44.88c2.68,4.64-0.67,10.44-6.03,10.44h-51.82
		h-51.82c-5.36,0-8.7-5.8-6.03-10.44l25.91-44.88L745.19,82.08z"/>
	<path class="st4" d="M764.21,81.75L764.21,81.75c-1.93,0.96-4.28,0.18-5.24-1.75l-6.57-13.17c-0.96-1.93-0.18-4.28,1.75-5.24v0
		c1.93-0.96,4.28-0.18,5.24,1.75l6.57,13.17C766.92,78.44,766.14,80.78,764.21,81.75z"/>
	<path class="st3" d="M741.7,201.82L741.7,201.82c-0.89,0-1.61-0.72-1.61-1.61v-10.58c0-0.89,0.72-1.61,1.61-1.61l0,0
		c0.89,0,1.61,0.72,1.61,1.61v10.58C743.31,201.1,742.59,201.82,741.7,201.82z"/>
	<path class="st3" d="M727.9,208.26L727.9,208.26c-0.89,0-1.61-0.72-1.61-1.61v-10.36c0-0.89,0.72-1.61,1.61-1.61l0,0
		c0.89,0,1.61,0.72,1.61,1.61v10.36C729.51,207.54,728.79,208.26,727.9,208.26z"/>
	<path class="st3" d="M736.64,220.67L736.64,220.67c-0.89,0-1.61-0.72-1.61-1.61v-10.58c0-0.89,0.72-1.61,1.61-1.61h0
		c0.89,0,1.61,0.72,1.61,1.61v10.58C738.25,219.95,737.53,220.67,736.64,220.67z"/>
</g>
<g>
	<path class="st0" d="M681.74,231.27h-7.55c-2.53,0-4.57-2.05-4.57-4.57v-22.33c0-2.53,2.05-4.57,4.57-4.57h7.55
		c2.53,0,4.57,2.05,4.57,4.57v22.33C686.31,229.22,684.26,231.27,681.74,231.27z"/>
	<g>
		<path class="st1" d="M675.54,129.33c1.09-1.54,3.81-1.54,4.89,0l10.52,14.86l10.52,14.86c1.09,1.54-0.27,3.45-2.45,3.45h-21.05
			h-21.05c-2.18,0-3.53-1.92-2.45-3.45l10.52-14.86L675.54,129.33z"/>
		<path class="st1" d="M674.74,138.06c1.47-2.08,5.15-2.08,6.62,0l14.24,20.17l14.24,20.17c1.47,2.08-0.37,4.69-3.31,4.69h-28.49
			h-28.49c-2.94,0-4.78-2.61-3.31-4.69l14.24-20.17L674.74,138.06z"/>
		<path class="st1" d="M673.68,148.12c1.92-2.72,6.73-2.72,8.66,0l18.62,26.28l18.62,26.28c1.92,2.72-0.48,6.11-4.33,6.11h-37.23
			h-37.23c-3.85,0-6.25-3.4-4.33-6.11l18.62-26.28L673.68,148.12z"/>
	</g>
	<path class="st2" d="M685.56,141.81c0.89-1.26,3.1-1.26,3.99,0l8.58,12.21l8.58,12.21c0.89,1.26-0.22,2.84-1.99,2.84h-17.16H670.4
		c-1.77,0-2.88-1.58-1.99-2.84l8.58-12.21L685.56,141.81z"/>
	<path class="st2" d="M684.9,148.99c1.2-1.71,4.2-1.71,5.4,0l11.61,16.57l11.61,16.57c1.2,1.71-0.3,3.85-2.7,3.85H687.6h-23.22
		c-2.4,0-3.9-2.14-2.7-3.85l11.61-16.57L684.9,148.99z"/>
	<path class="st2" d="M684.04,158.53c1.57-2.23,5.49-2.23,7.06,0l15.17,21.59l15.17,21.59c1.57,2.23-0.39,5.02-3.53,5.02h-30.35
		h-30.35c-3.14,0-5.1-2.79-3.53-5.02l15.17-21.59L684.04,158.53z"/>
	<path class="st4" d="M695.18,158.36L695.18,158.36c-1.13,0.46-2.51,0.09-3.07-0.84l-3.85-6.34c-0.56-0.93-0.1-2.06,1.03-2.52l0,0
		c1.13-0.46,2.51-0.09,3.07,0.84l3.85,6.34C696.77,156.77,696.31,157.9,695.18,158.36z"/>
	<path class="st3" d="M682.43,216.14h-0.85c-0.29,0-0.52-0.23-0.52-0.52v-5.61c0-0.29,0.23-0.52,0.52-0.52h0.85
		c0.29,0,0.52,0.23,0.52,0.52v5.61C682.94,215.91,682.71,216.14,682.43,216.14z"/>
	<path class="st3" d="M674.35,219.24h-0.85c-0.29,0-0.52-0.23-0.52-0.52v-5.5c0-0.29,0.23-0.52,0.52-0.52h0.85
		c0.29,0,0.52,0.23,0.52,0.52v5.5C674.86,219,674.63,219.24,674.35,219.24z"/>
	<path class="st3" d="M679.46,225.21h-0.85c-0.29,0-0.52-0.23-0.52-0.52v-5.61c0-0.29,0.23-0.52,0.52-0.52h0.85
		c0.29,0,0.52,0.23,0.52,0.52v5.61C679.98,224.98,679.75,225.21,679.46,225.21z"/>
</g>
<g>
	<path class="st0" d="M1056.73,232.27h-13.85c-4.05,0-7.33-3.28-7.33-7.33v-50.76c0-4.05,3.28-7.33,7.33-7.33h13.85
		c4.05,0,7.33,3.28,7.33,7.33v50.76C1064.06,228.99,1060.78,232.27,1056.73,232.27z"/>
	<g>
		<path class="st1" d="M1045.68,20.39c1.86-3.19,6.5-3.19,8.36,0L1072,51.27l17.97,30.88c1.86,3.19-0.46,7.18-4.18,7.18h-35.94
			h-35.94c-3.71,0-6.04-3.99-4.18-7.18l17.97-30.88L1045.68,20.39z"/>
		<path class="st1" d="M1044.31,38.54c2.51-4.33,8.8-4.33,11.31,0l24.32,41.92l24.32,41.92c2.51,4.33-0.63,9.75-5.66,9.75h-48.64
			h-48.64c-5.03,0-8.17-5.42-5.66-9.75l24.32-41.92L1044.31,38.54z"/>
		<path class="st1" d="M1042.5,59.45c3.29-5.65,11.5-5.65,14.78,0l31.79,54.62l31.79,54.62c3.29,5.65-0.82,12.7-7.39,12.7h-63.57
			h-63.57c-6.57,0-10.68-7.06-7.39-12.7l31.79-54.62L1042.5,59.45z"/>
	</g>
	<path class="st2" d="M1062.78,46.35c1.51-2.62,5.3-2.62,6.81,0l14.65,25.37l14.65,25.37c1.51,2.62-0.38,5.9-3.41,5.9h-29.29h-29.29
		c-3.03,0-4.92-3.28-3.41-5.9l14.65-25.37L1062.78,46.35z"/>
	<path class="st2" d="M1061.66,61.26c2.05-3.56,7.17-3.56,9.22,0l19.83,34.44l19.83,34.44c2.05,3.56-0.51,8.01-4.61,8.01h-39.65
		h-39.65c-4.1,0-6.66-4.45-4.61-8.01l19.83-34.44L1061.66,61.26z"/>
	<path class="st2" d="M1060.19,81.08c2.68-4.64,9.37-4.64,12.05,0l25.91,44.88l25.91,44.88c2.68,4.64-0.67,10.44-6.03,10.44h-51.82
		h-51.82c-5.36,0-8.7-5.8-6.03-10.44l25.91-44.88L1060.19,81.08z"/>
	<path class="st3" d="M1056.7,200.82L1056.7,200.82c-0.89,0-1.61-0.72-1.61-1.61v-10.58c0-0.89,0.72-1.61,1.61-1.61l0,0
		c0.89,0,1.61,0.72,1.61,1.61v10.58C1058.31,200.1,1057.59,200.82,1056.7,200.82z"/>
	<path class="st3" d="M1042.9,207.26L1042.9,207.26c-0.89,0-1.61-0.72-1.61-1.61v-10.36c0-0.89,0.72-1.61,1.61-1.61l0,0
		c0.89,0,1.61,0.72,1.61,1.61v10.36C1044.51,206.54,1043.79,207.26,1042.9,207.26z"/>
	<path class="st3" d="M1051.64,219.67L1051.64,219.67c-0.89,0-1.61-0.72-1.61-1.61v-10.58c0-0.89,0.72-1.61,1.61-1.61l0,0
		c0.89,0,1.61,0.72,1.61,1.61v10.58C1053.25,218.95,1052.53,219.67,1051.64,219.67z"/>
</g>
<path class="st0" d="M892.73,231.27h-13.85c-4.05,0-7.33-3.28-7.33-7.33v-50.76c0-4.05,3.28-7.33,7.33-7.33h13.85
	c4.05,0,7.33,3.28,7.33,7.33v50.76C900.06,227.99,896.78,231.27,892.73,231.27z"/>
<g>
	<path class="st1" d="M881.68,19.39c1.86-3.19,6.5-3.19,8.36,0L908,50.27l17.97,30.88c1.86,3.19-0.46,7.18-4.18,7.18h-35.94h-35.94
		c-3.71,0-6.04-3.99-4.18-7.18l17.97-30.88L881.68,19.39z"/>
	<path class="st1" d="M880.31,37.54c2.51-4.33,8.8-4.33,11.31,0l24.32,41.92l24.32,41.92c2.51,4.33-0.63,9.75-5.66,9.75h-48.64
		h-48.64c-5.03,0-8.17-5.42-5.66-9.75l24.32-41.92L880.31,37.54z"/>
	<path class="st1" d="M878.5,58.45c3.29-5.65,11.5-5.65,14.78,0l31.79,54.62l31.79,54.62c3.29,5.65-0.82,12.7-7.39,12.7h-63.57
		h-63.57c-6.57,0-10.68-7.06-7.39-12.7l31.79-54.62L878.5,58.45z"/>
</g>
<path class="st2" d="M898.78,45.35c1.51-2.62,5.3-2.62,6.81,0l14.65,25.37l14.65,25.37c1.51,2.62-0.38,5.9-3.41,5.9h-29.29h-29.29
	c-3.03,0-4.92-3.28-3.41-5.9l14.65-25.37L898.78,45.35z"/>
<path class="st2" d="M897.66,60.26c2.05-3.56,7.17-3.56,9.22,0l19.83,34.44l19.83,34.44c2.05,3.56-0.51,8.01-4.61,8.01h-39.65
	h-39.65c-4.1,0-6.66-4.45-4.61-8.01l19.83-34.44L897.66,60.26z"/>
<path class="st2" d="M896.19,80.08c2.68-4.64,9.37-4.64,12.05,0l25.91,44.88l25.91,44.88c2.68,4.64-0.67,10.44-6.03,10.44h-51.82
	h-51.82c-5.36,0-8.7-5.8-6.03-10.44l25.91-44.88L896.19,80.08z"/>
<path class="st4" d="M915.21,79.75L915.21,79.75c-1.93,0.96-4.28,0.18-5.24-1.75l-6.57-13.17c-0.96-1.93-0.18-4.28,1.75-5.24v0
	c1.93-0.96,4.28-0.18,5.24,1.75l6.57,13.17C917.92,76.44,917.14,78.78,915.21,79.75z"/>
<path class="st3" d="M892.7,199.82L892.7,199.82c-0.89,0-1.61-0.72-1.61-1.61v-10.58c0-0.89,0.72-1.61,1.61-1.61l0,0
	c0.89,0,1.61,0.72,1.61,1.61v10.58C894.31,199.1,893.59,199.82,892.7,199.82z"/>
<path class="st3" d="M878.9,206.26L878.9,206.26c-0.89,0-1.61-0.72-1.61-1.61v-10.36c0-0.89,0.72-1.61,1.61-1.61l0,0
	c0.89,0,1.61,0.72,1.61,1.61v10.36C880.51,205.54,879.79,206.26,878.9,206.26z"/>
<path class="st3" d="M887.64,218.67L887.64,218.67c-0.89,0-1.61-0.72-1.61-1.61v-10.58c0-0.89,0.72-1.61,1.61-1.61h0
	c0.89,0,1.61,0.72,1.61,1.61v10.58C889.25,217.95,888.53,218.67,887.64,218.67z"/>
<path class="st0" d="M967.53,232.27H962c-4.05,0-7.33-3.28-7.33-7.33v-31.65c0-4.05,3.28-7.33,7.33-7.33h5.52
	c4.05,0,7.33,3.28,7.33,7.33v31.65C974.86,228.99,971.58,232.27,967.53,232.27z"/>
<g>
	<path class="st1" d="M961.85,82.28c1.31-2.26,4.6-2.26,5.92,0l12.72,21.86l12.72,21.86c1.31,2.26-0.33,5.08-2.96,5.08H964.8h-25.44
		c-2.63,0-4.27-2.82-2.96-5.08l12.72-21.86L961.85,82.28z"/>
	<path class="st1" d="M960.87,95.12c1.78-3.07,6.23-3.07,8.01,0l17.22,29.68l17.22,29.68c1.78,3.07-0.44,6.9-4,6.9h-34.44h-34.44
		c-3.56,0-5.78-3.83-4-6.9l17.22-29.68L960.87,95.12z"/>
	<path class="st1" d="M959.6,109.92c2.33-4,8.14-4,10.47,0l22.5,38.67l22.5,38.67c2.33,4-0.58,8.99-5.23,8.99h-45h-45
		c-4.65,0-7.56-5-5.23-8.99l22.5-38.67L959.6,109.92z"/>
</g>
<path class="st2" d="M973.95,100.65c1.07-1.86,3.75-1.86,4.82,0l10.37,17.96l10.37,17.96c1.07,1.86-0.27,4.18-2.41,4.18h-20.74
	h-20.74c-2.14,0-3.48-2.32-2.41-4.18l10.37-17.96L973.95,100.65z"/>
<path class="st2" d="M973.16,111.21c1.45-2.52,5.08-2.52,6.53,0l14.03,24.38l14.03,24.38c1.45,2.52-0.36,5.67-3.26,5.67h-28.07
	h-28.07c-2.9,0-4.71-3.15-3.26-5.67l14.03-24.38L973.16,111.21z"/>
<path class="st2" d="M972.12,125.24c1.9-3.28,6.64-3.28,8.53,0l18.34,31.77l18.34,31.77c1.9,3.28-0.47,7.39-4.27,7.39h-36.68H939.7
	c-3.79,0-6.16-4.1-4.27-7.39l18.34-31.77L972.12,125.24z"/>
<path class="st4" d="M985.58,125L985.58,125c-1.37,0.68-3.03,0.13-3.71-1.24l-4.65-9.32c-0.68-1.37-0.13-3.03,1.24-3.71l0,0
	c1.37-0.68,3.03-0.13,3.71,1.24l4.65,9.32C987.5,122.66,986.95,124.32,985.58,125z"/>
<path class="st3" d="M969.65,210L969.65,210c-0.63,0-1.14-0.51-1.14-1.14v-7.49c0-0.63,0.51-1.14,1.14-1.14l0,0
	c0.63,0,1.14,0.51,1.14,1.14v7.49C970.79,209.49,970.28,210,969.65,210z"/>
<path class="st3" d="M959.88,214.56L959.88,214.56c-0.63,0-1.14-0.51-1.14-1.14v-7.33c0-0.63,0.51-1.14,1.14-1.14l0,0
	c0.63,0,1.14,0.51,1.14,1.14v7.33C961.02,214.05,960.51,214.56,959.88,214.56z"/>
<path class="st3" d="M966.07,223.35L966.07,223.35c-0.63,0-1.14-0.51-1.14-1.14v-7.49c0-0.63,0.51-1.14,1.14-1.14l0,0
	c0.63,0,1.14,0.51,1.14,1.14v7.49C967.21,222.84,966.7,223.35,966.07,223.35z"/>
<path class="st4" d="M1080.21,83.75L1080.21,83.75c-1.93,0.96-4.28,0.18-5.24-1.75l-6.57-13.17c-0.96-1.93-0.18-4.28,1.75-5.24v0
	c1.93-0.96,4.28-0.18,5.24,1.75l6.57,13.17C1082.92,80.44,1082.14,82.78,1080.21,83.75z"/>
<g>
	<path class="st0" d="M1141.73,234.27h-13.85c-4.05,0-7.33-3.28-7.33-7.33v-50.76c0-4.05,3.28-7.33,7.33-7.33h13.85
		c4.05,0,7.33,3.28,7.33,7.33v50.76C1149.06,230.99,1145.78,234.27,1141.73,234.27z"/>
	<g>
		<path class="st1" d="M1130.68,22.39c1.86-3.19,6.5-3.19,8.36,0L1157,53.27l17.97,30.88c1.86,3.19-0.46,7.18-4.18,7.18h-35.94
			h-35.94c-3.71,0-6.04-3.99-4.18-7.18l17.97-30.88L1130.68,22.39z"/>
		<path class="st1" d="M1129.31,40.54c2.51-4.33,8.8-4.33,11.31,0l24.32,41.92l24.32,41.92c2.51,4.33-0.63,9.75-5.66,9.75h-48.64
			h-48.64c-5.03,0-8.17-5.42-5.66-9.75l24.32-41.92L1129.31,40.54z"/>
		<path class="st1" d="M1127.5,61.45c3.29-5.65,11.5-5.65,14.78,0l31.79,54.62l31.79,54.62c3.29,5.65-0.82,12.7-7.39,12.7h-63.57
			h-63.57c-6.57,0-10.68-7.06-7.39-12.7l31.79-54.62L1127.5,61.45z"/>
	</g>
	<path class="st2" d="M1147.78,48.35c1.51-2.62,5.3-2.62,6.81,0l14.65,25.37l14.65,25.37c1.51,2.62-0.38,5.9-3.41,5.9h-29.29h-29.29
		c-3.03,0-4.92-3.28-3.41-5.9l14.65-25.37L1147.78,48.35z"/>
	<path class="st2" d="M1146.66,63.26c2.05-3.56,7.17-3.56,9.22,0l19.83,34.44l19.83,34.44c2.05,3.56-0.51,8.01-4.61,8.01h-39.65
		h-39.65c-4.1,0-6.66-4.45-4.61-8.01l19.83-34.44L1146.66,63.26z"/>
	<path class="st2" d="M1145.19,83.08c2.68-4.64,9.37-4.64,12.05,0l25.91,44.88l25.91,44.88c2.68,4.64-0.67,10.44-6.03,10.44h-51.82
		h-51.82c-5.36,0-8.7-5.8-6.03-10.44l25.91-44.88L1145.19,83.08z"/>
	<path class="st4" d="M1164.21,82.75L1164.21,82.75c-1.93,0.96-4.28,0.18-5.24-1.75l-6.57-13.17c-0.96-1.93-0.18-4.28,1.75-5.24v0
		c1.93-0.96,4.28-0.18,5.24,1.75l6.57,13.17C1166.92,79.44,1166.14,81.78,1164.21,82.75z"/>
	<path class="st3" d="M1141.7,202.82L1141.7,202.82c-0.89,0-1.61-0.72-1.61-1.61v-10.58c0-0.89,0.72-1.61,1.61-1.61l0,0
		c0.89,0,1.61,0.72,1.61,1.61v10.58C1143.31,202.1,1142.59,202.82,1141.7,202.82z"/>
	<path class="st3" d="M1127.9,209.26L1127.9,209.26c-0.89,0-1.61-0.72-1.61-1.61v-10.36c0-0.89,0.72-1.61,1.61-1.61l0,0
		c0.89,0,1.61,0.72,1.61,1.61v10.36C1129.51,208.54,1128.79,209.26,1127.9,209.26z"/>
	<path class="st3" d="M1136.64,221.67L1136.64,221.67c-0.89,0-1.61-0.72-1.61-1.61v-10.58c0-0.89,0.72-1.61,1.61-1.61l0,0
		c0.89,0,1.61,0.72,1.61,1.61v10.58C1138.25,220.95,1137.53,221.67,1136.64,221.67z"/>
</g>
<g>
	<path class="st0" d="M1081.74,232.27h-7.55c-2.53,0-4.57-2.05-4.57-4.57v-22.33c0-2.53,2.05-4.57,4.57-4.57h7.55
		c2.53,0,4.57,2.05,4.57,4.57v22.33C1086.31,230.22,1084.26,232.27,1081.74,232.27z"/>
	<g>
		<path class="st1" d="M1075.54,130.33c1.09-1.54,3.81-1.54,4.89,0l10.52,14.86l10.52,14.86c1.09,1.54-0.27,3.45-2.45,3.45h-21.05
			h-21.05c-2.18,0-3.53-1.92-2.45-3.45l10.52-14.86L1075.54,130.33z"/>
		<path class="st1" d="M1074.74,139.06c1.47-2.08,5.15-2.08,6.62,0l14.24,20.17l14.24,20.17c1.47,2.08-0.37,4.69-3.31,4.69h-28.49
			h-28.49c-2.94,0-4.78-2.61-3.31-4.69l14.24-20.17L1074.74,139.06z"/>
		<path class="st1" d="M1073.68,149.12c1.92-2.72,6.73-2.72,8.66,0l18.62,26.28l18.62,26.28c1.92,2.72-0.48,6.11-4.33,6.11h-37.23
			h-37.23c-3.85,0-6.25-3.4-4.33-6.11l18.62-26.28L1073.68,149.12z"/>
	</g>
	<path class="st2" d="M1085.56,142.81c0.89-1.26,3.1-1.26,3.99,0l8.58,12.21l8.58,12.21c0.89,1.26-0.22,2.84-1.99,2.84h-17.16
		h-17.16c-1.77,0-2.88-1.58-1.99-2.84l8.58-12.21L1085.56,142.81z"/>
	<path class="st2" d="M1084.9,149.99c1.2-1.71,4.2-1.71,5.4,0l11.61,16.57l11.61,16.57c1.2,1.71-0.3,3.85-2.7,3.85h-23.22h-23.22
		c-2.4,0-3.9-2.14-2.7-3.85l11.61-16.57L1084.9,149.99z"/>
	<path class="st2" d="M1084.04,159.53c1.57-2.23,5.49-2.23,7.06,0l15.17,21.59l15.17,21.59c1.57,2.23-0.39,5.02-3.53,5.02h-30.35
		h-30.35c-3.14,0-5.1-2.79-3.53-5.02l15.17-21.59L1084.04,159.53z"/>
	<path class="st4" d="M1095.18,159.36L1095.18,159.36c-1.13,0.46-2.51,0.09-3.07-0.84l-3.85-6.34c-0.56-0.93-0.1-2.06,1.03-2.52l0,0
		c1.13-0.46,2.51-0.09,3.07,0.84l3.85,6.34C1096.77,157.77,1096.31,158.9,1095.18,159.36z"/>
	<path class="st3" d="M1082.43,217.14h-0.85c-0.29,0-0.52-0.23-0.52-0.52v-5.61c0-0.29,0.23-0.52,0.52-0.52h0.85
		c0.29,0,0.52,0.23,0.52,0.52v5.61C1082.94,216.91,1082.71,217.14,1082.43,217.14z"/>
	<path class="st3" d="M1074.35,220.24h-0.85c-0.29,0-0.52-0.23-0.52-0.52v-5.5c0-0.29,0.23-0.52,0.52-0.52h0.85
		c0.29,0,0.52,0.23,0.52,0.52v5.5C1074.86,220,1074.63,220.24,1074.35,220.24z"/>
	<path class="st3" d="M1079.46,226.21h-0.85c-0.29,0-0.52-0.23-0.52-0.52v-5.61c0-0.29,0.23-0.52,0.52-0.52h0.85
		c0.29,0,0.52,0.23,0.52,0.52v5.61C1079.98,225.98,1079.75,226.21,1079.46,226.21z"/>
</g>
<g>
	<path class="st0" d="M1459.73,232.27h-13.85c-4.05,0-7.33-3.28-7.33-7.33v-50.76c0-4.05,3.28-7.33,7.33-7.33h13.85
		c4.05,0,7.33,3.28,7.33,7.33v50.76C1467.06,228.99,1463.78,232.27,1459.73,232.27z"/>
	<g>
		<path class="st1" d="M1448.68,20.39c1.86-3.19,6.5-3.19,8.36,0L1475,51.27l17.97,30.88c1.86,3.19-0.46,7.18-4.18,7.18h-35.94
			h-35.94c-3.71,0-6.04-3.99-4.18-7.18l17.97-30.88L1448.68,20.39z"/>
		<path class="st1" d="M1447.31,38.54c2.51-4.33,8.8-4.33,11.31,0l24.32,41.92l24.32,41.92c2.51,4.33-0.63,9.75-5.66,9.75h-48.64
			h-48.64c-5.03,0-8.17-5.42-5.66-9.75l24.32-41.92L1447.31,38.54z"/>
		<path class="st1" d="M1445.5,59.45c3.29-5.65,11.5-5.65,14.78,0l31.79,54.62l31.79,54.62c3.29,5.65-0.82,12.7-7.39,12.7h-63.57
			h-63.57c-6.57,0-10.68-7.06-7.39-12.7l31.79-54.62L1445.5,59.45z"/>
	</g>
	<path class="st2" d="M1465.78,46.35c1.51-2.62,5.3-2.62,6.81,0l14.65,25.37l14.65,25.37c1.51,2.62-0.38,5.9-3.41,5.9h-29.29h-29.29
		c-3.03,0-4.92-3.28-3.41-5.9l14.65-25.37L1465.78,46.35z"/>
	<path class="st2" d="M1464.66,61.26c2.05-3.56,7.17-3.56,9.22,0l19.83,34.44l19.83,34.44c2.05,3.56-0.51,8.01-4.61,8.01h-39.65
		h-39.65c-4.1,0-6.66-4.45-4.61-8.01l19.83-34.44L1464.66,61.26z"/>
	<path class="st2" d="M1463.19,81.08c2.68-4.64,9.37-4.64,12.05,0l25.91,44.88l25.91,44.88c2.68,4.64-0.67,10.44-6.03,10.44h-51.82
		h-51.82c-5.36,0-8.7-5.8-6.03-10.44l25.91-44.88L1463.19,81.08z"/>
	<path class="st3" d="M1459.7,200.82L1459.7,200.82c-0.89,0-1.61-0.72-1.61-1.61v-10.58c0-0.89,0.72-1.61,1.61-1.61l0,0
		c0.89,0,1.61,0.72,1.61,1.61v10.58C1461.31,200.1,1460.59,200.82,1459.7,200.82z"/>
	<path class="st3" d="M1445.9,207.26L1445.9,207.26c-0.89,0-1.61-0.72-1.61-1.61v-10.36c0-0.89,0.72-1.61,1.61-1.61l0,0
		c0.89,0,1.61,0.72,1.61,1.61v10.36C1447.51,206.54,1446.79,207.26,1445.9,207.26z"/>
	<path class="st3" d="M1454.64,219.67L1454.64,219.67c-0.89,0-1.61-0.72-1.61-1.61v-10.58c0-0.89,0.72-1.61,1.61-1.61l0,0
		c0.89,0,1.61,0.72,1.61,1.61v10.58C1456.25,218.95,1455.53,219.67,1454.64,219.67z"/>
</g>
<path class="st0" d="M1295.73,231.27h-13.85c-4.05,0-7.33-3.28-7.33-7.33v-50.76c0-4.05,3.28-7.33,7.33-7.33h13.85
	c4.05,0,7.33,3.28,7.33,7.33v50.76C1303.06,227.99,1299.78,231.27,1295.73,231.27z"/>
<g>
	<path class="st1" d="M1284.68,19.39c1.86-3.19,6.5-3.19,8.36,0L1311,50.27l17.97,30.88c1.86,3.19-0.46,7.18-4.18,7.18h-35.94
		h-35.94c-3.71,0-6.04-3.99-4.18-7.18l17.97-30.88L1284.68,19.39z"/>
	<path class="st1" d="M1283.31,37.54c2.51-4.33,8.8-4.33,11.31,0l24.32,41.92l24.32,41.92c2.51,4.33-0.63,9.75-5.66,9.75h-48.64
		h-48.64c-5.03,0-8.17-5.42-5.66-9.75l24.32-41.92L1283.31,37.54z"/>
	<path class="st1" d="M1281.5,58.45c3.29-5.65,11.5-5.65,14.78,0l31.79,54.62l31.79,54.62c3.29,5.65-0.82,12.7-7.39,12.7h-63.57
		h-63.57c-6.57,0-10.68-7.06-7.39-12.7l31.79-54.62L1281.5,58.45z"/>
</g>
<path class="st2" d="M1301.78,45.35c1.51-2.62,5.3-2.62,6.81,0l14.65,25.37l14.65,25.37c1.51,2.62-0.38,5.9-3.41,5.9h-29.29h-29.29
	c-3.03,0-4.92-3.28-3.41-5.9l14.65-25.37L1301.78,45.35z"/>
<path class="st2" d="M1300.66,60.26c2.05-3.56,7.17-3.56,9.22,0l19.83,34.44l19.83,34.44c2.05,3.56-0.51,8.01-4.61,8.01h-39.65
	h-39.65c-4.1,0-6.66-4.45-4.61-8.01l19.83-34.44L1300.66,60.26z"/>
<path class="st2" d="M1299.19,80.08c2.68-4.64,9.37-4.64,12.05,0l25.91,44.88l25.91,44.88c2.68,4.64-0.67,10.44-6.03,10.44h-51.82
	h-51.82c-5.36,0-8.7-5.8-6.03-10.44l25.91-44.88L1299.19,80.08z"/>
<path class="st4" d="M1318.21,79.75L1318.21,79.75c-1.93,0.96-4.28,0.18-5.24-1.75l-6.57-13.17c-0.96-1.93-0.18-4.28,1.75-5.24v0
	c1.93-0.96,4.28-0.18,5.24,1.75l6.57,13.17C1320.92,76.44,1320.14,78.78,1318.21,79.75z"/>
<path class="st3" d="M1295.7,199.82L1295.7,199.82c-0.89,0-1.61-0.72-1.61-1.61v-10.58c0-0.89,0.72-1.61,1.61-1.61l0,0
	c0.89,0,1.61,0.72,1.61,1.61v10.58C1297.31,199.1,1296.59,199.82,1295.7,199.82z"/>
<path class="st3" d="M1281.9,206.26L1281.9,206.26c-0.89,0-1.61-0.72-1.61-1.61v-10.36c0-0.89,0.72-1.61,1.61-1.61l0,0
	c0.89,0,1.61,0.72,1.61,1.61v10.36C1283.51,205.54,1282.79,206.26,1281.9,206.26z"/>
<path class="st3" d="M1290.64,218.67L1290.64,218.67c-0.89,0-1.61-0.72-1.61-1.61v-10.58c0-0.89,0.72-1.61,1.61-1.61l0,0
	c0.89,0,1.61,0.72,1.61,1.61v10.58C1292.25,217.95,1291.53,218.67,1290.64,218.67z"/>
<path class="st0" d="M1370.53,232.27H1365c-4.05,0-7.33-3.28-7.33-7.33v-31.65c0-4.05,3.28-7.33,7.33-7.33h5.52
	c4.05,0,7.33,3.28,7.33,7.33v31.65C1377.86,228.99,1374.58,232.27,1370.53,232.27z"/>
<g>
	<path class="st1" d="M1364.85,82.28c1.31-2.26,4.6-2.26,5.92,0l12.72,21.86l12.72,21.86c1.31,2.26-0.33,5.08-2.96,5.08h-25.44
		h-25.44c-2.63,0-4.27-2.82-2.96-5.08l12.72-21.86L1364.85,82.28z"/>
	<path class="st1" d="M1363.87,95.12c1.78-3.07,6.23-3.07,8.01,0l17.22,29.68l17.22,29.68c1.78,3.07-0.44,6.9-4,6.9h-34.44h-34.44
		c-3.56,0-5.78-3.83-4-6.9l17.22-29.68L1363.87,95.12z"/>
	<path class="st1" d="M1362.6,109.92c2.33-4,8.14-4,10.47,0l22.5,38.67l22.5,38.67c2.33,4-0.58,8.99-5.23,8.99h-45h-45
		c-4.65,0-7.56-5-5.23-8.99l22.5-38.67L1362.6,109.92z"/>
</g>
<path class="st2" d="M1376.95,100.65c1.07-1.86,3.75-1.86,4.82,0l10.37,17.96l10.37,17.96c1.07,1.86-0.27,4.18-2.41,4.18h-20.74
	h-20.74c-2.14,0-3.48-2.32-2.41-4.18l10.37-17.96L1376.95,100.65z"/>
<path class="st2" d="M1375.12,125.24c1.9-3.28,6.64-3.28,8.53,0l18.34,31.77l18.34,31.77c1.9,3.28-0.47,7.39-4.27,7.39h-36.68
	h-36.68c-3.79,0-6.16-4.1-4.27-7.39l18.34-31.77L1375.12,125.24z"/>
<path class="st4" d="M1388.58,125L1388.58,125c-1.37,0.68-3.03,0.13-3.71-1.24l-4.65-9.32c-0.68-1.37-0.13-3.03,1.24-3.71l0,0
	c1.37-0.68,3.03-0.13,3.71,1.24l4.65,9.32C1390.5,122.66,1389.95,124.32,1388.58,125z"/>
<path class="st3" d="M1372.65,210L1372.65,210c-0.63,0-1.14-0.51-1.14-1.14v-7.49c0-0.63,0.51-1.14,1.14-1.14l0,0
	c0.63,0,1.14,0.51,1.14,1.14v7.49C1373.79,209.49,1373.28,210,1372.65,210z"/>
<path class="st3" d="M1362.88,214.56L1362.88,214.56c-0.63,0-1.14-0.51-1.14-1.14v-7.33c0-0.63,0.51-1.14,1.14-1.14l0,0
	c0.63,0,1.14,0.51,1.14,1.14v7.33C1364.02,214.05,1363.51,214.56,1362.88,214.56z"/>
<path class="st3" d="M1369.07,223.35L1369.07,223.35c-0.63,0-1.14-0.51-1.14-1.14v-7.49c0-0.63,0.51-1.14,1.14-1.14l0,0
	c0.63,0,1.14,0.51,1.14,1.14v7.49C1370.21,222.84,1369.7,223.35,1369.07,223.35z"/>
<path class="st4" d="M1483.21,83.75L1483.21,83.75c-1.93,0.96-4.28,0.18-5.24-1.75l-6.57-13.17c-0.96-1.93-0.18-4.28,1.75-5.24v0
	c1.93-0.96,4.28-0.18,5.24,1.75l6.57,13.17C1485.92,80.44,1485.14,82.78,1483.21,83.75z"/>
<g>
	<path class="st0" d="M1544.73,234.27h-13.85c-4.05,0-7.33-3.28-7.33-7.33v-50.76c0-4.05,3.28-7.33,7.33-7.33h13.85
		c4.05,0,7.33,3.28,7.33,7.33v50.76C1552.06,230.99,1548.78,234.27,1544.73,234.27z"/>
	<g>
		<path class="st1" d="M1533.68,22.39c1.86-3.19,6.5-3.19,8.36,0L1560,53.27l17.97,30.88c1.86,3.19-0.46,7.18-4.18,7.18h-35.94
			h-35.94c-3.71,0-6.04-3.99-4.18-7.18l17.97-30.88L1533.68,22.39z"/>
		<path class="st1" d="M1532.31,40.54c2.51-4.33,8.8-4.33,11.31,0l24.32,41.92l24.32,41.92c2.51,4.33-0.63,9.75-5.66,9.75h-48.64
			h-48.64c-5.03,0-8.17-5.42-5.66-9.75l24.32-41.92L1532.31,40.54z"/>
		<path class="st1" d="M1530.5,61.45c3.29-5.65,11.5-5.65,14.78,0l31.79,54.62l31.79,54.62c3.29,5.65-0.82,12.7-7.39,12.7h-63.57
			h-63.57c-6.57,0-10.68-7.06-7.39-12.7l31.79-54.62L1530.5,61.45z"/>
	</g>
	<path class="st2" d="M1550.78,48.35c1.51-2.62,5.3-2.62,6.81,0l14.65,25.37l14.65,25.37c1.51,2.62-0.38,5.9-3.41,5.9h-29.29h-29.29
		c-3.03,0-4.92-3.28-3.41-5.9l14.65-25.37L1550.78,48.35z"/>
	<path class="st2" d="M1549.66,63.26c2.05-3.56,7.17-3.56,9.22,0l19.83,34.44l19.83,34.44c2.05,3.56-0.51,8.01-4.61,8.01h-39.65
		h-39.65c-4.1,0-6.66-4.45-4.61-8.01l19.83-34.44L1549.66,63.26z"/>
	<path class="st2" d="M1548.19,83.08c2.68-4.64,9.37-4.64,12.05,0l25.91,44.88l25.91,44.88c2.68,4.64-0.67,10.44-6.03,10.44h-51.82
		h-51.82c-5.36,0-8.7-5.8-6.03-10.44l25.91-44.88L1548.19,83.08z"/>
	<path class="st4" d="M1567.21,82.75L1567.21,82.75c-1.93,0.96-4.28,0.18-5.24-1.75l-6.57-13.17c-0.96-1.93-0.18-4.28,1.75-5.24v0
		c1.93-0.96,4.28-0.18,5.24,1.75l6.57,13.17C1569.92,79.44,1569.14,81.78,1567.21,82.75z"/>
	<path class="st3" d="M1544.7,202.82L1544.7,202.82c-0.89,0-1.61-0.72-1.61-1.61v-10.58c0-0.89,0.72-1.61,1.61-1.61l0,0
		c0.89,0,1.61,0.72,1.61,1.61v10.58C1546.31,202.1,1545.59,202.82,1544.7,202.82z"/>
	<path class="st3" d="M1530.9,209.26L1530.9,209.26c-0.89,0-1.61-0.72-1.61-1.61v-10.36c0-0.89,0.72-1.61,1.61-1.61l0,0
		c0.89,0,1.61,0.72,1.61,1.61v10.36C1532.51,208.54,1531.79,209.26,1530.9,209.26z"/>
	<path class="st3" d="M1539.64,221.67L1539.64,221.67c-0.89,0-1.61-0.72-1.61-1.61v-10.58c0-0.89,0.72-1.61,1.61-1.61l0,0
		c0.89,0,1.61,0.72,1.61,1.61v10.58C1541.25,220.95,1540.53,221.67,1539.64,221.67z"/>
</g>
<g>
	<path class="st0" d="M1484.74,232.27h-7.55c-2.53,0-4.57-2.05-4.57-4.57v-22.33c0-2.53,2.05-4.57,4.57-4.57h7.55
		c2.53,0,4.57,2.05,4.57,4.57v22.33C1489.31,230.22,1487.26,232.27,1484.74,232.27z"/>
	<g>
		<path class="st1" d="M1478.54,130.33c1.09-1.54,3.81-1.54,4.89,0l10.52,14.86l10.52,14.86c1.09,1.54-0.27,3.45-2.45,3.45h-21.05
			h-21.05c-2.18,0-3.53-1.92-2.45-3.45l10.52-14.86L1478.54,130.33z"/>
		<path class="st1" d="M1477.74,139.06c1.47-2.08,5.15-2.08,6.62,0l14.24,20.17l14.24,20.17c1.47,2.08-0.37,4.69-3.31,4.69h-28.49
			h-28.49c-2.94,0-4.78-2.61-3.31-4.69l14.24-20.17L1477.74,139.06z"/>
		<path class="st1" d="M1476.68,149.12c1.92-2.72,6.73-2.72,8.66,0l18.62,26.28l18.62,26.28c1.92,2.72-0.48,6.11-4.33,6.11h-37.23
			h-37.23c-3.85,0-6.25-3.4-4.33-6.11l18.62-26.28L1476.68,149.12z"/>
	</g>
	<path class="st2" d="M1488.56,142.81c0.89-1.26,3.1-1.26,3.99,0l8.58,12.21l8.58,12.21c0.89,1.26-0.22,2.84-1.99,2.84h-17.16
		h-17.16c-1.77,0-2.88-1.58-1.99-2.84l8.58-12.21L1488.56,142.81z"/>
	<path class="st2" d="M1487.9,149.99c1.2-1.71,4.2-1.71,5.4,0l11.61,16.57l11.61,16.57c1.2,1.71-0.3,3.85-2.7,3.85h-23.22h-23.22
		c-2.4,0-3.9-2.14-2.7-3.85l11.61-16.57L1487.9,149.99z"/>
	<path class="st2" d="M1487.04,159.53c1.57-2.23,5.49-2.23,7.06,0l15.17,21.59l15.17,21.59c1.57,2.23-0.39,5.02-3.53,5.02h-30.35
		h-30.35c-3.14,0-5.1-2.79-3.53-5.02l15.17-21.59L1487.04,159.53z"/>
	<path class="st4" d="M1498.18,159.36L1498.18,159.36c-1.13,0.46-2.51,0.09-3.07-0.84l-3.85-6.34c-0.56-0.93-0.1-2.06,1.03-2.52l0,0
		c1.13-0.46,2.51-0.09,3.07,0.84l3.85,6.34C1499.77,157.77,1499.31,158.9,1498.18,159.36z"/>
	<path class="st3" d="M1485.43,217.14h-0.85c-0.29,0-0.52-0.23-0.52-0.52v-5.61c0-0.29,0.23-0.52,0.52-0.52h0.85
		c0.29,0,0.52,0.23,0.52,0.52v5.61C1485.94,216.91,1485.71,217.14,1485.43,217.14z"/>
	<path class="st3" d="M1477.35,220.24h-0.85c-0.29,0-0.52-0.23-0.52-0.52v-5.5c0-0.29,0.23-0.52,0.52-0.52h0.85
		c0.29,0,0.52,0.23,0.52,0.52v5.5C1477.86,220,1477.63,220.24,1477.35,220.24z"/>
	<path class="st3" d="M1482.46,226.21h-0.85c-0.29,0-0.52-0.23-0.52-0.52v-5.61c0-0.29,0.23-0.52,0.52-0.52h0.85
		c0.29,0,0.52,0.23,0.52,0.52v5.61C1482.98,225.98,1482.75,226.21,1482.46,226.21z"/>
</g>
<g>
	<path class="st0" d="M1867.73,232.27h-13.85c-4.05,0-7.33-3.28-7.33-7.33v-50.76c0-4.05,3.28-7.33,7.33-7.33h13.85
		c4.05,0,7.33,3.28,7.33,7.33v50.76C1875.06,228.99,1871.78,232.27,1867.73,232.27z"/>
	<g>
		<path class="st1" d="M1856.68,20.39c1.86-3.19,6.5-3.19,8.36,0L1883,51.27l17.97,30.88c1.86,3.19-0.46,7.18-4.18,7.18h-35.94
			h-35.94c-3.71,0-6.04-3.99-4.18-7.18l17.97-30.88L1856.68,20.39z"/>
		<path class="st1" d="M1855.31,38.54c2.51-4.33,8.8-4.33,11.31,0l24.32,41.92l24.32,41.92c2.51,4.33-0.63,9.75-5.66,9.75h-48.64
			h-48.64c-5.03,0-8.17-5.42-5.66-9.75l24.32-41.92L1855.31,38.54z"/>
		<path class="st1" d="M1853.5,59.45c3.29-5.65,11.5-5.65,14.78,0l31.79,54.62l31.79,54.62c3.29,5.65-0.82,12.7-7.39,12.7h-63.57
			h-63.57c-6.57,0-10.68-7.06-7.39-12.7l31.79-54.62L1853.5,59.45z"/>
	</g>
	<path class="st2" d="M1873.78,46.35c1.51-2.62,5.3-2.62,6.81,0l14.65,25.37l14.65,25.37c1.51,2.62-0.38,5.9-3.41,5.9h-29.29h-29.29
		c-3.03,0-4.92-3.28-3.41-5.9l14.65-25.37L1873.78,46.35z"/>
	<path class="st2" d="M1872.66,61.26c2.05-3.56,7.17-3.56,9.22,0l19.83,34.44l19.83,34.44c2.05,3.56-0.51,8.01-4.61,8.01h-39.65
		h-39.65c-4.1,0-6.66-4.45-4.61-8.01l19.83-34.44L1872.66,61.26z"/>
	<path class="st2" d="M1871.19,81.08c2.68-4.64,9.37-4.64,12.05,0l25.91,44.88l25.91,44.88c2.68,4.64-0.67,10.44-6.03,10.44h-51.82
		h-51.82c-5.36,0-8.7-5.8-6.03-10.44l25.91-44.88L1871.19,81.08z"/>
	<path class="st3" d="M1867.7,200.82L1867.7,200.82c-0.89,0-1.61-0.72-1.61-1.61v-10.58c0-0.89,0.72-1.61,1.61-1.61l0,0
		c0.89,0,1.61,0.72,1.61,1.61v10.58C1869.31,200.1,1868.59,200.82,1867.7,200.82z"/>
	<path class="st3" d="M1853.9,207.26L1853.9,207.26c-0.89,0-1.61-0.72-1.61-1.61v-10.36c0-0.89,0.72-1.61,1.61-1.61l0,0
		c0.89,0,1.61,0.72,1.61,1.61v10.36C1855.51,206.54,1854.79,207.26,1853.9,207.26z"/>
	<path class="st3" d="M1862.64,219.67L1862.64,219.67c-0.89,0-1.61-0.72-1.61-1.61v-10.58c0-0.89,0.72-1.61,1.61-1.61l0,0
		c0.89,0,1.61,0.72,1.61,1.61v10.58C1864.25,218.95,1863.53,219.67,1862.64,219.67z"/>
</g>
<path class="st0" d="M1703.73,231.27h-13.85c-4.05,0-7.33-3.28-7.33-7.33v-50.76c0-4.05,3.28-7.33,7.33-7.33h13.85
	c4.05,0,7.33,3.28,7.33,7.33v50.76C1711.06,227.99,1707.78,231.27,1703.73,231.27z"/>
<g>
	<path class="st1" d="M1692.68,19.39c1.86-3.19,6.5-3.19,8.36,0L1719,50.27l17.97,30.88c1.86,3.19-0.46,7.18-4.18,7.18h-35.94
		h-35.94c-3.71,0-6.04-3.99-4.18-7.18l17.97-30.88L1692.68,19.39z"/>
	<path class="st1" d="M1691.31,37.54c2.51-4.33,8.8-4.33,11.31,0l24.32,41.92l24.32,41.92c2.51,4.33-0.63,9.75-5.66,9.75h-48.64
		h-48.64c-5.03,0-8.17-5.42-5.66-9.75l24.32-41.92L1691.31,37.54z"/>
	<path class="st1" d="M1689.5,58.45c3.29-5.65,11.5-5.65,14.78,0l31.79,54.62l31.79,54.62c3.29,5.65-0.82,12.7-7.39,12.7h-63.57
		h-63.57c-6.57,0-10.68-7.06-7.39-12.7l31.79-54.62L1689.5,58.45z"/>
</g>
<path class="st2" d="M1709.78,45.35c1.51-2.62,5.3-2.62,6.81,0l14.65,25.37l14.65,25.37c1.51,2.62-0.38,5.9-3.41,5.9h-29.29h-29.29
	c-3.03,0-4.92-3.28-3.41-5.9l14.65-25.37L1709.78,45.35z"/>
<path class="st2" d="M1708.66,60.26c2.05-3.56,7.17-3.56,9.22,0l19.83,34.44l19.83,34.44c2.05,3.56-0.51,8.01-4.61,8.01h-39.65
	h-39.65c-4.1,0-6.66-4.45-4.61-8.01l19.83-34.44L1708.66,60.26z"/>
<path class="st2" d="M1707.19,80.08c2.68-4.64,9.37-4.64,12.05,0l25.91,44.88l25.91,44.88c2.68,4.64-0.67,10.44-6.03,10.44h-51.82
	h-51.82c-5.36,0-8.7-5.8-6.03-10.44l25.91-44.88L1707.19,80.08z"/>
<path class="st4" d="M1726.21,79.75L1726.21,79.75c-1.93,0.96-4.28,0.18-5.24-1.75l-6.57-13.17c-0.96-1.93-0.18-4.28,1.75-5.24v0
	c1.93-0.96,4.28-0.18,5.24,1.75l6.57,13.17C1728.92,76.44,1728.14,78.78,1726.21,79.75z"/>
<path class="st3" d="M1703.7,199.82L1703.7,199.82c-0.89,0-1.61-0.72-1.61-1.61v-10.58c0-0.89,0.72-1.61,1.61-1.61l0,0
	c0.89,0,1.61,0.72,1.61,1.61v10.58C1705.31,199.1,1704.59,199.82,1703.7,199.82z"/>
<path class="st3" d="M1689.9,206.26L1689.9,206.26c-0.89,0-1.61-0.72-1.61-1.61v-10.36c0-0.89,0.72-1.61,1.61-1.61l0,0
	c0.89,0,1.61,0.72,1.61,1.61v10.36C1691.51,205.54,1690.79,206.26,1689.9,206.26z"/>
<path class="st3" d="M1698.64,218.67L1698.64,218.67c-0.89,0-1.61-0.72-1.61-1.61v-10.58c0-0.89,0.72-1.61,1.61-1.61l0,0
	c0.89,0,1.61,0.72,1.61,1.61v10.58C1700.25,217.95,1699.53,218.67,1698.64,218.67z"/>
<path class="st0" d="M1778.53,232.27H1773c-4.05,0-7.33-3.28-7.33-7.33v-31.65c0-4.05,3.28-7.33,7.33-7.33h5.52
	c4.05,0,7.33,3.28,7.33,7.33v31.65C1785.86,228.99,1782.58,232.27,1778.53,232.27z"/>
<g>
	<path class="st1" d="M1772.85,82.28c1.31-2.26,4.6-2.26,5.92,0l12.72,21.86l12.72,21.86c1.31,2.26-0.33,5.08-2.96,5.08h-25.44
		h-25.44c-2.63,0-4.27-2.82-2.96-5.08l12.72-21.86L1772.85,82.28z"/>
	<path class="st1" d="M1771.87,95.12c1.78-3.07,6.23-3.07,8.01,0l17.22,29.68l17.22,29.68c1.78,3.07-0.44,6.9-4,6.9h-34.44h-34.44
		c-3.56,0-5.78-3.83-4-6.9l17.22-29.68L1771.87,95.12z"/>
	<path class="st1" d="M1770.6,109.92c2.33-4,8.14-4,10.47,0l22.5,38.67l22.5,38.67c2.33,4-0.58,8.99-5.23,8.99h-45h-45
		c-4.65,0-7.56-5-5.23-8.99l22.5-38.67L1770.6,109.92z"/>
</g>
<path class="st2" d="M1784.95,100.65c1.07-1.86,3.75-1.86,4.82,0l10.37,17.96l10.37,17.96c1.07,1.86-0.27,4.18-2.41,4.18h-20.74
	h-20.74c-2.14,0-3.48-2.32-2.41-4.18l10.37-17.96L1784.95,100.65z"/>
<path class="st2" d="M1783.12,125.24c1.9-3.28,6.64-3.28,8.53,0l18.34,31.77l18.34,31.77c1.9,3.28-0.47,7.39-4.27,7.39h-36.68
	h-36.68c-3.79,0-6.16-4.1-4.27-7.39l18.34-31.77L1783.12,125.24z"/>
<path class="st4" d="M1796.58,125L1796.58,125c-1.37,0.68-3.03,0.13-3.71-1.24l-4.65-9.32c-0.68-1.37-0.13-3.03,1.24-3.71l0,0
	c1.37-0.68,3.03-0.13,3.71,1.24l4.65,9.32C1798.5,122.66,1797.95,124.32,1796.58,125z"/>
<path class="st3" d="M1780.65,210L1780.65,210c-0.63,0-1.14-0.51-1.14-1.14v-7.49c0-0.63,0.51-1.14,1.14-1.14l0,0
	c0.63,0,1.14,0.51,1.14,1.14v7.49C1781.79,209.49,1781.28,210,1780.65,210z"/>
<path class="st3" d="M1770.88,214.56L1770.88,214.56c-0.63,0-1.14-0.51-1.14-1.14v-7.33c0-0.63,0.51-1.14,1.14-1.14l0,0
	c0.63,0,1.14,0.51,1.14,1.14v7.33C1772.02,214.05,1771.51,214.56,1770.88,214.56z"/>
<path class="st3" d="M1777.07,223.35L1777.07,223.35c-0.63,0-1.14-0.51-1.14-1.14v-7.49c0-0.63,0.51-1.14,1.14-1.14l0,0
	c0.63,0,1.14,0.51,1.14,1.14v7.49C1778.21,222.84,1777.7,223.35,1777.07,223.35z"/>
<path class="st4" d="M1891.21,83.75L1891.21,83.75c-1.93,0.96-4.28,0.18-5.24-1.75l-6.57-13.17c-0.96-1.93-0.18-4.28,1.75-5.24v0
	c1.93-0.96,4.28-0.18,5.24,1.75l6.57,13.17C1893.92,80.44,1893.14,82.78,1891.21,83.75z"/>
<g>
	<path class="st0" d="M1952.73,234.27h-13.85c-4.05,0-7.33-3.28-7.33-7.33v-50.76c0-4.05,3.28-7.33,7.33-7.33h13.85
		c4.05,0,7.33,3.28,7.33,7.33v50.76C1960.06,230.99,1956.78,234.27,1952.73,234.27z"/>
	<g>
		<path class="st1" d="M1941.68,22.39c1.86-3.19,6.5-3.19,8.36,0L1968,53.27l17.97,30.88c1.86,3.19-0.46,7.18-4.18,7.18h-35.94
			h-35.94c-3.71,0-6.04-3.99-4.18-7.18l17.97-30.88L1941.68,22.39z"/>
		<path class="st1" d="M1940.31,40.54c2.51-4.33,8.8-4.33,11.31,0l24.32,41.92l24.32,41.92c2.51,4.33-0.63,9.75-5.66,9.75h-48.64
			h-48.64c-5.03,0-8.17-5.42-5.66-9.75l24.32-41.92L1940.31,40.54z"/>
		<path class="st1" d="M1938.5,61.45c3.29-5.65,11.5-5.65,14.78,0l31.79,54.62l31.79,54.62c3.29,5.65-0.82,12.7-7.39,12.7h-63.57
			h-63.57c-6.57,0-10.68-7.06-7.39-12.7l31.79-54.62L1938.5,61.45z"/>
	</g>
	<path class="st2" d="M1958.78,48.35c1.51-2.62,5.3-2.62,6.81,0l14.65,25.37l14.65,25.37c1.51,2.62-0.38,5.9-3.41,5.9h-29.29h-29.29
		c-3.03,0-4.92-3.28-3.41-5.9l14.65-25.37L1958.78,48.35z"/>
	<path class="st2" d="M1957.66,63.26c2.05-3.56,7.17-3.56,9.22,0l19.83,34.44l19.83,34.44c2.05,3.56-0.51,8.01-4.61,8.01h-39.65
		h-39.65c-4.1,0-6.66-4.45-4.61-8.01l19.83-34.44L1957.66,63.26z"/>
	<path class="st2" d="M1956.19,83.08c2.68-4.64,9.37-4.64,12.05,0l25.91,44.88l25.91,44.88c2.68,4.64-0.67,10.44-6.03,10.44h-51.82
		h-51.82c-5.36,0-8.7-5.8-6.03-10.44l25.91-44.88L1956.19,83.08z"/>
	<path class="st4" d="M1975.21,82.75L1975.21,82.75c-1.93,0.96-4.28,0.18-5.24-1.75l-6.57-13.17c-0.96-1.93-0.18-4.28,1.75-5.24v0
		c1.93-0.96,4.28-0.18,5.24,1.75l6.57,13.17C1977.92,79.44,1977.14,81.78,1975.21,82.75z"/>
	<path class="st3" d="M1952.7,202.82L1952.7,202.82c-0.89,0-1.61-0.72-1.61-1.61v-10.58c0-0.89,0.72-1.61,1.61-1.61l0,0
		c0.89,0,1.61,0.72,1.61,1.61v10.58C1954.31,202.1,1953.59,202.82,1952.7,202.82z"/>
	<path class="st3" d="M1938.9,209.26L1938.9,209.26c-0.89,0-1.61-0.72-1.61-1.61v-10.36c0-0.89,0.72-1.61,1.61-1.61l0,0
		c0.89,0,1.61,0.72,1.61,1.61v10.36C1940.51,208.54,1939.79,209.26,1938.9,209.26z"/>
	<path class="st3" d="M1947.64,221.67L1947.64,221.67c-0.89,0-1.61-0.72-1.61-1.61v-10.58c0-0.89,0.72-1.61,1.61-1.61l0,0
		c0.89,0,1.61,0.72,1.61,1.61v10.58C1949.25,220.95,1948.53,221.67,1947.64,221.67z"/>
</g>
<g>
	<path class="st0" d="M1892.74,232.27h-7.55c-2.53,0-4.57-2.05-4.57-4.57v-22.33c0-2.53,2.05-4.57,4.57-4.57h7.55
		c2.53,0,4.57,2.05,4.57,4.57v22.33C1897.31,230.22,1895.26,232.27,1892.74,232.27z"/>
	<g>
		<path class="st1" d="M1886.54,130.33c1.09-1.54,3.81-1.54,4.89,0l10.52,14.86l10.52,14.86c1.09,1.54-0.27,3.45-2.45,3.45h-21.05
			h-21.05c-2.18,0-3.53-1.92-2.45-3.45l10.52-14.86L1886.54,130.33z"/>
		<path class="st1" d="M1885.74,139.06c1.47-2.08,5.15-2.08,6.62,0l14.24,20.17l14.24,20.17c1.47,2.08-0.37,4.69-3.31,4.69h-28.49
			h-28.49c-2.94,0-4.78-2.61-3.31-4.69l14.24-20.17L1885.74,139.06z"/>
		<path class="st1" d="M1884.68,149.12c1.92-2.72,6.73-2.72,8.66,0l18.62,26.28l18.62,26.28c1.92,2.72-0.48,6.11-4.33,6.11h-37.23
			h-37.23c-3.85,0-6.25-3.4-4.33-6.11l18.62-26.28L1884.68,149.12z"/>
	</g>
	<path class="st2" d="M1896.56,142.81c0.89-1.26,3.1-1.26,3.99,0l8.58,12.21l8.58,12.21c0.89,1.26-0.22,2.84-1.99,2.84h-17.16
		h-17.16c-1.77,0-2.88-1.58-1.99-2.84l8.58-12.21L1896.56,142.81z"/>
	<path class="st2" d="M1895.9,149.99c1.2-1.71,4.2-1.71,5.4,0l11.61,16.57l11.61,16.57c1.2,1.71-0.3,3.85-2.7,3.85h-23.22h-23.22
		c-2.4,0-3.9-2.14-2.7-3.85l11.61-16.57L1895.9,149.99z"/>
	<path class="st2" d="M1895.04,159.53c1.57-2.23,5.49-2.23,7.06,0l15.17,21.59l15.17,21.59c1.57,2.23-0.39,5.02-3.53,5.02h-30.35
		h-30.35c-3.14,0-5.1-2.79-3.53-5.02l15.17-21.59L1895.04,159.53z"/>
	<path class="st4" d="M1906.18,159.36L1906.18,159.36c-1.13,0.46-2.51,0.09-3.07-0.84l-3.85-6.34c-0.56-0.93-0.1-2.06,1.03-2.52l0,0
		c1.13-0.46,2.51-0.09,3.07,0.84l3.85,6.34C1907.77,157.77,1907.31,158.9,1906.18,159.36z"/>
	<path class="st3" d="M1893.43,217.14h-0.85c-0.29,0-0.52-0.23-0.52-0.52v-5.61c0-0.29,0.23-0.52,0.52-0.52h0.85
		c0.29,0,0.52,0.23,0.52,0.52v5.61C1893.94,216.91,1893.71,217.14,1893.43,217.14z"/>
	<path class="st3" d="M1885.35,220.24h-0.85c-0.29,0-0.52-0.23-0.52-0.52v-5.5c0-0.29,0.23-0.52,0.52-0.52h0.85
		c0.29,0,0.52,0.23,0.52,0.52v5.5C1885.86,220,1885.63,220.24,1885.35,220.24z"/>
	<path class="st3" d="M1890.46,226.21h-0.85c-0.29,0-0.52-0.23-0.52-0.52v-5.61c0-0.29,0.23-0.52,0.52-0.52h0.85
		c0.29,0,0.52,0.23,0.52,0.52v5.61C1890.98,225.98,1890.75,226.21,1890.46,226.21z"/>
</g>
<g>
	<path class="st0" d="M410.37,228.27h-5.14c-4.05,0-7.33-3.28-7.33-7.33v-33.05c0-4.05,3.28-7.33,7.33-7.33h5.14
		c4.05,0,7.33,3.28,7.33,7.33v33.05C417.7,224.99,414.42,228.27,410.37,228.27z"/>
	<g>
		<path class="st1" d="M404.93,73.75c1.29-2.33,4.51-2.33,5.8,0l12.48,22.52l12.48,22.52c1.29,2.33-0.32,5.24-2.9,5.24h-24.96
			h-24.96c-2.58,0-4.19-2.91-2.9-5.24l12.48-22.52L404.93,73.75z"/>
		<path class="st1" d="M403.98,86.98c1.75-3.16,6.11-3.16,7.86,0l16.89,30.57l16.89,30.57c1.75,3.16-0.44,7.11-3.93,7.11h-33.78
			h-33.78c-3.49,0-5.67-3.95-3.93-7.11l16.89-30.57L403.98,86.98z"/>
		<path class="st1" d="M402.73,102.23c2.28-4.12,7.99-4.12,10.27,0l22.08,39.83l22.08,39.83c2.28,4.12-0.57,9.26-5.13,9.26h-44.15
			h-44.15c-4.56,0-7.42-5.15-5.13-9.26l22.08-39.83L402.73,102.23z"/>
	</g>
	<path class="st2" d="M416.81,92.68c1.05-1.91,3.68-1.91,4.73,0l10.17,18.5l10.17,18.5c1.05,1.91-0.26,4.3-2.37,4.3h-20.34h-20.34
		c-2.1,0-3.42-2.39-2.37-4.3l10.17-18.5L416.81,92.68z"/>
	<path class="st2" d="M416.03,103.55c1.42-2.6,4.98-2.6,6.4,0l13.77,25.12l13.77,25.12c1.42,2.6-0.36,5.84-3.2,5.84h-27.54H391.7
		c-2.85,0-4.62-3.25-3.2-5.84l13.77-25.12L416.03,103.55z"/>
	<path class="st2" d="M415.01,118.01c1.86-3.38,6.51-3.38,8.37,0l17.99,32.73l17.99,32.73c1.86,3.38-0.46,7.61-4.18,7.61H419.2
		h-35.99c-3.72,0-6.04-4.23-4.18-7.61l17.99-32.73L415.01,118.01z"/>
	<path class="st4" d="M428.22,117.76L428.22,117.76c-1.34,0.7-2.97,0.13-3.64-1.28l-4.56-9.61c-0.67-1.41-0.12-3.12,1.22-3.82v0
		c1.34-0.7,2.97-0.13,3.64,1.28l4.56,9.61C430.11,115.35,429.56,117.06,428.22,117.76z"/>
	<path class="st3" d="M412.61,205.33h-0.04c-0.61,0-1.1-0.49-1.1-1.1v-7.87c0-0.61,0.49-1.1,1.1-1.1h0.04c0.61,0,1.1,0.49,1.1,1.1
		v7.87C413.71,204.84,413.22,205.33,412.61,205.33z"/>
	<path class="st3" d="M403.03,210.03h-0.04c-0.61,0-1.1-0.49-1.1-1.1v-7.71c0-0.61,0.49-1.1,1.1-1.1h0.04c0.61,0,1.1,0.49,1.1,1.1
		v7.71C404.13,209.54,403.64,210.03,403.03,210.03z"/>
	<path class="st3" d="M409.1,219.08h-0.04c-0.61,0-1.1-0.49-1.1-1.1v-7.87c0-0.61,0.49-1.1,1.1-1.1h0.04c0.61,0,1.1,0.49,1.1,1.1
		v7.87C410.19,218.59,409.7,219.08,409.1,219.08z"/>
</g>
<g>
	<path class="st0" d="M2022.37,234.27h-5.14c-4.05,0-7.33-3.28-7.33-7.33v-33.05c0-4.05,3.28-7.33,7.33-7.33h5.14
		c4.05,0,7.33,3.28,7.33,7.33v33.05C2029.7,230.99,2026.42,234.27,2022.37,234.27z"/>
	<g>
		<path class="st1" d="M2016.93,79.75c1.29-2.33,4.51-2.33,5.8,0l12.48,22.52l12.48,22.52c1.29,2.33-0.32,5.24-2.9,5.24h-24.96
			h-24.96c-2.58,0-4.19-2.91-2.9-5.24l12.48-22.52L2016.93,79.75z"/>
		<path class="st1" d="M2015.98,92.98c1.75-3.16,6.11-3.16,7.86,0l16.89,30.57l16.89,30.57c1.75,3.16-0.44,7.11-3.93,7.11h-33.78
			h-33.78c-3.49,0-5.67-3.95-3.93-7.11l16.89-30.57L2015.98,92.98z"/>
		<path class="st1" d="M2014.73,108.23c2.28-4.12,7.99-4.12,10.27,0l22.08,39.83l22.08,39.83c2.28,4.12-0.57,9.26-5.13,9.26h-44.15
			h-44.15c-4.56,0-7.42-5.15-5.13-9.26l22.08-39.83L2014.73,108.23z"/>
	</g>
	<path class="st2" d="M2028.81,98.68c1.05-1.91,3.68-1.91,4.73,0l10.17,18.5l10.17,18.5c1.05,1.91-0.26,4.3-2.37,4.3h-20.34h-20.34
		c-2.1,0-3.42-2.39-2.37-4.3l10.17-18.5L2028.81,98.68z"/>
	<path class="st2" d="M2028.03,109.55c1.42-2.6,4.98-2.6,6.4,0l13.77,25.12l13.77,25.12c1.42,2.6-0.36,5.84-3.2,5.84h-27.54h-27.54
		c-2.85,0-4.62-3.25-3.2-5.84l13.77-25.12L2028.03,109.55z"/>
	<path class="st2" d="M2027.01,124.01c1.86-3.38,6.51-3.38,8.37,0l17.99,32.73l17.99,32.73c1.86,3.38-0.46,7.61-4.18,7.61h-35.99
		h-35.99c-3.72,0-6.04-4.23-4.18-7.61l17.99-32.73L2027.01,124.01z"/>
	<path class="st4" d="M2040.22,123.76L2040.22,123.76c-1.34,0.7-2.97,0.13-3.64-1.28l-4.56-9.61c-0.67-1.41-0.12-3.12,1.22-3.82v0
		c1.34-0.7,2.97-0.13,3.64,1.28l4.56,9.61C2042.11,121.35,2041.56,123.06,2040.22,123.76z"/>
	<path class="st3" d="M2024.61,211.33h-0.04c-0.61,0-1.1-0.49-1.1-1.1v-7.87c0-0.61,0.49-1.1,1.1-1.1h0.04c0.61,0,1.1,0.49,1.1,1.1
		v7.87C2025.71,210.84,2025.22,211.33,2024.61,211.33z"/>
	<path class="st3" d="M2015.03,216.03h-0.04c-0.61,0-1.1-0.49-1.1-1.1v-7.71c0-0.61,0.49-1.1,1.1-1.1h0.04c0.61,0,1.1,0.49,1.1,1.1
		v7.71C2016.13,215.54,2015.64,216.03,2015.03,216.03z"/>
	<path class="st3" d="M2021.1,225.08h-0.04c-0.61,0-1.1-0.49-1.1-1.1v-7.87c0-0.61,0.49-1.1,1.1-1.1h0.04c0.61,0,1.1,0.49,1.1,1.1
		v7.87C2022.19,224.59,2021.7,225.08,2021.1,225.08z"/>
</g>
<g>
	<path class="st0" d="M2442.37,236.27h-5.14c-4.05,0-7.33-3.28-7.33-7.33v-33.05c0-4.05,3.28-7.33,7.33-7.33h5.14
		c4.05,0,7.33,3.28,7.33,7.33v33.05C2449.7,232.99,2446.42,236.27,2442.37,236.27z"/>
	<g>
		<path class="st1" d="M2436.93,81.75c1.29-2.33,4.51-2.33,5.8,0l12.48,22.52l12.48,22.52c1.29,2.33-0.32,5.24-2.9,5.24h-24.96
			h-24.96c-2.58,0-4.19-2.91-2.9-5.24l12.48-22.52L2436.93,81.75z"/>
		<path class="st1" d="M2435.98,94.98c1.75-3.16,6.11-3.16,7.86,0l16.89,30.57l16.89,30.57c1.75,3.16-0.44,7.11-3.93,7.11h-33.78
			h-33.78c-3.49,0-5.67-3.95-3.93-7.11l16.89-30.57L2435.98,94.98z"/>
		<path class="st1" d="M2434.73,110.23c2.28-4.12,7.99-4.12,10.27,0l22.08,39.83l22.08,39.83c2.28,4.12-0.57,9.26-5.13,9.26h-44.15
			h-44.15c-4.56,0-7.42-5.15-5.13-9.26l22.08-39.83L2434.73,110.23z"/>
	</g>
	<path class="st2" d="M2448.81,100.68c1.05-1.91,3.68-1.91,4.73,0l10.17,18.5l10.17,18.5c1.05,1.91-0.26,4.3-2.37,4.3h-20.34h-20.34
		c-2.1,0-3.42-2.39-2.37-4.3l10.17-18.5L2448.81,100.68z"/>
	<path class="st2" d="M2448.03,111.55c1.42-2.6,4.98-2.6,6.4,0l13.77,25.12l13.77,25.12c1.42,2.6-0.36,5.84-3.2,5.84h-27.54h-27.54
		c-2.85,0-4.62-3.25-3.2-5.84l13.77-25.12L2448.03,111.55z"/>
	<path class="st2" d="M2447.01,126.01c1.86-3.38,6.51-3.38,8.37,0l17.99,32.73l17.99,32.73c1.86,3.38-0.46,7.61-4.18,7.61h-35.99
		h-35.99c-3.72,0-6.04-4.23-4.18-7.61l17.99-32.73L2447.01,126.01z"/>
	<path class="st4" d="M2460.22,125.76L2460.22,125.76c-1.34,0.7-2.97,0.13-3.64-1.28l-4.56-9.61c-0.67-1.41-0.12-3.12,1.22-3.82v0
		c1.34-0.7,2.97-0.13,3.64,1.28l4.56,9.61C2462.11,123.35,2461.56,125.06,2460.22,125.76z"/>
	<path class="st3" d="M2444.61,213.33h-0.04c-0.61,0-1.1-0.49-1.1-1.1v-7.87c0-0.61,0.49-1.1,1.1-1.1h0.04c0.61,0,1.1,0.49,1.1,1.1
		v7.87C2445.71,212.84,2445.22,213.33,2444.61,213.33z"/>
	<path class="st3" d="M2435.03,218.03h-0.04c-0.61,0-1.1-0.49-1.1-1.1v-7.71c0-0.61,0.49-1.1,1.1-1.1h0.04c0.61,0,1.1,0.49,1.1,1.1
		v7.71C2436.13,217.54,2435.64,218.03,2435.03,218.03z"/>
	<path class="st3" d="M2441.1,227.08h-0.04c-0.61,0-1.1-0.49-1.1-1.1v-7.87c0-0.61,0.49-1.1,1.1-1.1h0.04c0.61,0,1.1,0.49,1.1,1.1
		v7.87C2442.19,226.59,2441.7,227.08,2441.1,227.08z"/>
</g>
<g>
	<path class="st0" d="M811.73,232.07h-5.14c-4.05,0-7.33-3.28-7.33-7.33v-33.05c0-4.05,3.28-7.33,7.33-7.33h5.14
		c4.05,0,7.33,3.28,7.33,7.33v33.05C819.06,228.79,815.78,232.07,811.73,232.07z"/>
	<g>
		<path class="st1" d="M806.3,77.55c1.29-2.33,4.51-2.33,5.8,0l12.48,22.52l12.48,22.52c1.29,2.33-0.32,5.24-2.9,5.24H809.2h-24.96
			c-2.58,0-4.19-2.91-2.9-5.24l12.48-22.52L806.3,77.55z"/>
		<path class="st1" d="M805.34,90.78c1.75-3.16,6.11-3.16,7.86,0l16.89,30.57l16.89,30.57c1.75,3.16-0.44,7.11-3.93,7.11h-33.78
			h-33.78c-3.49,0-5.67-3.95-3.93-7.11l16.89-30.57L805.34,90.78z"/>
		<path class="st1" d="M804.09,106.03c2.28-4.12,7.99-4.12,10.27,0l22.08,39.83l22.08,39.83c2.28,4.12-0.57,9.26-5.13,9.26h-44.15
			h-44.15c-4.56,0-7.42-5.15-5.13-9.26l22.08-39.83L804.09,106.03z"/>
	</g>
	<path class="st2" d="M818.17,96.48c1.05-1.91,3.68-1.91,4.73,0l10.17,18.5l10.17,18.5c1.05,1.91-0.26,4.3-2.37,4.3h-20.34h-20.34
		c-2.1,0-3.42-2.39-2.37-4.3l10.17-18.5L818.17,96.48z"/>
	<path class="st2" d="M817.4,107.35c1.42-2.6,4.98-2.6,6.4,0l13.77,25.12l13.77,25.12c1.42,2.6-0.36,5.84-3.2,5.84H820.6h-27.54
		c-2.85,0-4.62-3.25-3.2-5.84l13.77-25.12L817.4,107.35z"/>
	<path class="st2" d="M816.37,121.81c1.86-3.38,6.51-3.38,8.37,0l17.99,32.73l17.99,32.73c1.86,3.38-0.46,7.61-4.18,7.61h-35.99
		h-35.99c-3.72,0-6.04-4.23-4.18-7.61l17.99-32.73L816.37,121.81z"/>
	<path class="st4" d="M829.58,121.56L829.58,121.56c-1.34,0.7-2.97,0.13-3.64-1.28l-4.56-9.61c-0.67-1.41-0.12-3.12,1.22-3.82l0,0
		c1.34-0.7,2.97-0.13,3.64,1.28l4.56,9.61C831.47,119.15,830.92,120.86,829.58,121.56z"/>
	<path class="st3" d="M813.97,209.13h-0.04c-0.61,0-1.1-0.49-1.1-1.1v-7.87c0-0.61,0.49-1.1,1.1-1.1h0.04c0.61,0,1.1,0.49,1.1,1.1
		v7.87C815.07,208.64,814.58,209.13,813.97,209.13z"/>
	<path class="st3" d="M804.39,213.83h-0.04c-0.61,0-1.1-0.49-1.1-1.1v-7.71c0-0.61,0.49-1.1,1.1-1.1h0.04c0.61,0,1.1,0.49,1.1,1.1
		v7.71C805.49,213.34,805,213.83,804.39,213.83z"/>
	<path class="st3" d="M810.46,222.89h-0.04c-0.61,0-1.1-0.49-1.1-1.1v-7.87c0-0.61,0.49-1.1,1.1-1.1h0.04c0.61,0,1.1,0.49,1.1,1.1
		v7.87C811.56,222.4,811.07,222.89,810.46,222.89z"/>
</g>
<g>
	<path class="st0" d="M1208.73,232.07h-5.14c-4.05,0-7.33-3.28-7.33-7.33v-33.05c0-4.05,3.28-7.33,7.33-7.33h5.14
		c4.05,0,7.33,3.28,7.33,7.33v33.05C1216.06,228.79,1212.78,232.07,1208.73,232.07z"/>
	<g>
		<path class="st1" d="M1203.3,77.55c1.29-2.33,4.51-2.33,5.8,0l12.48,22.52l12.48,22.52c1.29,2.33-0.32,5.24-2.9,5.24h-24.96
			h-24.96c-2.58,0-4.19-2.91-2.9-5.24l12.48-22.52L1203.3,77.55z"/>
		<path class="st1" d="M1202.34,90.78c1.75-3.16,6.11-3.16,7.86,0l16.89,30.57l16.89,30.57c1.75,3.16-0.44,7.11-3.93,7.11h-33.78
			h-33.78c-3.49,0-5.67-3.95-3.93-7.11l16.89-30.57L1202.34,90.78z"/>
		<path class="st1" d="M1201.09,106.03c2.28-4.12,7.99-4.12,10.27,0l22.08,39.83l22.08,39.83c2.28,4.12-0.57,9.26-5.13,9.26h-44.15
			h-44.15c-4.56,0-7.42-5.15-5.13-9.26l22.08-39.83L1201.09,106.03z"/>
	</g>
	<path class="st2" d="M1215.17,96.48c1.05-1.91,3.68-1.91,4.73,0l10.17,18.5l10.17,18.5c1.05,1.91-0.26,4.3-2.37,4.3h-20.34h-20.34
		c-2.1,0-3.42-2.39-2.37-4.3l10.17-18.5L1215.17,96.48z"/>
	<path class="st2" d="M1214.4,107.35c1.42-2.6,4.98-2.6,6.4,0l13.77,25.12l13.77,25.12c1.42,2.6-0.36,5.84-3.2,5.84h-27.54h-27.54
		c-2.85,0-4.62-3.25-3.2-5.84l13.77-25.12L1214.4,107.35z"/>
	<path class="st2" d="M1213.37,121.81c1.86-3.38,6.51-3.38,8.37,0l17.99,32.73l17.99,32.73c1.86,3.38-0.46,7.61-4.18,7.61h-35.99
		h-35.99c-3.72,0-6.04-4.23-4.18-7.61l17.99-32.73L1213.37,121.81z"/>
	<path class="st4" d="M1226.58,121.56L1226.58,121.56c-1.34,0.7-2.97,0.13-3.64-1.28l-4.56-9.61c-0.67-1.41-0.12-3.12,1.22-3.82l0,0
		c1.34-0.7,2.97-0.13,3.64,1.28l4.56,9.61C1228.47,119.15,1227.92,120.86,1226.58,121.56z"/>
	<path class="st3" d="M1210.97,209.13h-0.04c-0.61,0-1.1-0.49-1.1-1.1v-7.87c0-0.61,0.49-1.1,1.1-1.1h0.04c0.61,0,1.1,0.49,1.1,1.1
		v7.87C1212.07,208.64,1211.58,209.13,1210.97,209.13z"/>
	<path class="st3" d="M1201.39,213.83h-0.04c-0.61,0-1.1-0.49-1.1-1.1v-7.71c0-0.61,0.49-1.1,1.1-1.1h0.04c0.61,0,1.1,0.49,1.1,1.1
		v7.71C1202.49,213.34,1202,213.83,1201.39,213.83z"/>
	<path class="st3" d="M1207.46,222.89h-0.04c-0.61,0-1.1-0.49-1.1-1.1v-7.87c0-0.61,0.49-1.1,1.1-1.1h0.04c0.61,0,1.1,0.49,1.1,1.1
		v7.87C1208.56,222.4,1208.07,222.89,1207.46,222.89z"/>
</g>
<g>
	<path class="st0" d="M1622.73,230.07h-5.14c-4.05,0-7.33-3.28-7.33-7.33v-33.05c0-4.05,3.28-7.33,7.33-7.33h5.14
		c4.05,0,7.33,3.28,7.33,7.33v33.05C1630.06,226.79,1626.78,230.07,1622.73,230.07z"/>
	<g>
		<path class="st1" d="M1617.3,75.55c1.29-2.33,4.51-2.33,5.8,0l12.48,22.52l12.48,22.52c1.29,2.33-0.32,5.24-2.9,5.24h-24.96
			h-24.96c-2.58,0-4.19-2.91-2.9-5.24l12.48-22.52L1617.3,75.55z"/>
		<path class="st1" d="M1616.34,88.78c1.75-3.16,6.11-3.16,7.86,0l16.89,30.57l16.89,30.57c1.75,3.16-0.44,7.11-3.93,7.11h-33.78
			h-33.78c-3.49,0-5.67-3.95-3.93-7.11l16.89-30.57L1616.34,88.78z"/>
		<path class="st1" d="M1615.09,104.03c2.28-4.12,7.99-4.12,10.27,0l22.08,39.83l22.08,39.83c2.28,4.12-0.57,9.26-5.13,9.26h-44.15
			h-44.15c-4.56,0-7.42-5.15-5.13-9.26l22.08-39.83L1615.09,104.03z"/>
	</g>
	<path class="st2" d="M1629.17,94.48c1.05-1.91,3.68-1.91,4.73,0l10.17,18.5l10.17,18.5c1.05,1.91-0.26,4.3-2.37,4.3h-20.34h-20.34
		c-2.1,0-3.42-2.39-2.37-4.3l10.17-18.5L1629.17,94.48z"/>
	<path class="st2" d="M1628.4,105.35c1.42-2.6,4.98-2.6,6.4,0l13.77,25.12l13.77,25.12c1.42,2.6-0.36,5.84-3.2,5.84h-27.54h-27.54
		c-2.85,0-4.62-3.25-3.2-5.84l13.77-25.12L1628.4,105.35z"/>
	<path class="st2" d="M1627.37,119.81c1.86-3.38,6.51-3.38,8.37,0l17.99,32.73l17.99,32.73c1.86,3.38-0.46,7.61-4.18,7.61h-35.99
		h-35.99c-3.72,0-6.04-4.23-4.18-7.61l17.99-32.73L1627.37,119.81z"/>
	<path class="st4" d="M1640.58,119.56L1640.58,119.56c-1.34,0.7-2.97,0.13-3.64-1.28l-4.56-9.61c-0.67-1.41-0.12-3.12,1.22-3.82l0,0
		c1.34-0.7,2.97-0.13,3.64,1.28l4.56,9.61C1642.47,117.15,1641.92,118.86,1640.58,119.56z"/>
	<path class="st3" d="M1624.97,207.13h-0.04c-0.61,0-1.1-0.49-1.1-1.1v-7.87c0-0.61,0.49-1.1,1.1-1.1h0.04c0.61,0,1.1,0.49,1.1,1.1
		v7.87C1626.07,206.64,1625.58,207.13,1624.97,207.13z"/>
	<path class="st3" d="M1615.39,211.83h-0.04c-0.61,0-1.1-0.49-1.1-1.1v-7.71c0-0.61,0.49-1.1,1.1-1.1h0.04c0.61,0,1.1,0.49,1.1,1.1
		v7.71C1616.49,211.34,1616,211.83,1615.39,211.83z"/>
	<path class="st3" d="M1621.46,220.89h-0.04c-0.61,0-1.1-0.49-1.1-1.1v-7.87c0-0.61,0.49-1.1,1.1-1.1h0.04c0.61,0,1.1,0.49,1.1,1.1
		v7.87C1622.56,220.4,1622.07,220.89,1621.46,220.89z"/>
</g>
</svg>
