<svg xmlns="http://www.w3.org/2000/svg" data-name="Layer 1" viewBox="0 0 700 512" id="winter-socks"><path fill="#3d3351" d="M45.439 152.574c3.45.905 6.907 1.79 10.355 2.7 27.816 7.349 55.954 12.52 84.887 12.034 2.68 5.39 1.282 8.063-4.483 8.14-5.62.077-11.156-1.037-16.736-1.562-8.119-2.067-16.53-1.987-24.747-3.433a495.293 495.293 0 0 1-49.31-11.248"></path><path fill="#d64142" d="M347.524 216.677c-2.138-11.152-4.208-22.318-6.437-33.452a76.514 76.514 0 0 1-1.332-22.46c1.656-1.59 3.345-.5 4.955.026 16.386 5.357 32.124 3.616 47.348-4.18 1.794-.918 3.388-2.67 5.758-1.694 2.595 9.814 2.14 19.854 2.323 29.862.237 12.957-1.332 25.788-2.35 38.66-.894 1.362-2.24.862-3.481.87-5.258.033-7.74 2.082-7.74 6.352.001 4.337 1.766 5.803 7.195 5.944.808.021 1.604-.013 2.093.802-.24 2.545-.58 5.085-.697 7.636-.268 5.815 2.2 10.112 7.228 13.109 7.276 4.336 15.192 7.603 21.816 13.029.285 2.019-1.31 2.785-2.55 3.747-11.574 8.989-17.57 20.735-17.676 35.453-.013 1.853.476 3.96-1.533 5.282-7.065-1.205-14.19-.486-21.287-.654a65.239 65.239 0 0 1-19.994-3.148c-.21-4.43 2.212-8.242 2.873-12.534 1.919-12.454-1.945-22.843-10.094-31.983-3.319-3.723-7.357-6.762-10.334-10.815 1.048-6.755 3.794-13.179 3.916-20.114.345-3.139.28-6.13 5.105-6.069 3.197.041 4.869-2.945 4.973-6.138.11-3.366-2.26-4.687-5.138-5.395-1.761-.434-4.04.3-4.94-2.136zm-124.206 71.858 6.73-26.1c3.183-6.94 6.047-7.537 11.414-2.376.58.559 1.125 1.155 1.718 1.7 1.537 1.413 2.736 3.95 4.592 4.076 2.622.18 1.921-3.127 2.995-4.742 2.613-3.932 5.5-4.355 9.137-.989 4.094 3.792 4.094 3.792 6.95-.643 4.794-7.44 8.847-7.443 13.677-.009.118 8.89 3.457 16.018 10.797 21.4a64.529 64.529 0 0 1 14.2 13.53c-2.654 3.501-6.776 2.64-10.262 3.056-3.843.46-6.01 1.411-5.727 5.764.273 4.19-2.035 6.594-6.157 7.304a22.191 22.191 0 0 1-4.29.694c-3.692-.1-4.951 1.577-5.087 5.26-.283 7.662-3.329 9.878-11.039 8.18-3.265-.72-4.533.059-4.39 3.402a33.469 33.469 0 0 1-.185 7.243c-.282 1.594-.27 3.883-3.108 2.836-4.516-2.045-9.54-2.885-13.694-5.786-2.478-1.716-2.176-4.151-1.49-6.513 4.128-14.202-1.003-24.735-12.8-32.677-1.744-1.174-3.455-2.382-3.981-4.61zm-124.42-5.702 7.923-18.513c1.748-1.363 3.631-.914 5.518-.413 13.81 3.664 27.741 5.177 41.93 2.44 2.048-.395 4.177-.69 5.856 1.11-.513 6.778 2.241 12.041 7.282 16.42a140.61 140.61 0 0 0 14.254 10.552c.385 2.16-1.208 3.196-2.54 4.313-11.48 9.633-19.24 21.53-22.546 36.277-.481 2.15-.012 5.675-4.114 5.256l-30.974-7.062c-2.036-.952-1.928-2.673-1.733-4.526 1.787-17.037-5.184-30.226-17.997-40.844-1.563-1.295-3.64-2.352-2.859-5.01z"></path><path fill="#ece4f6" d="M280.53 259.452c-8.702-6.503-8.738-6.524-14.411 3.698-1.301 2.344-2.003 4.596-4.544.764-1.555-2.347-2.948-6.054-6.803-5.074-3.53.897-3.645 4.507-4.462 7.409-.257.913-.658 1.786-1.061 2.86-2.654-2.617-5.149-5.093-7.662-7.55-5.581-5.455-6.982-5.345-11.538.876 2.532-12.152 1.939-24.47 1.894-36.755a33.132 33.132 0 0 0-.818-5.167c1.071-1.63 1.233-3.646 2.324-5.285 2.051-3.082 3.711-3.264 5.913-.314 1.635 2.189 2.787 4.73 4.553 6.831 2.653 3.158 4.73 2.832 6.47-.906 3.775-8.112 3.775-8.112 9.637-.965 3.873 4.723 5.965 4.391 8.435-1.356.509-1.183.946-2.396 1.536-3.547 1.454-2.837 3.514-3.413 5.705-1.056 2.65 2.85 5.899 3.668 9.544 3.703-1.55 12.177-3.122 24.352-4.62 36.535a48.44 48.44 0 0 0-.091 5.3zm-25.247 78.669c2.325.07 1.888-1.622 1.892-3 .013-4.341.005-8.683.005-13.404 2.831.764 5.378 1.583 7.982 2.125 4.99 1.04 6.912-.427 7.42-5.423.777-7.638.777-7.638 8.08-8.806 7.542-1.207 7.742-1.303 7.69-8.759-.02-2.885.419-4.25 3.843-4.397 4.466-.19 8.89-1.339 13.333-2.075 4.708 6.1 9.81 11.926 12.33 19.44 5.45 16.255-3.58 28.871-20.707 29.192a167.326 167.326 0 0 1-41.868-4.893z"></path><path fill="#d64142" d="M285.242 217.618c-4.126 3.34-6.927.45-9.425-2.288-2.81-3.081-3.936-2.38-5.288 1.237-4.014 10.738-5.927 10.942-13.199 1.898-.982-1.221-2.054-2.37-3.446-3.965-.88 2.543-1.611 4.582-2.292 6.637-.672 2.031-1.388 4.096-3.856 4.449-2.703.387-3.968-1.617-5.266-3.509-2.054-2.995-3.37-6.522-6.25-9.043-2.545 2.09-2.006 6.027-5.095 7.479-.98-8.403-2.028-16.8-2.9-25.214a61.71 61.71 0 0 1 .058-7.174c2.501-7.374 6.51-8.367 12.26-3.038 5.635 5.222 5.635 5.222 9.669-1.108 4.215-6.616 8.067-6.925 13.111-.613 2.391 2.992 3.74 2.988 5.244-.468a17.362 17.362 0 0 1 2.323-3.664c3.338-4.279 6.742-4.273 10.258-.02a26.511 26.511 0 0 1 5.105 8.669c.816 9.95-.299 19.836-1.011 29.735zm-113.24-4.671-8.012 36.668c-2.284 2.697-5.523 3.036-8.704 3.62a88.242 88.242 0 0 1-36.417-.675c-3.147-.735-6.325-1.509-8.176-4.594 1.2-11.829 2.036-23.68 2.13-35.575 1.661-2.063 3.529-.635 5.225-.188 11.28 2.973 22.619 4.901 34.364 3.31a77.94 77.94 0 0 0 13.983-3.705c1.912-.631 4.355-2.198 5.607 1.139z"></path><path fill="#ece4f6" d="M152.461 340.275c1.781.21 2.042-1.012 2.282-2.344 3.166-17.55 12.192-31.473 26.208-42.311.34-.263.478-.788.71-1.19 8.933 6.352 15.275 14.538 17.863 25.354 2.276 9.51.113 17.34-6.438 21.604-6.273 4.084-13.535 4.255-20.571 3.315-6.761-.903-13.375-2.908-20.054-4.428zm249.983-24.613c-.583-12.828 2.562-24.459 10.69-34.65 3.155-3.957 7.342-6.6 11.069-9.832 10.634 8.419 14.934 19.855 15.34 32.967.216 6.976-4.155 12.054-10.978 13.867-7.501 1.994-14.641-.035-21.84-1.676-1.405-.32-2.853-.455-4.28-.676z"></path><path fill="#d64142" d="M113.812 201.904a95.272 95.272 0 0 1 2.719-19.075 6.164 6.164 0 0 1 5.136-.567c5.183 1.321 10.482 1.799 15.775 2.47a73.572 73.572 0 0 0 30.621-2.854c1.82-.541 3.607-1.6 5.602-.605a47.194 47.194 0 0 1-.029 17.777c-3.772 3.352-8.589 4.248-13.233 5.287a97.682 97.682 0 0 1-38.354.913c-2.91-.506-6.194-.52-8.237-3.346Z"></path><path fill="#ece4f6" d="M343.608 256.53c19.934 12.877 28.249 35.254 17.555 55.33-14.022-3.218-26.855-17.05-22.714-34.825q2.401-10.31 5.16-20.506Z"></path><path fill="#3d3351" d="M466.395 97.231a572.92 572.92 0 0 1-77.745 36.09c-.903.343-1.785.74-2.677 1.11-3.062 3.704-7.998 3.543-11.797 5.74-5.033.317-5.979-1.97-3.242-7.808a10.352 10.352 0 0 1 8.42-2.644c30.162-11.151 59.41-24.203 87.23-40.198"></path><path fill="#ece4f6" d="M286.253 187.883q-2.914-3.824-5.827-7.65c-3.465-4.577-6.026-4.49-9.13.475-1.607 2.571-2.97 5.295-4.513 8.073-2.502-1.624-3.577-4.212-5.283-6.255-3.347-4.006-6.42-3.9-9.176.448a52.627 52.627 0 0 0-4.073 7.119c-1.237 2.86-2.318 2.386-3.917.403a43.724 43.724 0 0 0-3.367-3.468c-6.316-6.264-7.866-6.128-12.684 1.097-.54-4.218-.633-8.612 1.213-12.354 2.323-4.712-.253-4.625-3.46-4.59.18-1.694 1.553-2.035 2.792-2.07 4.007-.114 7.923-1.402 11.963-.906a4.279 4.279 0 0 1 2.815 2.358c2.016 3.392 3.515 3.494 5.814.307 1.318-1.825 2.288-3.9 4.738-4.505 6.277-1.313 12.67-1.766 18.992-2.723 1.572-.238 3.21-.508 4.451.941 6.802 6.312 8.946 14.353 8.652 23.3zm-175.56 60.083c9.759 5.102 20.436 5.545 31.017 5.38a70.201 70.201 0 0 0 22.28-3.73 108.614 108.614 0 0 0-3.865 17.84c-3.193.265-6.422.308-9.571.83-13.966 2.318-27.503.33-40.878-3.712a13.82 13.82 0 0 0-2.855-.254 97.913 97.913 0 0 0 3.872-16.354zm-11.795 34.867c-.138 2.343 2.061 2.597 3.317 3.67 13.448 11.489 21.605 25.21 18.436 43.69a2.88 2.88 0 0 0 .836 3.02c-5.81-2.261-11.673-4.465-16.627-8.373-9.779-7.715-11.15-18.259-9.372-29.588.662-4.214 2.247-8.283 3.41-12.419z"></path><path fill="#3d3351" d="m277.601 164.583-24.345 2.967c-3.48-3.074-.94-5.282 1.083-7.572 3.228-.668 6.424-2.074 9.767-.48 32.01-3.797 63.326-10.573 93.62-21.754.753-.278 1.532-.481 2.299-.719 3.565.654 3.217 3.146 2.697 5.722-5.567 4.257-11.736 6.87-18.868 6.823-21.651 6.914-43.885 11.262-66.253 15.013Z"></path><path fill="#ece4f6" d="M113.812 201.904c19.223 4.794 38.242 4.695 56.986-2.33a16.054 16.054 0 0 1 2.838-.524c.271 4.728-1.061 9.268-1.634 13.897-.942-2-2.559-1.097-3.707-.581-17.863 8.03-35.718 5.724-53.602.14a7.772 7.772 0 0 0-1.87-.115c1.306-3.404.52-7.005.989-10.487zm284.004-46.987c-15.31 9.571-31.732 12.604-49.421 8.57-2.972-.677-5.498-2.66-8.64-2.721 1.027-3.384 1.724-6.892 3.76-9.892 2.468-.475 4.782.51 7.17.772 14.192 1.551 28.015.99 40.62-6.846a4.778 4.778 0 0 1 2.762-.72 40.482 40.482 0 0 1 3.749 10.837z"></path><path fill="#3d3351" d="m241.759 169.193-15.724 1.989c-18.357 1.417-36.708 2.932-55.135 3.124-1.483 1.35-3.319 1.237-5.128 1.248-3.533-.098-7.07.04-10.6-.078-2.172-.072-4.92.602-5.97-1.973-.97-2.384-.024-4.722 1.93-6.514a4.324 4.324 0 0 1 5.197.378c28.893.81 57.623-1.239 86.26-4.933 1.835 2.513 1.965 4.815-.83 6.76Z"></path><path fill="#ece4f6" d="M223.318 288.535c3.985 3.443 8.702 5.912 12.265 9.967 6.562 7.467 8.74 15.833 6.202 25.417-.744 2.807-1.578 5.576-.196 8.415-13.825-4.198-23.029-20.705-19.888-37.329.406-2.15.235-4.533 1.617-6.47Z"></path><path fill="#8c4646" d="M151.513 167.446a6.565 6.565 0 0 0-.423.858c-1.963 5.99-1.961 5.994 4.126 5.99 3.66-.003 7.322-.019 10.983-.028-1.952 3.434-5.512 2.78-8.508 3.043-3.887.343-7.487.3-10.206 4.069-1.885 2.611-5.126 2.232-6.822-.605-1.548-2.59-3.613-3.144-6.27-3.64-4.678-.873-9.723-.12-13.987-2.943l-.945-.304c4.656-1.572 9.275-.066 13.91.163 7.342.362 7.342.365 7.31-6.741a198.438 198.438 0 0 1 .827-23.968c.72-6.268 5.594-5.76 9.531-6.689 3.5-.825 5.641 1.15 5.774 4.623.095 2.472 2.662 1.381 3.272 2.84-2.619 2.188-3.132 5.349-4.104 8.382-1.588 4.957-1.326 10.468-4.468 14.95Z"></path><path fill="#ece4f6" d="M120.406 174.19c6.193.626 12.38 1.327 18.582 1.838 2.256.185 1.696 1.87 2.103 3.1.455 1.373.853 2.788 2.643 3.04a3.097 3.097 0 0 0 3.487-2.002c1.42-3.86 4.555-3.748 7.757-3.86a30.43 30.43 0 0 0 11.22-2.04l4.702.04 2.765 6.967c-17.194 7.368-34.768 6.255-52.457 2.319-1.551-.345-3.01-1.156-4.677-.762l3.875-8.64Z"></path><path fill="#d64142" d="M394.067 144.08c-8.442 8.059-19.313 8.751-29.995 9.457-6.923.457-14.054.872-20.557-2.663.11-.433.221-.867.336-1.302q9.155-3.2 18.303-6.395c2.832.26 2.21 4.84 4.887 4.455 2.986-.43 1.934-3.973 3.106-5.932 1.01-1.689 3.342-1.067 4.38-2.639 3.528-2.257 7.602-3.164 11.448-4.63 3.295 2.715 6.513 5.494 8.092 9.649Z"></path><path fill="#8c4646" d="M241.759 169.193c1.341-2.122.605-4.5.83-6.759.547-6.071.823-12.184 1.719-18.204.855-5.746 3.241-7.188 9.07-6.471 6.834.84 7.056 1.109 6.765 8.217-.424 5.498-2.955 10.173-5.758 14.74-.79 2.21-2.971 4.19-1.127 6.834-2.015.917-1.697 3.325-2.971 4.67-1.388 1.464-2.686 3.382-5.078 3.018-2.863-.435-2.333-2.94-2.705-4.883-.08-.42-.488-.776-.745-1.162zm132.768-30.131c-1.236 2.322-4.73 3.027-4.317 6.697.154 1.37-.38 3.807-2.69 3.952-2.312.145-3.141-1.828-3.993-3.554-.483-.98-.917-1.986-1.373-2.98-.251-2.21.216-4.668-2.13-6.151 1.293-2.58-.326-4.9-.65-7.336-.486-3.646-1.01-7.287-1.444-10.94-.78-6.563.824-8.577 7.46-9.353 3.582-.418 5.905.962 6.419 4.757.143 1.055-.31 2.298.883 3.054.605 5.124 1.415 10.263-1.027 15.181-.277 1.241-.585 2.476-.824 3.724-.628 3.284.862 3.959 3.686 2.949z"></path><path fill="#ece4f6" d="M395.856 237.407c-3.558 1.068-7.071 1.537-9.514-2.073-1.955-2.887-2.296-6.222-.24-9.055 2.525-3.481 6.136-4.423 10.27-2.728.391.16.941-.066 1.418-.112l-1.934 13.968Z"></path><path fill="#6e3333" d="M254.385 160.717c1.061-5.249 3.45-9.979 5.758-14.74a33.356 33.356 0 0 1 4.332-.017c3.69.446 5.334 3.141 3.783 6.54a71.446 71.446 0 0 1-4.152 6.997l-9.72 1.22Z"></path><path fill="#ece4f6" d="M347.524 216.677c1.157 1.465 2.672.521 4.037.607 4.45.282 7.627 3.327 7.494 7.159-.16 4.634-3.43 7.977-8.18 7.347-4.788-.635-1.364 3.77-3.352 4.625-.828-4.008 1.222-7.767.973-11.775a59.049 59.049 0 0 0-.972-7.963Z"></path><path fill="#6f3434" d="M151.513 167.446c.916-7.148 3.178-13.992 4.68-21.004.564-2.626 2.162-2.295 3.892-2.328 2.815 1.54 2.257 4.073 1.59 6.355-1.658 5.669-3.549 11.27-5.346 16.898l-4.816.079zm220.152-35.057c.367-5.059-.81-10.222 1.027-15.181 4.456-2.09 6.346-.864 6.78 3.918.264 2.899-2.254 5.718-.116 8.592l-7.691 2.671z"></path><path fill="#ece4f6" d="M395.006 275.631c.163-4.834 2.963-7.661 7.528-7.6 4.003.053 6.264 2.612 6.17 6.981-.103 4.758-3.428 8.135-7.853 7.976-3.755-.135-5.994-2.952-5.845-7.357zm-42.208-90.355a6.11 6.11 0 0 1-6.317-6.356c.055-3.667 3.15-6.914 6.68-6.746 3.806.18 5.81 2.426 6.022 6.154a6.46 6.46 0 0 1-6.385 6.948zm34.743-13.283c4.508.012 6.864 2.457 6.62 6.212-.222 3.414-1.592 5.98-5.586 5.787-3.741-.181-6.231-2.086-6.21-5.943.021-3.714 2.15-5.923 5.176-6.056zm-8.71 33.657c.349-3.16 1.721-5.952 5.446-6.002 3.972-.053 5.543 2.843 5.796 6.396.245 3.452-1.586 5.522-4.987 5.87-3.182.326-6.135-2.676-6.255-6.264zm-6.883 41.376c-.067 4.12-1.885 6.606-5.706 6.688-3.667.078-5.437-2.285-5.483-5.889-.042-3.385 3.001-6.846 6.165-6.753 4.005.118 4.836 3.01 5.024 5.954zm18.315 58.136c-.082 2.965-1.69 5.443-5.308 5.642-3.637.2-5.673-2.087-5.812-5.617-.14-3.55 1.292-6.353 5.227-6.821 3.093-.368 5.791 2.646 5.893 6.796zm-22.355-33.473c.487-2.99 1.642-5.482 5.34-5.487 3.757-.006 5.727 2.196 5.733 5.693.006 3.219-1.869 5.705-5.252 5.773-3.601.072-5.363-2.395-5.82-5.979zm-1.134-71.376c-.137 3.829-2.891 6.407-6.293 6.191-3.46-.22-4.648-2.426-4.664-5.526-.019-3.591 2.72-6.596 5.83-6.234 3.396.396 4.943 2.616 5.127 5.569zm-242.207 97.21c-3.097.056-3.612-1.596-3.411-3.539.22-2.132.495-3.916-2.692-3.365a3.122 3.122 0 0 1-3.734-2.366 3.42 3.42 0 0 1 1.866-4.099c3.656-1.817 6.128-3.928 6.177-8.636a3.168 3.168 0 0 1 5.389-2.311c2.303 1.967 3.67 1.4 5.688.038 1.766-1.193 3.94-2.107 5.65.03 1.545 1.932.915 4.058-.565 5.756-2.006 2.3-3.322 4.32-1.376 7.57a2.627 2.627 0 0 1-2.654 3.96c-4.407-.872-5.822 2.502-8.076 4.704-.896.875-1.29 2.276-2.262 2.259zm13.46-68.977c3.276-.638 5.922-4.928 8.617-1.394 2.98 3.908-2.075 5.52-3.744 8.196 2.307 1.62 6.73 1.714 5.372 5.597-1.41 4.03-5.11 2.235-7.907 1.47-2.752-.751-4.339-.573-4.295 2.812.03 2.424-.027 5.424-3.3 5.435-3.578.011-3.056-3.225-2.878-5.475.211-2.66-.459-3.511-3.133-2.827-1.784.456-3.72.312-4.36-1.855-.66-2.236.537-3.651 2.612-4.463 4.029-1.577 7.507-3.505 7.152-8.802a3.036 3.036 0 0 1 3.286-3.409c2.598.201 2.703 2.597 2.578 4.715z"></path></svg>